Hack-Bold-PS.ufo
<glyph name="exclam" format="1">
  <advance width="1233"/>
  <unicode hex="0021"/>
  <outline>
    <contour>
      <point x="470" y="1052" type="line" name="ih01"/>
      <point x="470" y="1508" type="line" name="at01"/>
      <point x="755" y="1508" type="line"/>
      <point x="755" y="1052" type="line" name="sh01"/>
      <point x="687" y="476" type="line"/>
      <point x="548" y="476" type="line"/>
    </contour>
    <contour>
      <point x="615" y="-72" type="curve" smooth="yes" name="dv01"/>
      <point x="564" y="-72"/>
      <point x="522" y="-52" name="dh01"/>
      <point x="491" y="-21" type="curve" smooth="yes"/>
      <point x="458" y="12"/>
      <point x="441" y="57"/>
      <point x="441" y="113" type="curve" smooth="yes"/>
      <point x="441" y="168"/>
      <point x="458" y="211" name="dv02"/>
      <point x="491" y="244" type="curve" smooth="yes"/>
      <point x="506" y="259" name="dh02"/>
      <point x="507" y="259"/>
      <point x="512" y="264" type="curve" smooth="yes"/>
      <point x="517" y="268"/>
      <point x="526" y="274"/>
      <point x="535" y="278" type="curve" smooth="yes"/>
      <point x="560" y="288" type="line"/>
      <point x="586" y="294" type="line"/>
      <point x="594" y="295"/>
      <point x="606" y="296"/>
      <point x="617" y="296" type="curve" smooth="yes"/>
      <point x="662" y="296"/>
      <point x="708" y="278"/>
      <point x="740" y="245" type="curve" smooth="yes"/>
      <point x="773" y="212"/>
      <point x="789" y="167"/>
      <point x="789" y="112" type="curve" smooth="yes"/>
      <point x="789" y="96"/>
      <point x="787" y="80"/>
      <point x="784" y="63" type="curve" smooth="yes"/>
      <point x="781" y="46"/>
      <point x="778" y="37"/>
      <point x="767" y="18" type="curve" smooth="yes" name="hr01"/>
      <point x="759" y="3"/>
      <point x="755" y="-3"/>
      <point x="739" y="-20" type="curve" smooth="yes"/>
      <point x="720" y="-40"/>
      <point x="706" y="-50"/>
      <point x="683" y="-59" type="curve"/>
      <point x="660" y="-70"/>
      <point x="638" y="-72"/>
    </contour>
  </outline>
</glyph>
<glyph name="numbersign" format="1">
  <advance width="1233"/>
  <unicode hex="0023"/>
  <outline>
    <contour>
      <point x="209" y="373" type="line" name="dv01"/>
      <point x="2" y="373" type="line"/>
      <point x="2" y="588" type="line"/>
      <point x="262" y="588" type="line" name="dv02"/>
      <point x="336" y="881" type="line" name="dv03"/>
      <point x="117" y="881" type="line"/>
      <point x="117" y="1096" type="line"/>
      <point x="391" y="1096" type="line" name="dv04"/>
      <point x="485" y="1470" type="line" name="av01"/>
      <point x="707" y="1470" type="line"/>
      <point x="612" y="1096" type="line" name="sv01"/>
      <point x="815" y="1096" type="line"/>
      <point x="909" y="1470" type="line" name="av02"/>
      <point x="1133" y="1470" type="line"/>
      <point x="1036" y="1096" type="line" name="sv02"/>
      <point x="1229" y="1096" type="line"/>
      <point x="1229" y="881" type="line" name="sv03"/>
      <point x="983" y="881" type="line"/>
      <point x="909" y="588" type="line" name="sv04"/>
      <point x="1114" y="588" type="line"/>
      <point x="1114" y="373" type="line" name="sv05"/>
      <point x="856" y="373" type="line"/>
      <point x="762" y="0" type="line" name="ab01"/>
      <point x="541" y="0" type="line"/>
      <point x="635" y="373" type="line" name="sv06"/>
      <point x="430" y="373" type="line"/>
      <point x="336" y="0" type="line" name="ab02"/>
      <point x="115" y="0" type="line"/>
    </contour>
    <contour>
      <point x="688" y="588" type="line" name="sv07"/>
      <point x="762" y="881" type="line" name="sv08"/>
      <point x="557" y="881" type="line"/>
      <point x="483" y="588" type="line"/>
    </contour>
  </outline>
</glyph>
<glyph name="dollar" format="1">
  <advance width="1233"/>
  <unicode hex="0024"/>
  <outline>
    <contour>
      <point x="553" y="-301" type="line" name="sh10"/>
      <point x="694" y="-301" type="line" name="av01"/>
      <point x="695" y="0" type="line" name="sh09"/>
      <point x="803" y="7"/>
      <point x="903" y="35" name="dh06"/>
      <point x="984" y="114" type="curve" smooth="yes"/>
      <point x="1056" y="185"/>
      <point x="1092" y="271" name="sh08"/>
      <point x="1092" y="386" type="curve" smooth="yes"/>
      <point x="1092" y="497" name="sh07"/>
      <point x="1060" y="590"/>
      <point x="992" y="659" type="curve" smooth="yes"/>
      <point x="926" y="727"/>
      <point x="827" y="772" name="sh06"/>
      <point x="694" y="793" type="curve" name="sh05"/>
      <point x="694" y="1100" type="line" name="sh03"/>
      <point x="755" y="1096"/>
      <point x="809" y="1086" name="dh01"/>
      <point x="861" y="1070" type="curve" smooth="yes"/>
      <point x="906" y="1055"/>
      <point x="955" y="1035" name="dh03"/>
      <point x="999" y="1006" type="curve" name="hr01"/>
      <point x="999" y="1262" type="line" name="ih01"/>
      <point x="939" y="1281" name="sh02"/>
      <point x="888" y="1293"/>
      <point x="843" y="1301" type="curve" smooth="yes" name="sh01"/>
      <point x="792" y="1310" name="ih02"/>
      <point x="743" y="1316"/>
      <point x="695" y="1319" type="curve" name="dh02"/>
      <point x="694" y="1556" type="line" name="hr02"/>
      <point x="553" y="1556" type="line" name="sh04"/>
      <point x="553" y="1319" type="line"/>
      <point x="430" y="1311"/>
      <point x="334" y="1274" name="dh05"/>
      <point x="266" y="1208" type="curve" smooth="yes"/>
      <point x="198" y="1142" name="dh04"/>
      <point x="164" y="1054"/>
      <point x="164" y="943" type="curve" smooth="yes" name="sh11"/>
      <point x="164" y="837"/>
      <point x="196" y="753"/>
      <point x="260" y="690" type="curve" smooth="yes"/>
      <point x="324" y="626"/>
      <point x="422" y="581"/>
      <point x="553" y="555" type="curve"/>
      <point x="553" y="226" type="line"/>
      <point x="497" y="227"/>
      <point x="440" y="237"/>
      <point x="372" y="260" type="curve" smooth="yes"/>
      <point x="307" y="282"/>
      <point x="241" y="313"/>
      <point x="172" y="354" type="curve"/>
      <point x="172" y="92" type="line"/>
      <point x="241" y="63"/>
      <point x="307" y="41"/>
      <point x="370" y="26" type="curve" smooth="yes"/>
      <point x="435" y="11"/>
      <point x="495" y="2"/>
      <point x="552" y="0" type="curve"/>
    </contour>
    <contour>
      <point x="553" y="817" type="line"/>
      <point x="513" y="828"/>
      <point x="482" y="846"/>
      <point x="460" y="872" type="curve" smooth="yes"/>
      <point x="439" y="897"/>
      <point x="428" y="929"/>
      <point x="428" y="967" type="curve" smooth="yes"/>
      <point x="428" y="1010"/>
      <point x="441" y="1040"/>
      <point x="460" y="1059" type="curve" smooth="yes"/>
      <point x="481" y="1082"/>
      <point x="512" y="1095"/>
      <point x="553" y="1100" type="curve"/>
    </contour>
    <contour>
      <point x="694" y="528" type="line"/>
      <point x="741" y="519"/>
      <point x="772" y="501"/>
      <point x="793" y="477" type="curve" smooth="yes"/>
      <point x="816" y="450"/>
      <point x="827" y="417"/>
      <point x="827" y="376" type="curve" smooth="yes"/>
      <point x="827" y="335"/>
      <point x="815" y="302"/>
      <point x="792" y="275" type="curve" smooth="yes"/>
      <point x="771" y="251"/>
      <point x="742" y="233"/>
      <point x="694" y="226" type="curve"/>
    </contour>
  </outline>
</glyph>
<glyph name="ampersand" format="1">
  <advance width="1233"/>
  <unicode hex="0026"/>
  <outline>
    <contour>
      <point x="537" y="-29" type="curve" smooth="yes"/>
      <point x="604" y="-29" name="ab02"/>
      <point x="655" y="-20"/>
      <point x="711" y="-3" type="curve" smooth="yes"/>
      <point x="770" y="16" name="ab01"/>
      <point x="818" y="37"/>
      <point x="870" y="72" type="curve"/>
      <point x="918" y="0" type="line" name="dh04"/>
      <point x="1235" y="0" type="line"/>
      <point x="1073" y="246" type="line" name="sh03"/>
      <point x="1121" y="302" name="dh03"/>
      <point x="1157" y="367" name="sh02"/>
      <point x="1180" y="441" type="curve" smooth="yes"/>
      <point x="1203" y="512" name="ih03"/>
      <point x="1214" y="596"/>
      <point x="1214" y="694" type="curve" smooth="yes"/>
      <point x="1214" y="745" type="line" name="sh01"/>
      <point x="979" y="745" type="line"/>
      <point x="983" y="722" name="sv01"/>
      <point x="984" y="712"/>
      <point x="985" y="692" type="curve" smooth="yes" name="ih02"/>
      <point x="986" y="675"/>
      <point x="987" y="652" name="at02"/>
      <point x="987" y="633" type="curve" smooth="yes" name="at01"/>
      <point x="987" y="597"/>
      <point x="983" y="562" name="ih01"/>
      <point x="976" y="527" type="curve" smooth="yes"/>
      <point x="969" y="495"/>
      <point x="959" y="466"/>
      <point x="944" y="440" type="curve" name="dh01"/>
      <point x="631" y="920" type="line" smooth="yes"/>
      <point x="583" y="993" name="dv01"/>
      <point x="554" y="1042"/>
      <point x="533" y="1085" type="curve" smooth="yes"/>
      <point x="510" y="1130" name="dh02"/>
      <point x="502" y="1159"/>
      <point x="502" y="1186" type="curve" smooth="yes"/>
      <point x="502" y="1220"/>
      <point x="516" y="1247"/>
      <point x="543" y="1266" type="curve" smooth="yes"/>
      <point x="570" y="1285"/>
      <point x="612" y="1294" name="dv02"/>
      <point x="663" y="1294" type="curve" smooth="yes"/>
      <point x="708" y="1294" name="sh04"/>
      <point x="756" y="1287"/>
      <point x="795" y="1276" type="curve" smooth="yes"/>
      <point x="834" y="1265"/>
      <point x="887" y="1242"/>
      <point x="924" y="1221" type="curve"/>
      <point x="924" y="1477" type="line"/>
      <point x="877" y="1492"/>
      <point x="839" y="1501"/>
      <point x="786" y="1509" type="curve" smooth="yes"/>
      <point x="739" y="1516"/>
      <point x="694" y="1520"/>
      <point x="643" y="1520" type="curve" smooth="yes"/>
      <point x="506" y="1520"/>
      <point x="401" y="1491"/>
      <point x="328" y="1433" type="curve" smooth="yes"/>
      <point x="255" y="1374"/>
      <point x="219" y="1290"/>
      <point x="219" y="1189" type="curve" smooth="yes"/>
      <point x="219" y="1142"/>
      <point x="227" y="1102"/>
      <point x="243" y="1058" type="curve" smooth="yes"/>
      <point x="258" y="1018"/>
      <point x="281" y="970"/>
      <point x="317" y="913" type="curve"/>
      <point x="224" y="853"/>
      <point x="156" y="786"/>
      <point x="108" y="706" type="curve" smooth="yes"/>
      <point x="61" y="629"/>
      <point x="37" y="546"/>
      <point x="37" y="442" type="curve" smooth="yes" name="hr02"/>
      <point x="37" y="302"/>
      <point x="83" y="189"/>
      <point x="176" y="102" type="curve" smooth="yes"/>
      <point x="269" y="15"/>
      <point x="390" y="-29"/>
    </contour>
    <contour>
      <point x="580" y="207" type="curve" smooth="yes"/>
      <point x="503" y="207"/>
      <point x="438" y="235"/>
      <point x="385" y="291" type="curve" smooth="yes"/>
      <point x="340" y="339"/>
      <point x="307" y="406"/>
      <point x="307" y="494" type="curve" smooth="yes"/>
      <point x="307" y="545"/>
      <point x="318" y="590"/>
      <point x="341" y="629" type="curve" smooth="yes"/>
      <point x="363" y="668"/>
      <point x="396" y="702"/>
      <point x="440" y="731" type="curve"/>
      <point x="748" y="262" type="line"/>
      <point x="732" y="251"/>
      <point x="728" y="250"/>
      <point x="701" y="236" type="curve" smooth="yes"/>
      <point x="693" y="232" type="line" smooth="yes"/>
      <point x="669" y="221"/>
      <point x="655" y="218"/>
      <point x="636" y="214" type="curve" smooth="yes"/>
      <point x="613" y="209"/>
      <point x="600" y="207"/>
    </contour>
  </outline>
</glyph>
<glyph name="quotesingle" format="1">
  <advance width="1233"/>
  <unicode hex="0027"/>
  <outline>
    <contour>
      <point x="487" y="1493" type="line" name="dh01"/>
      <point x="743" y="1493" type="line" name="dh02"/>
      <point x="743" y="938" type="line" name="av01"/>
      <point x="487" y="938" type="line"/>
    </contour>
  </outline>
</glyph>
<glyph name="period" format="1">
  <advance width="1233"/>
  <unicode hex="002E"/>
  <outline>
    <contour>
      <point x="612" y="-42" type="curve" smooth="yes" name="dv01"/>
      <point x="560" y="-42"/>
      <point x="521" y="-23" name="dh01"/>
      <point x="488" y="10" type="curve" smooth="yes"/>
      <point x="453" y="45" name="dv02"/>
      <point x="436" y="88"/>
      <point x="436" y="141" type="curve" smooth="yes" name="dh02"/>
      <point x="436" y="196"/>
      <point x="453" y="240"/>
      <point x="488" y="275" type="curve" smooth="yes"/>
      <point x="522" y="309"/>
      <point x="564" y="326"/>
      <point x="613" y="326" type="curve" smooth="yes"/>
      <point x="661" y="326"/>
      <point x="704" y="310"/>
      <point x="739" y="275" type="curve" smooth="yes"/>
      <point x="773" y="241"/>
      <point x="790" y="196"/>
      <point x="790" y="141" type="curve" smooth="yes"/>
      <point x="790" y="88"/>
      <point x="773" y="44"/>
      <point x="739" y="10" type="curve" smooth="yes"/>
      <point x="704" y="-25"/>
      <point x="662" y="-42"/>
    </contour>
  </outline>
</glyph>
<glyph name="zero" format="1">
  <advance width="1233"/>
  <unicode hex="0030"/>
  <outline>
    <contour>
      <point x="617" y="-29" type="curve" smooth="yes" name="dv01"/>
      <point x="452" y="-29"/>
      <point x="328" y="36" name="sh01"/>
      <point x="246" y="165" type="curve" smooth="yes"/>
      <point x="164" y="294" name="at01"/>
      <point x="123" y="487"/>
      <point x="123" y="745" type="curve" smooth="yes" name="sh04"/>
      <point x="123" y="1004"/>
      <point x="164" y="1198"/>
      <point x="246" y="1327" type="curve" smooth="yes" name="dv02"/>
      <point x="328" y="1456"/>
      <point x="451" y="1520" name="sh03"/>
      <point x="616" y="1520" type="curve" smooth="yes"/>
      <point x="781" y="1520" name="sv01"/>
      <point x="905" y="1456"/>
      <point x="987" y="1327" type="curve" smooth="yes" name="sh05"/>
      <point x="1069" y="1198"/>
      <point x="1110" y="1004"/>
      <point x="1110" y="745" type="curve" smooth="yes"/>
      <point x="1110" y="486" name="sh06"/>
      <point x="1069" y="293" name="sh02"/>
      <point x="987" y="164" type="curve" smooth="yes" name="sh07"/>
      <point x="905" y="35"/>
      <point x="782" y="-29" name="sh09"/>
    </contour>
    <contour>
      <point x="616" y="221" type="curve" smooth="yes" name="sh10"/>
      <point x="685" y="221"/>
      <point x="735" y="263" name="ah01"/>
      <point x="766" y="346" type="curve" smooth="yes" name="sh11"/>
      <point x="797" y="430"/>
      <point x="813" y="563"/>
      <point x="813" y="745" type="curve" smooth="yes"/>
      <point x="813" y="928"/>
      <point x="797" y="1061"/>
      <point x="766" y="1145" type="curve" smooth="yes"/>
      <point x="735" y="1228"/>
      <point x="685" y="1270"/>
      <point x="616" y="1270" type="curve" smooth="yes"/>
      <point x="548" y="1270"/>
      <point x="498" y="1228"/>
      <point x="467" y="1145" type="curve" smooth="yes"/>
      <point x="436" y="1061"/>
      <point x="420" y="928"/>
      <point x="420" y="745" type="curve" smooth="yes"/>
      <point x="420" y="563"/>
      <point x="436" y="430"/>
      <point x="467" y="346" type="curve" smooth="yes"/>
      <point x="498" y="263"/>
      <point x="548" y="221"/>
    </contour>
    <contour>
      <point x="617" y="460" type="curve" smooth="yes"/>
      <point x="595" y="460"/>
      <point x="584" y="518"/>
      <point x="576" y="578" type="curve"/>
      <point x="571" y="629"/>
      <point x="564" y="712"/>
      <point x="564" y="749" type="curve" smooth="yes"/>
      <point x="564" y="775"/>
      <point x="566" y="854"/>
      <point x="574" y="915" type="curve" smooth="yes"/>
      <point x="583" y="993"/>
      <point x="596" y="1032"/>
      <point x="615" y="1032" type="curve" smooth="yes"/>
      <point x="635" y="1032"/>
      <point x="650" y="982"/>
      <point x="658" y="913" type="curve"/>
      <point x="663" y="857"/>
      <point x="669" y="779"/>
      <point x="669" y="743" type="curve" smooth="yes"/>
      <point x="669" y="720"/>
      <point x="668" y="645"/>
      <point x="660" y="579" type="curve" smooth="yes"/>
      <point x="651" y="499"/>
      <point x="636" y="460"/>
    </contour>
  </outline>
</glyph>
<glyph name="three" format="1">
  <advance width="1233"/>
  <unicode hex="0033"/>
  <outline>
    <contour>
      <point x="555" y="-29" type="curve" smooth="yes" name="dv01"/>
      <point x="484" y="-29"/>
      <point x="408" y="-23"/>
      <point x="335" y="-10" type="curve" smooth="yes"/>
      <point x="267" y="2"/>
      <point x="196" y="20" name="dv02"/>
      <point x="125" y="45" type="curve"/>
      <point x="125" y="319" type="line" name="dh01"/>
      <point x="186" y="288"/>
      <point x="253" y="264" name="dv03"/>
      <point x="328" y="248" type="curve" smooth="yes"/>
      <point x="404" y="231"/>
      <point x="480" y="223" name="dv04"/>
      <point x="541" y="223" type="curve" smooth="yes"/>
      <point x="629" y="223" name="sh01"/>
      <point x="699" y="239"/>
      <point x="748" y="278" type="curve" smooth="yes" name="sv01"/>
      <point x="796" y="317"/>
      <point x="817" y="371"/>
      <point x="817" y="435" type="curve" smooth="yes"/>
      <point x="817" y="503"/>
      <point x="794" y="563" name="at01"/>
      <point x="747" y="606" type="curve" smooth="yes"/>
      <point x="703" y="645" name="ih01"/>
      <point x="637" y="668"/>
      <point x="549" y="668" type="curve" smooth="yes" name="iv01"/>
      <point x="391" y="668" type="line"/>
      <point x="391" y="928" type="line" name="dh02"/>
      <point x="549" y="928" type="line" smooth="yes"/>
      <point x="622" y="928"/>
      <point x="679" y="943"/>
      <point x="720" y="972" type="curve" smooth="yes" name="sh02"/>
      <point x="763" y="1003"/>
      <point x="780" y="1044"/>
      <point x="780" y="1095" type="curve" smooth="yes"/>
      <point x="780" y="1150"/>
      <point x="760" y="1193"/>
      <point x="720" y="1224" type="curve" smooth="yes"/>
      <point x="681" y="1255"/>
      <point x="626" y="1270"/>
      <point x="547" y="1270" type="curve" smooth="yes"/>
      <point x="495" y="1270"/>
      <point x="433" y="1264"/>
      <point x="369" y="1249" type="curve" smooth="yes"/>
      <point x="309" y="1236"/>
      <point x="239" y="1215"/>
      <point x="170" y="1188" type="curve"/>
      <point x="170" y="1456" type="line"/>
      <point x="240" y="1477"/>
      <point x="308" y="1493"/>
      <point x="373" y="1504" type="curve" smooth="yes"/>
      <point x="441" y="1515"/>
      <point x="504" y="1520"/>
      <point x="564" y="1520" type="curve" smooth="yes"/>
      <point x="723" y="1520"/>
      <point x="846" y="1486"/>
      <point x="933" y="1417" type="curve" smooth="yes" name="hr02"/>
      <point x="1021" y="1348"/>
      <point x="1065" y="1253"/>
      <point x="1065" y="1133" type="curve" smooth="yes"/>
      <point x="1065" y="1048"/>
      <point x="1044" y="976"/>
      <point x="989" y="916" type="curve" smooth="yes"/>
      <point x="938" y="859"/>
      <point x="865" y="822"/>
      <point x="772" y="805" type="curve"/>
      <point x="879" y="786"/>
      <point x="960" y="744"/>
      <point x="1016" y="678" type="curve" smooth="yes"/>
      <point x="1072" y="613"/>
      <point x="1100" y="527"/>
      <point x="1100" y="414" type="curve" smooth="yes"/>
      <point x="1100" y="273"/>
      <point x="1054" y="161"/>
      <point x="962" y="85" type="curve" smooth="yes"/>
      <point x="870" y="9"/>
      <point x="734" y="-29"/>
    </contour>
  </outline>
</glyph>
<glyph name="five" format="1">
  <advance width="1233"/>
  <unicode hex="0035"/>
  <outline>
    <contour>
      <point x="533" y="-29" type="curve" smooth="yes" name="dv01"/>
      <point x="476" y="-29"/>
      <point x="408" y="-24"/>
      <point x="343" y="-13" type="curve" smooth="yes"/>
      <point x="276" y="-2"/>
      <point x="208" y="15" name="dv02"/>
      <point x="143" y="35" type="curve"/>
      <point x="143" y="301" type="line" name="ah02"/>
      <point x="203" y="272"/>
      <point x="253" y="255" name="dv03"/>
      <point x="314" y="240" type="curve" smooth="yes"/>
      <point x="374" y="225" name="sh01"/>
      <point x="428" y="219" name="at01"/>
      <point x="488" y="219" type="curve" smooth="yes"/>
      <point x="593" y="219" name="sv01"/>
      <point x="673" y="241"/>
      <point x="726" y="286" type="curve" smooth="yes" name="sh02"/>
      <point x="780" y="331"/>
      <point x="807" y="394" name="dv04"/>
      <point x="807" y="475" type="curve" smooth="yes"/>
      <point x="807" y="563" name="sh03"/>
      <point x="775" y="625"/>
      <point x="727" y="668" type="curve" smooth="yes"/>
      <point x="679" y="711" name="ah01"/>
      <point x="607" y="737" name="sh04"/>
      <point x="508" y="737" type="curve" smooth="yes"/>
      <point x="461" y="737"/>
      <point x="407" y="731"/>
      <point x="354" y="718" type="curve" smooth="yes"/>
      <point x="299" y="705"/>
      <point x="240" y="682"/>
      <point x="193" y="659" type="curve"/>
      <point x="193" y="1493" type="line"/>
      <point x="1004" y="1493" type="line"/>
      <point x="1004" y="1233" type="line"/>
      <point x="432" y="1233" type="line"/>
      <point x="432" y="956" type="line"/>
      <point x="445" y="961"/>
      <point x="478" y="972"/>
      <point x="509" y="977" type="curve" smooth="yes"/>
      <point x="533" y="981"/>
      <point x="570" y="983"/>
      <point x="598" y="983" type="curve" smooth="yes"/>
      <point x="739" y="983"/>
      <point x="868" y="935"/>
      <point x="957" y="844" type="curve" smooth="yes"/>
      <point x="1044" y="756"/>
      <point x="1094" y="630"/>
      <point x="1094" y="477" type="curve" smooth="yes"/>
      <point x="1094" y="318"/>
      <point x="1040" y="194"/>
      <point x="945" y="107" type="curve" smooth="yes"/>
      <point x="850" y="20"/>
      <point x="716" y="-29"/>
    </contour>
  </outline>
</glyph>
<glyph name="nine" format="1">
  <advance width="1233"/>
  <unicode hex="0039"/>
  <outline>
    <contour>
      <point x="502" y="-39" type="curve" smooth="yes" name="dv01"/>
      <point x="449" y="-39"/>
      <point x="403" y="-35"/>
      <point x="354" y="-24" type="curve" smooth="yes" name="ih01"/>
      <point x="303" y="-13"/>
      <point x="254" y="1" name="dv02"/>
      <point x="203" y="20" type="curve"/>
      <point x="203" y="289" type="line" name="sh01"/>
      <point x="256" y="258"/>
      <point x="306" y="236" name="dv03"/>
      <point x="355" y="221" type="curve" smooth="yes"/>
      <point x="402" y="206" name="dh01"/>
      <point x="448" y="199"/>
      <point x="495" y="199" type="curve" smooth="yes" name="at01"/>
      <point x="596" y="199"/>
      <point x="680" y="233" name="dh04"/>
      <point x="737" y="306" type="curve" smooth="yes"/>
      <point x="790" y="374"/>
      <point x="822" y="479" name="dv04"/>
      <point x="825" y="624" type="curve"/>
      <point x="792" y="579" name="dh03"/>
      <point x="756" y="550"/>
      <point x="705" y="527" type="curve" smooth="yes" name="sv01"/>
      <point x="654" y="504"/>
      <point x="601" y="494" name="dh02"/>
      <point x="533" y="494" type="curve" smooth="yes"/>
      <point x="400" y="494"/>
      <point x="293" y="537"/>
      <point x="220" y="622" type="curve" smooth="yes" name="sh02"/>
      <point x="148" y="706"/>
      <point x="111" y="827"/>
      <point x="111" y="983" type="curve" smooth="yes"/>
      <point x="111" y="1146"/>
      <point x="152" y="1278"/>
      <point x="233" y="1370" type="curve" smooth="yes"/>
      <point x="314" y="1461"/>
      <point x="433" y="1507"/>
      <point x="590" y="1507" type="curve" smooth="yes"/>
      <point x="775" y="1507"/>
      <point x="897" y="1441"/>
      <point x="977" y="1324" type="curve" smooth="yes"/>
      <point x="1068" y="1191"/>
      <point x="1102" y="993"/>
      <point x="1102" y="756" type="curve" smooth="yes"/>
      <point x="1102" y="462"/>
      <point x="1048" y="278"/>
      <point x="952" y="155" type="curve" smooth="yes"/>
      <point x="848" y="22"/>
      <point x="691" y="-39"/>
    </contour>
    <contour>
      <point x="589" y="741" type="curve" smooth="yes"/>
      <point x="653" y="741"/>
      <point x="702" y="764"/>
      <point x="736" y="811" type="curve" smooth="yes" name="hr01"/>
      <point x="769" y="858"/>
      <point x="786" y="924"/>
      <point x="786" y="1011" type="curve" smooth="yes"/>
      <point x="786" y="1103"/>
      <point x="767" y="1170"/>
      <point x="736" y="1213" type="curve" smooth="yes"/>
      <point x="701" y="1260"/>
      <point x="652" y="1282"/>
      <point x="589" y="1282" type="curve" smooth="yes"/>
      <point x="521" y="1282"/>
      <point x="475" y="1256"/>
      <point x="443" y="1213" type="curve" smooth="yes"/>
      <point x="408" y="1166"/>
      <point x="391" y="1099"/>
      <point x="391" y="1012" type="curve" smooth="yes"/>
      <point x="391" y="925"/>
      <point x="408" y="858"/>
      <point x="443" y="811" type="curve" smooth="yes"/>
      <point x="478" y="764"/>
      <point x="524" y="741"/>
    </contour>
  </outline>
</glyph>
<glyph name="B" format="1">
  <advance width="1233"/>
  <unicode hex="0042"/>
  <outline>
    <contour>
      <point x="125" y="1495" type="line" name="dh01"/>
      <point x="606" y="1495" type="line" smooth="yes"/>
      <point x="773" y="1495"/>
      <point x="898" y="1464" name="dh04"/>
      <point x="981" y="1401" type="curve" smooth="yes"/>
      <point x="1064" y="1338" name="ih01"/>
      <point x="1106" y="1243"/>
      <point x="1106" y="1118" type="curve" smooth="yes" name="sh01"/>
      <point x="1106" y="1023"/>
      <point x="1081" y="948" name="ab01"/>
      <point x="1032" y="893" type="curve" smooth="yes"/>
      <point x="983" y="840" name="dv02"/>
      <point x="911" y="808"/>
      <point x="815" y="799" type="curve" name="dh03"/>
      <point x="932" y="788"/>
      <point x="1017" y="748" name="sv01"/>
      <point x="1073" y="684" type="curve" smooth="yes" name="dh02"/>
      <point x="1130" y="619"/>
      <point x="1159" y="527" name="sv02"/>
      <point x="1159" y="409" type="curve" smooth="yes"/>
      <point x="1159" y="266" name="ih02"/>
      <point x="1116" y="162"/>
      <point x="1029" y="97" type="curve" smooth="yes" name="dv01"/>
      <point x="942" y="32" name="sh02"/>
      <point x="801" y="0"/>
      <point x="606" y="0" type="curve" smooth="yes"/>
      <point x="125" y="0" type="line" name="sh03"/>
    </contour>
    <contour>
      <point x="606" y="913" type="line" smooth="yes" name="hr01"/>
      <point x="686" y="913"/>
      <point x="734" y="926"/>
      <point x="766" y="954" type="curve" smooth="yes"/>
      <point x="797" y="981"/>
      <point x="813" y="1018"/>
      <point x="813" y="1085" type="curve" smooth="yes"/>
      <point x="813" y="1144"/>
      <point x="800" y="1187"/>
      <point x="765" y="1218" type="curve" smooth="yes"/>
      <point x="737" y="1242"/>
      <point x="693" y="1260"/>
      <point x="606" y="1260" type="curve" smooth="yes"/>
      <point x="410" y="1260" type="line"/>
      <point x="410" y="913" type="line" name="hr02"/>
    </contour>
    <contour>
      <point x="606" y="236" type="line" smooth="yes"/>
      <point x="700" y="236"/>
      <point x="766" y="252"/>
      <point x="804" y="284" type="curve" smooth="yes"/>
      <point x="841" y="316"/>
      <point x="860" y="372"/>
      <point x="860" y="451" type="curve" smooth="yes"/>
      <point x="860" y="532"/>
      <point x="840" y="590"/>
      <point x="801" y="625" type="curve" smooth="yes" name="hr03"/>
      <point x="762" y="660"/>
      <point x="697" y="678"/>
      <point x="606" y="678" type="curve" smooth="yes"/>
      <point x="410" y="678" type="line"/>
      <point x="410" y="236" type="line"/>
    </contour>
  </outline>
</glyph>
<glyph name="C" format="1">
  <advance width="1233"/>
  <unicode hex="0043"/>
  <outline>
    <contour>
      <point x="759" y="-29" type="curve" smooth="yes" name="dv01"/>
      <point x="560" y="-29"/>
      <point x="407" y="37" name="dh01"/>
      <point x="300" y="170" type="curve" smooth="yes"/>
      <point x="194" y="303" name="at01"/>
      <point x="141" y="494"/>
      <point x="141" y="745" type="curve" smooth="yes"/>
      <point x="141" y="996"/>
      <point x="194" y="1188"/>
      <point x="300" y="1321" type="curve" smooth="yes" name="sv01"/>
      <point x="407" y="1454"/>
      <point x="560" y="1520" name="dh02"/>
      <point x="759" y="1520" type="curve" smooth="yes"/>
      <point x="819" y="1520" name="dv02"/>
      <point x="872" y="1514"/>
      <point x="924" y="1502" type="curve" smooth="yes"/>
      <point x="977" y="1490"/>
      <point x="1025" y="1472"/>
      <point x="1070" y="1448" type="curve"/>
      <point x="1070" y="1120" type="line"/>
      <point x="1010" y="1176"/>
      <point x="965" y="1204"/>
      <point x="922" y="1223" type="curve" smooth="yes"/>
      <point x="871" y="1246"/>
      <point x="823" y="1255"/>
      <point x="774" y="1255" type="curve" smooth="yes"/>
      <point x="667" y="1255"/>
      <point x="586" y="1212"/>
      <point x="531" y="1127" type="curve" smooth="yes"/>
      <point x="476" y="1040"/>
      <point x="448" y="913"/>
      <point x="448" y="745" type="curve" smooth="yes"/>
      <point x="448" y="577"/>
      <point x="476" y="450"/>
      <point x="531" y="365" type="curve" smooth="yes"/>
      <point x="586" y="279"/>
      <point x="667" y="236"/>
      <point x="774" y="236" type="curve" smooth="yes"/>
      <point x="825" y="236"/>
      <point x="875" y="247"/>
      <point x="923" y="269" type="curve" smooth="yes"/>
      <point x="970" y="290"/>
      <point x="1013" y="319"/>
      <point x="1070" y="371" type="curve"/>
      <point x="1070" y="43" type="line"/>
      <point x="1023" y="19"/>
      <point x="974" y="1"/>
      <point x="923" y="-11" type="curve" smooth="yes"/>
      <point x="872" y="-23"/>
      <point x="819" y="-29"/>
    </contour>
  </outline>
</glyph>
<glyph name="D" format="1">
  <advance width="1233"/>
  <unicode hex="0044"/>
  <outline>
    <contour>
      <point x="137" y="1493" type="line" name="sh01"/>
      <point x="453" y="1493" type="line" smooth="yes"/>
      <point x="697" y="1493"/>
      <point x="873" y="1435" name="sh02"/>
      <point x="980" y="1319" type="curve" smooth="yes"/>
      <point x="1085" y="1204" name="ab01"/>
      <point x="1141" y="1018"/>
      <point x="1141" y="747" type="curve" smooth="yes" name="sv01"/>
      <point x="1141" y="484"/>
      <point x="1087" y="293" name="ah02"/>
      <point x="980" y="176" type="curve" smooth="yes"/>
      <point x="873" y="59" name="sv02"/>
      <point x="697" y="0" name="sh03"/>
      <point x="453" y="0" type="curve" smooth="yes"/>
      <point x="137" y="0" type="line" name="ah01"/>
    </contour>
    <contour>
      <point x="512" y="266" type="line" smooth="yes" name="sh04"/>
      <point x="628" y="266"/>
      <point x="711" y="303"/>
      <point x="760" y="376" type="curve" smooth="yes"/>
      <point x="809" y="449"/>
      <point x="834" y="573"/>
      <point x="834" y="748" type="curve" smooth="yes"/>
      <point x="834" y="921"/>
      <point x="809" y="1045"/>
      <point x="760" y="1118" type="curve" smooth="yes"/>
      <point x="711" y="1191"/>
      <point x="629" y="1227"/>
      <point x="512" y="1227" type="curve" smooth="yes"/>
      <point x="432" y="1227" type="line"/>
      <point x="432" y="266" type="line"/>
    </contour>
  </outline>
</glyph>
<glyph name="F" format="1">
  <advance width="1233"/>
  <unicode hex="0046"/>
  <outline>
    <contour>
      <point x="182" y="1493" type="line" name="dh01"/>
      <point x="1112" y="1493" type="line"/>
      <point x="1112" y="1233" type="line" name="sv01"/>
      <point x="477" y="1233" type="line" name="dh02"/>
      <point x="477" y="901" type="line"/>
      <point x="1055" y="901" type="line" name="dv02"/>
      <point x="1055" y="641" type="line" name="dv01"/>
      <point x="477" y="641" type="line" name="sh01"/>
      <point x="477" y="0" type="line" name="ab01"/>
      <point x="182" y="0" type="line"/>
    </contour>
  </outline>
</glyph>
<glyph name="O" format="1">
  <advance width="1233"/>
  <unicode hex="004F"/>
  <outline>
    <contour>
      <point x="616" y="-29" type="curve" smooth="yes" name="dv01"/>
      <point x="436" y="-29"/>
      <point x="309" y="41" name="sh01"/>
      <point x="225" y="166" type="curve" smooth="yes"/>
      <point x="136" y="297" name="at01"/>
      <point x="92" y="490"/>
      <point x="92" y="745" type="curve" smooth="yes" name="sh02"/>
      <point x="92" y="1000"/>
      <point x="136" y="1192"/>
      <point x="225" y="1325" type="curve" smooth="yes" name="dv02"/>
      <point x="317" y="1461"/>
      <point x="453" y="1520" name="ah02"/>
      <point x="616" y="1520" type="curve" smooth="yes"/>
      <point x="791" y="1520" name="sv01"/>
      <point x="921" y="1453"/>
      <point x="1009" y="1324" type="curve" smooth="yes" name="sh03"/>
      <point x="1097" y="1193"/>
      <point x="1141" y="1000"/>
      <point x="1141" y="745" type="curve" smooth="yes" name="ah01"/>
      <point x="1141" y="490" name="sh04"/>
      <point x="1097" y="298"/>
      <point x="1009" y="167" type="curve" smooth="yes"/>
      <point x="924" y="40"/>
      <point x="795" y="-29"/>
    </contour>
    <contour>
      <point x="616" y="236" type="curve" smooth="yes"/>
      <point x="692" y="236"/>
      <point x="747" y="276"/>
      <point x="782" y="357" type="curve" smooth="yes"/>
      <point x="817" y="436"/>
      <point x="834" y="566"/>
      <point x="834" y="746" type="curve" smooth="yes"/>
      <point x="834" y="925"/>
      <point x="817" y="1055"/>
      <point x="782" y="1134" type="curve" smooth="yes"/>
      <point x="747" y="1215"/>
      <point x="692" y="1255"/>
      <point x="616" y="1255" type="curve" smooth="yes"/>
      <point x="537" y="1255"/>
      <point x="486" y="1214"/>
      <point x="451" y="1134" type="curve" smooth="yes"/>
      <point x="416" y="1055"/>
      <point x="399" y="925"/>
      <point x="399" y="746" type="curve" smooth="yes"/>
      <point x="399" y="566"/>
      <point x="416" y="436"/>
      <point x="451" y="357" type="curve" smooth="yes"/>
      <point x="486" y="276"/>
      <point x="541" y="236"/>
    </contour>
  </outline>
</glyph>
<glyph name="P" format="1">
  <advance width="1233"/>
  <unicode hex="0050"/>
  <outline>
    <contour>
      <point x="166" y="1493" type="line" name="sh01"/>
      <point x="571" y="1493" type="line" smooth="yes"/>
      <point x="776" y="1493"/>
      <point x="925" y="1456" name="sh02"/>
      <point x="1016" y="1383" type="curve" smooth="yes"/>
      <point x="1106" y="1310" name="dv01"/>
      <point x="1151" y="1191" name="sh04"/>
      <point x="1151" y="1026" type="curve" smooth="yes" name="ab01"/>
      <point x="1151" y="861"/>
      <point x="1106" y="742" name="dv02"/>
      <point x="1016" y="669" type="curve" smooth="yes"/>
      <point x="925" y="596" name="ah02"/>
      <point x="776" y="559"/>
      <point x="571" y="559" type="curve" smooth="yes" name="sv01"/>
      <point x="461" y="559" type="line" name="sh03"/>
      <point x="461" y="0" type="line"/>
      <point x="166" y="0" type="line" name="ah01"/>
    </contour>
    <contour>
      <point x="582" y="807" type="line" smooth="yes" name="sh05"/>
      <point x="679" y="807"/>
      <point x="747" y="823"/>
      <point x="786" y="856" type="curve" smooth="yes"/>
      <point x="825" y="889"/>
      <point x="844" y="945"/>
      <point x="844" y="1026" type="curve" smooth="yes"/>
      <point x="844" y="1107"/>
      <point x="825" y="1163"/>
      <point x="786" y="1196" type="curve" smooth="yes"/>
      <point x="747" y="1229"/>
      <point x="679" y="1245"/>
      <point x="582" y="1245" type="curve" smooth="yes"/>
      <point x="461" y="1245" type="line"/>
      <point x="461" y="807" type="line"/>
    </contour>
  </outline>
</glyph>
<glyph name="Q" format="1">
  <advance width="1233"/>
  <unicode hex="0051"/>
  <outline>
    <contour>
      <point x="656" y="-23" type="line" name="hr00"/>
      <point x="633" y="-28" type="line" smooth="yes"/>
      <point x="626" y="-29" name="dv01"/>
      <point x="625" y="-29"/>
      <point x="622" y="-29" type="curve" smooth="yes" name="sh01"/>
      <point x="439" y="-29"/>
      <point x="312" y="40" name="at01"/>
      <point x="225" y="167" type="curve" smooth="yes"/>
      <point x="136" y="298" name="sh02"/>
      <point x="92" y="490"/>
      <point x="92" y="744" type="curve" smooth="yes"/>
      <point x="92" y="1000" name="av01"/>
      <point x="136" y="1192" name="sh03"/>
      <point x="225" y="1325" type="curve" smooth="yes" name="dv02"/>
      <point x="318" y="1462"/>
      <point x="453" y="1520" name="ah02"/>
      <point x="616" y="1520" type="curve" smooth="yes"/>
      <point x="791" y="1520" name="sv01"/>
      <point x="921" y="1453"/>
      <point x="1009" y="1324" type="curve" smooth="yes" name="sh04"/>
      <point x="1097" y="1193"/>
      <point x="1141" y="1000"/>
      <point x="1141" y="745" type="curve" smooth="yes" name="ah01"/>
      <point x="1141" y="570" name="sh05"/>
      <point x="1120" y="423"/>
      <point x="1078" y="305" type="curve" smooth="yes"/>
      <point x="1036" y="187"/>
      <point x="975" y="102"/>
      <point x="895" y="51" type="curve"/>
      <point x="1181" y="-281" type="line"/>
      <point x="839" y="-281" type="line"/>
    </contour>
    <contour>
      <point x="616" y="236" type="curve" smooth="yes"/>
      <point x="692" y="236"/>
      <point x="747" y="276"/>
      <point x="782" y="357" type="curve" smooth="yes"/>
      <point x="817" y="436"/>
      <point x="834" y="566"/>
      <point x="834" y="746" type="curve" smooth="yes"/>
      <point x="834" y="925"/>
      <point x="817" y="1055"/>
      <point x="782" y="1134" type="curve" smooth="yes"/>
      <point x="747" y="1215"/>
      <point x="692" y="1255"/>
      <point x="616" y="1255" type="curve" smooth="yes"/>
      <point x="537" y="1255"/>
      <point x="486" y="1214"/>
      <point x="451" y="1134" type="curve" smooth="yes"/>
      <point x="416" y="1055"/>
      <point x="399" y="925"/>
      <point x="399" y="746" type="curve" smooth="yes"/>
      <point x="399" y="566"/>
      <point x="416" y="436"/>
      <point x="451" y="357" type="curve" smooth="yes"/>
      <point x="486" y="276"/>
      <point x="541" y="236"/>
    </contour>
  </outline>
</glyph>
<glyph name="R" format="1">
  <advance width="1233"/>
  <unicode hex="0052"/>
  <outline>
    <contour>
      <point x="133" y="1493" type="line" name="sh01"/>
      <point x="559" y="1493" type="line" smooth="yes"/>
      <point x="751" y="1493"/>
      <point x="889" y="1459" name="sh02"/>
      <point x="973" y="1391" type="curve" smooth="yes"/>
      <point x="1057" y="1323" name="sh03"/>
      <point x="1098" y="1209"/>
      <point x="1098" y="1064" type="curve" smooth="yes"/>
      <point x="1098" y="952" name="ab01"/>
      <point x="1074" y="875"/>
      <point x="1023" y="814" type="curve" smooth="yes"/>
      <point x="975" y="755"/>
      <point x="907" y="718" name="dv01"/>
      <point x="807" y="705" type="curve" name="sh05"/>
      <point x="838" y="698" name="ab02"/>
      <point x="865" y="683"/>
      <point x="884" y="664" type="curve" smooth="yes" name="dv02"/>
      <point x="904" y="644"/>
      <point x="930" y="604" name="ah02"/>
      <point x="963" y="537" type="curve" smooth="yes"/>
      <point x="1233" y="0" type="line" name="sv01"/>
      <point x="909" y="0" type="line" name="sh04"/>
      <point x="729" y="377" type="line"/>
      <point x="708" y="421" type="line" smooth="yes" name="ah01"/>
      <point x="652" y="536" name="sh06"/>
      <point x="597" y="590"/>
      <point x="522" y="590" type="curve" smooth="yes"/>
      <point x="428" y="590" type="line"/>
      <point x="428" y="0" type="line"/>
      <point x="133" y="0" type="line"/>
    </contour>
    <contour>
      <point x="567" y="838" type="line" smooth="yes"/>
      <point x="648" y="838"/>
      <point x="706" y="854"/>
      <point x="741" y="886" type="curve" smooth="yes"/>
      <point x="773" y="915"/>
      <point x="793" y="962"/>
      <point x="793" y="1042" type="curve" smooth="yes"/>
      <point x="793" y="1115"/>
      <point x="776" y="1167"/>
      <point x="741" y="1198" type="curve" smooth="yes"/>
      <point x="706" y="1229"/>
      <point x="648" y="1245"/>
      <point x="567" y="1245" type="curve" smooth="yes"/>
      <point x="428" y="1245" type="line"/>
      <point x="428" y="838" type="line"/>
    </contour>
  </outline>
</glyph>
<glyph name="S" format="1">
  <advance width="1233"/>
  <unicode hex="0053"/>
  <outline>
    <contour>
      <point x="582" y="-29" type="curve" smooth="yes" name="hr00"/>
      <point x="755" y="-29"/>
      <point x="886" y="8" name="sh05"/>
      <point x="976" y="83" type="curve" smooth="yes"/>
      <point x="1065" y="157"/>
      <point x="1110" y="268"/>
      <point x="1110" y="415" type="curve" smooth="yes"/>
      <point x="1110" y="530" name="sh03"/>
      <point x="1082" y="623"/>
      <point x="1025" y="696" type="curve" smooth="yes" name="sv01"/>
      <point x="969" y="767"/>
      <point x="881" y="825" name="ih02"/>
      <point x="760" y="870" type="curve" smooth="yes"/>
      <point x="633" y="918" type="line" smooth="yes" name="sh04"/>
      <point x="534" y="955" name="at01"/>
      <point x="487" y="981"/>
      <point x="460" y="1008" type="curve" smooth="yes" name="sh01"/>
      <point x="432" y="1035"/>
      <point x="418" y="1069"/>
      <point x="418" y="1111" type="curve" smooth="yes"/>
      <point x="418" y="1163"/>
      <point x="437" y="1204" name="ah02"/>
      <point x="475" y="1233" type="curve" smooth="yes"/>
      <point x="512" y="1262" name="dv02"/>
      <point x="567" y="1276"/>
      <point x="638" y="1276" type="curve" smooth="yes" name="ih01"/>
      <point x="702" y="1276" name="sh02"/>
      <point x="767" y="1264"/>
      <point x="833" y="1241" type="curve" smooth="yes" name="dv01"/>
      <point x="899" y="1218" name="ah01"/>
      <point x="963" y="1184" name="sh06"/>
      <point x="1026" y="1139" type="curve"/>
      <point x="1026" y="1427" type="line"/>
      <point x="957" y="1459"/>
      <point x="885" y="1482"/>
      <point x="822" y="1497" type="curve" smooth="yes"/>
      <point x="759" y="1512"/>
      <point x="687" y="1520"/>
      <point x="615" y="1520" type="curve" smooth="yes"/>
      <point x="465" y="1520"/>
      <point x="346" y="1481"/>
      <point x="259" y="1404" type="curve" smooth="yes"/>
      <point x="172" y="1327"/>
      <point x="129" y="1221"/>
      <point x="129" y="1085" type="curve" smooth="yes"/>
      <point x="129" y="979"/>
      <point x="155" y="895"/>
      <point x="208" y="834" type="curve" smooth="yes"/>
      <point x="260" y="773"/>
      <point x="357" y="714"/>
      <point x="510" y="655" type="curve" smooth="yes"/>
      <point x="655" y="600" type="line" smooth="yes"/>
      <point x="703" y="581"/>
      <point x="743" y="556"/>
      <point x="771" y="521" type="curve" smooth="yes"/>
      <point x="798" y="488"/>
      <point x="811" y="448"/>
      <point x="811" y="403" type="curve" smooth="yes"/>
      <point x="811" y="344"/>
      <point x="791" y="298"/>
      <point x="751" y="265" type="curve" smooth="yes"/>
      <point x="711" y="232"/>
      <point x="656" y="215"/>
      <point x="580" y="215" type="curve" smooth="yes"/>
      <point x="510" y="215"/>
      <point x="438" y="229"/>
      <point x="364" y="256" type="curve" smooth="yes"/>
      <point x="288" y="284"/>
      <point x="218" y="322"/>
      <point x="135" y="381" type="curve"/>
      <point x="135" y="76" type="line"/>
      <point x="203" y="41"/>
      <point x="275" y="15"/>
      <point x="351" y="-3" type="curve" smooth="yes"/>
      <point x="427" y="-22"/>
      <point x="502" y="-29"/>
    </contour>
  </outline>
</glyph>
<glyph name="g" format="1">
  <advance width="1233"/>
  <unicode hex="0067"/>
  <outline>
    <contour>
      <point x="578" y="-424" type="curve" smooth="yes"/>
      <point x="761" y="-424"/>
      <point x="894" y="-384" name="sh06"/>
      <point x="975" y="-305" type="curve" smooth="yes"/>
      <point x="1056" y="-225" name="at01"/>
      <point x="1096" y="-95" name="sh05"/>
      <point x="1096" y="84" type="curve" smooth="yes"/>
      <point x="1096" y="1120" type="line" name="dv02"/>
      <point x="832" y="1120" type="line"/>
      <point x="803" y="977" type="line" name="sh01"/>
      <point x="774" y="1032"/>
      <point x="735" y="1074" name="dv03"/>
      <point x="685" y="1104" type="curve" smooth="yes"/>
      <point x="635" y="1134" name="iv01"/>
      <point x="577" y="1149" name="ah02"/>
      <point x="512" y="1149" type="curve" smooth="yes" name="hr01"/>
      <point x="387" y="1149" name="sv01"/>
      <point x="287" y="1097" name="sh04"/>
      <point x="211" y="993" type="curve" name="ih01"/>
      <point x="136" y="888"/>
      <point x="98" y="748" name="sh03"/>
      <point x="98" y="573" type="curve" smooth="yes" name="ab01"/>
      <point x="98" y="398"/>
      <point x="135" y="264"/>
      <point x="211" y="164" type="curve" smooth="yes" name="sh02"/>
      <point x="286" y="64"/>
      <point x="388" y="14" name="dv01"/>
      <point x="517" y="14" type="curve" smooth="yes"/>
      <point x="584" y="14" name="sh07"/>
      <point x="642" y="27"/>
      <point x="689" y="53" type="curve" smooth="yes" name="dv04"/>
      <point x="736" y="79" name="ah01"/>
      <point x="774" y="119" name="sh08"/>
      <point x="803" y="172" type="curve"/>
      <point x="803" y="51" type="line" smooth="yes"/>
      <point x="803" y="-32"/>
      <point x="783" y="-93"/>
      <point x="744" y="-132" type="curve" smooth="yes"/>
      <point x="705" y="-171"/>
      <point x="647" y="-190"/>
      <point x="556" y="-190" type="curve" smooth="yes"/>
      <point x="501" y="-190"/>
      <point x="441" y="-183"/>
      <point x="384" y="-168" type="curve" smooth="yes"/>
      <point x="329" y="-153"/>
      <point x="271" y="-131"/>
      <point x="215" y="-100" type="curve"/>
      <point x="215" y="-369" type="line"/>
      <point x="277" y="-388"/>
      <point x="338" y="-402"/>
      <point x="398" y="-411" type="curve" smooth="yes"/>
      <point x="458" y="-420"/>
      <point x="519" y="-424"/>
    </contour>
    <contour>
      <point x="596" y="246" type="curve" smooth="yes"/>
      <point x="535" y="246"/>
      <point x="485" y="276"/>
      <point x="448" y="336" type="curve" smooth="yes"/>
      <point x="410" y="396"/>
      <point x="391" y="477"/>
      <point x="391" y="578" type="curve" smooth="yes"/>
      <point x="391" y="679"/>
      <point x="410" y="759"/>
      <point x="448" y="819" type="curve" smooth="yes"/>
      <point x="485" y="879"/>
      <point x="535" y="909"/>
      <point x="596" y="909" type="curve" smooth="yes"/>
      <point x="658" y="909"/>
      <point x="708" y="879"/>
      <point x="746" y="819" type="curve" smooth="yes"/>
      <point x="785" y="756"/>
      <point x="803" y="676"/>
      <point x="803" y="577" type="curve" smooth="yes"/>
      <point x="803" y="473"/>
      <point x="783" y="397"/>
      <point x="746" y="337" type="curve" smooth="yes"/>
      <point x="708" y="276"/>
      <point x="658" y="246"/>
    </contour>
  </outline>
</glyph>
<glyph name="m" format="1">
  <advance width="1233"/>
  <unicode hex="006D"/>
  <outline>
    <contour>
      <point x="82" y="1120" type="line" name="sh01"/>
      <point x="266" y="1120" type="line"/>
      <point x="295" y="1004" type="line" name="ih01"/>
      <point x="312" y="1049" name="at01"/>
      <point x="339" y="1084" name="sh03"/>
      <point x="375" y="1109" type="curve" smooth="yes" name="at02"/>
      <point x="408" y="1132" name="ih02"/>
      <point x="451" y="1147" name="at03"/>
      <point x="499" y="1147" type="curve" smooth="yes" name="sh05"/>
      <point x="544" y="1147"/>
      <point x="585" y="1134"/>
      <point x="622" y="1107" type="curve" smooth="yes" name="sh06"/>
      <point x="659" y="1080" name="sh04"/>
      <point x="682" y="1047"/>
      <point x="690" y="1008" type="curve"/>
      <point x="712" y="1055" name="sv01"/>
      <point x="740" y="1090"/>
      <point x="774" y="1113" type="curve" smooth="yes"/>
      <point x="807" y="1136" name="sh07"/>
      <point x="850" y="1147" name="sh02"/>
      <point x="902" y="1147" type="curve" smooth="yes"/>
      <point x="999" y="1147"/>
      <point x="1065" y="1111" name="sv02"/>
      <point x="1100" y="1047" type="curve" smooth="yes"/>
      <point x="1139" y="976" name="sh08"/>
      <point x="1155" y="839" name="ab01"/>
      <point x="1155" y="631" type="curve" smooth="yes"/>
      <point x="1155" y="0" type="line" name="ah01"/>
      <point x="915" y="0" type="line" name="sh09"/>
      <point x="915" y="719" type="line" smooth="yes"/>
      <point x="915" y="807"/>
      <point x="909" y="856"/>
      <point x="896" y="885" type="curve" smooth="yes"/>
      <point x="883" y="914"/>
      <point x="860" y="928"/>
      <point x="827" y="928" type="curve" smooth="yes"/>
      <point x="788" y="928"/>
      <point x="769" y="911"/>
      <point x="757" y="884" type="curve" smooth="yes"/>
      <point x="744" y="856"/>
      <point x="737" y="803"/>
      <point x="737" y="719" type="curve" smooth="yes"/>
      <point x="737" y="0" type="line"/>
      <point x="500" y="0" type="line"/>
      <point x="500" y="719" type="line" smooth="yes"/>
      <point x="500" y="800"/>
      <point x="493" y="855"/>
      <point x="480" y="885" type="curve" smooth="yes"/>
      <point x="467" y="914"/>
      <point x="444" y="928"/>
      <point x="410" y="928" type="curve" smooth="yes"/>
      <point x="377" y="928"/>
      <point x="354" y="914"/>
      <point x="341" y="886" type="curve" smooth="yes"/>
      <point x="328" y="859"/>
      <point x="322" y="803"/>
      <point x="322" y="719" type="curve" smooth="yes"/>
      <point x="322" y="0" type="line" name="hr01"/>
      <point x="82" y="0" type="line"/>
    </contour>
  </outline>
</glyph>
<glyph name="n" format="1">
  <advance width="1233"/>
  <unicode hex="006E"/>
  <outline>
    <contour>
      <point x="172" y="1120" type="line" name="sh01"/>
      <point x="434" y="1120" type="line"/>
      <point x="463" y="952" type="line" name="sh02"/>
      <point x="484" y="1014"/>
      <point x="520" y="1062" name="at01"/>
      <point x="569" y="1096" type="curve" smooth="yes"/>
      <point x="619" y="1130"/>
      <point x="680" y="1147" name="sh03"/>
      <point x="751" y="1147" type="curve" smooth="yes" name="ah02"/>
      <point x="856" y="1147"/>
      <point x="936" y="1112"/>
      <point x="990" y="1042" type="curve" smooth="yes" name="sv01"/>
      <point x="1044" y="971"/>
      <point x="1071" y="866" name="sh04"/>
      <point x="1071" y="727" type="curve" smooth="yes" name="ab01"/>
      <point x="1071" y="0" type="line"/>
      <point x="780" y="0" type="line" name="ah01"/>
      <point x="780" y="682" type="line" smooth="yes" name="sh05"/>
      <point x="780" y="764"/>
      <point x="769" y="822"/>
      <point x="746" y="857" type="curve" smooth="yes"/>
      <point x="723" y="892"/>
      <point x="684" y="909"/>
      <point x="636" y="909" type="curve" smooth="yes"/>
      <point x="579" y="909"/>
      <point x="540" y="885"/>
      <point x="509" y="838" type="curve" smooth="yes"/>
      <point x="480" y="793"/>
      <point x="463" y="733"/>
      <point x="463" y="641" type="curve" smooth="yes"/>
      <point x="463" y="0" type="line" name="hr01"/>
      <point x="172" y="0" type="line"/>
    </contour>
  </outline>
</glyph>
<glyph name="o" format="1">
  <advance width="1233"/>
  <unicode hex="006F"/>
  <outline>
    <contour>
      <point x="617" y="-29" type="curve" smooth="yes" name="dv01"/>
      <point x="446" y="-29"/>
      <point x="322" y="34" name="sh01"/>
      <point x="238" y="129" type="curve" smooth="yes"/>
      <point x="145" y="234" name="at01"/>
      <point x="98" y="384"/>
      <point x="98" y="560" type="curve" smooth="yes" name="sh02"/>
      <point x="98" y="739"/>
      <point x="146" y="885"/>
      <point x="238" y="989" type="curve" smooth="yes" name="dv02"/>
      <point x="330" y="1093"/>
      <point x="459" y="1147" name="ah02"/>
      <point x="616" y="1147" type="curve" smooth="yes"/>
      <point x="780" y="1147" name="sv01"/>
      <point x="907" y="1089"/>
      <point x="995" y="990" type="curve" smooth="yes" name="sh03"/>
      <point x="1083" y="891"/>
      <point x="1135" y="748"/>
      <point x="1135" y="559" type="curve" smooth="yes" name="ah01"/>
      <point x="1135" y="380" name="sh04"/>
      <point x="1088" y="235"/>
      <point x="996" y="130" type="curve" smooth="yes"/>
      <point x="908" y="30"/>
      <point x="780" y="-29"/>
    </contour>
    <contour>
      <point x="616" y="209" type="curve" smooth="yes"/>
      <point x="687" y="209"/>
      <point x="742" y="240"/>
      <point x="782" y="301" type="curve" smooth="yes"/>
      <point x="822" y="363"/>
      <point x="842" y="449"/>
      <point x="842" y="560" type="curve" smooth="yes"/>
      <point x="842" y="669"/>
      <point x="822" y="755"/>
      <point x="782" y="817" type="curve" smooth="yes"/>
      <point x="741" y="881"/>
      <point x="684" y="909"/>
      <point x="616" y="909" type="curve" smooth="yes"/>
      <point x="541" y="909"/>
      <point x="488" y="874"/>
      <point x="451" y="817" type="curve" smooth="yes"/>
      <point x="411" y="755"/>
      <point x="391" y="669"/>
      <point x="391" y="560" type="curve" smooth="yes"/>
      <point x="391" y="449"/>
      <point x="411" y="363"/>
      <point x="451" y="301" type="curve" smooth="yes"/>
      <point x="491" y="240"/>
      <point x="546" y="209"/>
    </contour>
  </outline>
</glyph>
<glyph name="p" format="1">
  <advance width="1233"/>
  <unicode hex="0070"/>
  <outline>
    <contour>
      <point x="150" y="1120" type="line" name="sh01"/>
      <point x="413" y="1120" type="line"/>
      <point x="442" y="952" type="line" name="sh02"/>
      <point x="473" y="1017"/>
      <point x="513" y="1065" name="at01"/>
      <point x="563" y="1098" type="curve" smooth="yes"/>
      <point x="612" y="1131" name="sh03"/>
      <point x="671" y="1147"/>
      <point x="740" y="1147" type="curve" smooth="yes" name="dv01"/>
      <point x="865" y="1147"/>
      <point x="965" y="1097" name="sh04"/>
      <point x="1037" y="994" type="curve" smooth="yes" name="ab01"/>
      <point x="1109" y="890"/>
      <point x="1143" y="741" name="dv02"/>
      <point x="1143" y="558" type="curve" smooth="yes"/>
      <point x="1143" y="363" name="ah02"/>
      <point x="1104" y="219"/>
      <point x="1036" y="123" type="curve" smooth="yes" name="sv01"/>
      <point x="963" y="19"/>
      <point x="856" y="-29" name="sh05"/>
      <point x="735" y="-29" type="curve" smooth="yes"/>
      <point x="672" y="-29"/>
      <point x="618" y="-17" name="ah01"/>
      <point x="567" y="18" type="curve" smooth="yes" name="sh06"/>
      <point x="524" y="46"/>
      <point x="477" y="94"/>
      <point x="442" y="158" type="curve"/>
      <point x="442" y="-426" type="line"/>
      <point x="150" y="-426" type="line"/>
    </contour>
    <contour>
      <point x="647" y="215" type="curve" smooth="yes"/>
      <point x="710" y="215"/>
      <point x="760" y="246"/>
      <point x="796" y="307" type="curve" smooth="yes"/>
      <point x="832" y="368"/>
      <point x="850" y="452"/>
      <point x="850" y="561" type="curve" smooth="yes"/>
      <point x="850" y="669"/>
      <point x="832" y="754"/>
      <point x="796" y="815" type="curve" smooth="yes"/>
      <point x="760" y="876"/>
      <point x="710" y="907"/>
      <point x="647" y="907" type="curve" smooth="yes"/>
      <point x="584" y="907"/>
      <point x="534" y="876"/>
      <point x="497" y="815" type="curve" smooth="yes"/>
      <point x="460" y="754"/>
      <point x="442" y="670"/>
      <point x="442" y="561" type="curve" smooth="yes"/>
      <point x="442" y="452"/>
      <point x="460" y="368"/>
      <point x="497" y="307" type="curve" smooth="yes" name="hr01"/>
      <point x="534" y="246"/>
      <point x="584" y="215"/>
    </contour>
  </outline>
</glyph>
<glyph name="u" format="1">
  <advance width="1233"/>
  <unicode hex="0075"/>
  <outline>
    <contour>
      <point x="481" y="-29" type="curve" smooth="yes" name="dv01"/>
      <point x="381" y="-29"/>
      <point x="299" y="2" name="sh01"/>
      <point x="242" y="77" type="curve" smooth="yes" name="at01"/>
      <point x="187" y="148"/>
      <point x="160" y="252" name="sh02"/>
      <point x="160" y="391" type="curve" smooth="yes"/>
      <point x="160" y="1120" type="line" name="dv02"/>
      <point x="453" y="1120" type="line"/>
      <point x="453" y="436" type="line" smooth="yes" name="sh03"/>
      <point x="453" y="355" name="at02"/>
      <point x="464" y="298"/>
      <point x="487" y="263" type="curve" smooth="yes" name="sh04"/>
      <point x="510" y="228"/>
      <point x="549" y="211" name="ah02"/>
      <point x="598" y="211" type="curve" smooth="yes"/>
      <point x="649" y="211"/>
      <point x="692" y="230" name="ah01"/>
      <point x="724" y="281" type="curve" smooth="yes" name="sh05"/>
      <point x="753" y="328"/>
      <point x="768" y="394"/>
      <point x="768" y="477" type="curve" smooth="yes" name="hr02"/>
      <point x="768" y="1120" type="line"/>
      <point x="1061" y="1120" type="line"/>
      <point x="1061" y="0" type="line"/>
      <point x="797" y="0" type="line"/>
      <point x="768" y="166" type="line"/>
      <point x="747" y="104"/>
      <point x="712" y="56"/>
      <point x="663" y="22" type="curve" smooth="yes"/>
      <point x="613" y="-12"/>
      <point x="552" y="-29"/>
    </contour>
  </outline>
</glyph>
<glyph name="braceleft" format="1">
  <advance width="1233"/>
  <unicode hex="007B"/>
  <outline>
    <contour>
      <point x="853" y="-334" type="line" smooth="yes" name="dv01"/>
      <point x="688" y="-334"/>
      <point x="577" y="-309" name="dh01"/>
      <point x="520" y="-260" type="curve" smooth="yes"/>
      <point x="463" y="-211"/>
      <point x="435" y="-113" name="dv03"/>
      <point x="435" y="35" type="curve" smooth="yes"/>
      <point x="435" y="250" type="line" smooth="yes"/>
      <point x="435" y="343" name="dv04"/>
      <point x="419" y="419"/>
      <point x="382" y="459" type="curve" smooth="yes" name="sh01"/>
      <point x="346" y="498"/>
      <point x="277" y="516"/>
      <point x="188" y="516" type="curve" smooth="yes" name="at01"/>
      <point x="96" y="516" type="line"/>
      <point x="96" y="707" type="line" name="sv01"/>
      <point x="188" y="707" type="line" smooth="yes"/>
      <point x="281" y="707"/>
      <point x="346" y="726" name="sh02"/>
      <point x="382" y="764" type="curve"/>
      <point x="417" y="803"/>
      <point x="435" y="872" name="ih01"/>
      <point x="435" y="973" type="curve" smooth="yes"/>
      <point x="435" y="1188" type="line" smooth="yes"/>
      <point x="435" y="1336" name="dh02"/>
      <point x="463" y="1434"/>
      <point x="520" y="1483" type="curve" smooth="yes" name="dv02"/>
      <point x="575" y="1532"/>
      <point x="686" y="1556" name="sv02"/>
      <point x="853" y="1556" type="curve" smooth="yes"/>
      <point x="1003" y="1556" type="line"/>
      <point x="1003" y="1366" type="line"/>
      <point x="880" y="1366" type="line" smooth="yes"/>
      <point x="810" y="1366"/>
      <point x="764" y="1352"/>
      <point x="741" y="1324" type="curve" smooth="yes"/>
      <point x="718" y="1295"/>
      <point x="706" y="1234"/>
      <point x="706" y="1139" type="curve" smooth="yes"/>
      <point x="706" y="930" type="line" smooth="yes"/>
      <point x="706" y="820"/>
      <point x="690" y="743"/>
      <point x="657" y="698" type="curve" smooth="yes"/>
      <point x="624" y="654"/>
      <point x="566" y="625"/>
      <point x="482" y="612" type="curve"/>
      <point x="565" y="598"/>
      <point x="624" y="568"/>
      <point x="657" y="523" type="curve" smooth="yes"/>
      <point x="690" y="478"/>
      <point x="706" y="401"/>
      <point x="706" y="291" type="curve" smooth="yes"/>
      <point x="706" y="86" type="line" smooth="yes"/>
      <point x="706" y="-9"/>
      <point x="718" y="-72"/>
      <point x="741" y="-101" type="curve" smooth="yes"/>
      <point x="764" y="-129"/>
      <point x="810" y="-143"/>
      <point x="880" y="-143" type="curve" smooth="yes"/>
      <point x="1003" y="-143" type="line"/>
      <point x="1003" y="-334" type="line"/>
    </contour>
  </outline>
</glyph>
<glyph name="braceright" format="1">
  <advance width="1233"/>
  <unicode hex="007D"/>
  <outline>
    <contour>
      <point x="230" y="-143" type="line" name="hr00"/>
      <point x="351" y="-143" type="line" smooth="yes" name="dv02"/>
      <point x="420" y="-143"/>
      <point x="467" y="-129" name="dh01"/>
      <point x="491" y="-100" type="curve" smooth="yes"/>
      <point x="515" y="-71"/>
      <point x="527" y="-9" name="ih01"/>
      <point x="527" y="86" type="curve" smooth="yes"/>
      <point x="527" y="291" type="line" smooth="yes" name="sh01"/>
      <point x="527" y="401"/>
      <point x="543" y="478"/>
      <point x="576" y="523" type="curve" smooth="yes" name="sv01"/>
      <point x="611" y="570"/>
      <point x="671" y="599" name="at01"/>
      <point x="750" y="612" type="curve"/>
      <point x="665" y="625"/>
      <point x="607" y="654" name="sh02"/>
      <point x="576" y="698" type="curve" smooth="yes"/>
      <point x="543" y="743"/>
      <point x="527" y="820"/>
      <point x="527" y="930" type="curve" smooth="yes" name="dv04"/>
      <point x="527" y="1139" type="line" smooth="yes" name="dv03"/>
      <point x="527" y="1232"/>
      <point x="515" y="1294"/>
      <point x="492" y="1323" type="curve" smooth="yes"/>
      <point x="467" y="1354" name="dh02"/>
      <point x="415" y="1366"/>
      <point x="351" y="1366" type="curve" smooth="yes" name="dv01"/>
      <point x="230" y="1366" type="line"/>
      <point x="230" y="1556" type="line"/>
      <point x="380" y="1556" type="line" smooth="yes"/>
      <point x="546" y="1556"/>
      <point x="657" y="1532"/>
      <point x="712" y="1483" type="curve" smooth="yes"/>
      <point x="767" y="1434"/>
      <point x="795" y="1335"/>
      <point x="795" y="1188" type="curve" smooth="yes"/>
      <point x="795" y="973" type="line" smooth="yes"/>
      <point x="795" y="865"/>
      <point x="815" y="802"/>
      <point x="850" y="765" type="curve" smooth="yes"/>
      <point x="885" y="728"/>
      <point x="945" y="707"/>
      <point x="1045" y="707" type="curve" smooth="yes"/>
      <point x="1137" y="707" type="line"/>
      <point x="1137" y="516" type="line"/>
      <point x="1045" y="516" type="line" smooth="yes"/>
      <point x="951" y="516"/>
      <point x="886" y="497"/>
      <point x="850" y="458" type="curve" smooth="yes"/>
      <point x="813" y="419"/>
      <point x="795" y="350"/>
      <point x="795" y="250" type="curve" smooth="yes"/>
      <point x="795" y="35" type="line" smooth="yes"/>
      <point x="795" y="-112"/>
      <point x="767" y="-211"/>
      <point x="712" y="-260" type="curve" smooth="yes"/>
      <point x="655" y="-309"/>
      <point x="545" y="-334"/>
      <point x="380" y="-334" type="curve" smooth="yes"/>
      <point x="230" y="-334" type="line"/>
    </contour>
  </outline>
</glyph>
<glyph name="asciitilde" format="1">
  <advance width="1233"/>
  <unicode hex="007E"/>
  <outline>
    <contour>
      <point x="924" y="848" type="line"/>
      <point x="921" y="637"/>
      <point x="895" y="539"/>
      <point x="827" y="539" type="curve" smooth="yes"/>
      <point x="812" y="539"/>
      <point x="795" y="548"/>
      <point x="777" y="566" type="curve" smooth="yes"/>
      <point x="748" y="595"/>
      <point x="717" y="632"/>
      <point x="683" y="678" type="curve" smooth="yes"/>
      <point x="684" y="677" type="line" smooth="yes"/>
      <point x="640" y="738"/>
      <point x="590" y="785"/>
      <point x="546" y="812" type="curve" smooth="yes"/>
      <point x="503" y="839"/>
      <point x="454" y="852"/>
      <point x="399" y="852" type="curve" smooth="yes"/>
      <point x="287" y="852"/>
      <point x="200" y="799"/>
      <point x="139" y="692" type="curve"/>
      <point x="96" y="603"/>
      <point x="72" y="474"/>
      <point x="68" y="305" type="curve"/>
      <point x="307" y="305" type="line"/>
      <point x="313" y="438"/>
      <point x="326" y="528"/>
      <point x="345" y="573" type="curve"/>
      <point x="345" y="572" type="line"/>
      <point x="356" y="599"/>
      <point x="375" y="612"/>
      <point x="404" y="612" type="curve" smooth="yes"/>
      <point x="417" y="612"/>
      <point x="431" y="605"/>
      <point x="448" y="594" type="curve"/>
      <point x="467" y="579"/>
      <point x="499" y="540"/>
      <point x="545" y="475" type="curve" smooth="yes"/>
      <point x="594" y="406"/>
      <point x="639" y="360"/>
      <point x="678" y="337" type="curve" smooth="yes"/>
      <point x="721" y="312"/>
      <point x="771" y="299"/>
      <point x="830" y="299" type="curve" smooth="yes" name="hr01"/>
      <point x="953" y="299"/>
      <point x="1042" y="353"/>
      <point x="1095" y="461" type="curve" smooth="yes"/>
      <point x="1094" y="458" type="line" smooth="yes"/>
      <point x="1145" y="546"/>
      <point x="1160" y="671"/>
      <point x="1165" y="848" type="curve"/>
    </contour>
  </outline>
</glyph>
<glyph name="currency" format="1">
  <advance width="1233"/>
  <unicode hex="00A4"/>
  <outline>
    <contour>
      <point x="186" y="305" type="line" name="hr00"/>
      <point x="356" y="475" type="line"/>
      <point x="337" y="511" name="sh02"/>
      <point x="332" y="527" name="sh01"/>
      <point x="323" y="559" type="curve" smooth="yes" name="sh03"/>
      <point x="316" y="586"/>
      <point x="311" y="607"/>
      <point x="311" y="642" type="curve" smooth="yes" name="sh04"/>
      <point x="311" y="677" name="sh06"/>
      <point x="316" y="704"/>
      <point x="323" y="729" type="curve" smooth="yes" name="dv04"/>
      <point x="330" y="752"/>
      <point x="338" y="776" name="sh07"/>
      <point x="358" y="807" type="curve" name="sh09"/>
      <point x="186" y="977" type="line"/>
      <point x="317" y="1108" type="line"/>
      <point x="483" y="936" type="line" name="sh10"/>
      <point x="510" y="952" name="sh08"/>
      <point x="541" y="965" name="sh11"/>
      <point x="566" y="972" type="curve" smooth="yes"/>
      <point x="594" y="979"/>
      <point x="623" y="983" name="sh12"/>
      <point x="652" y="983" type="curve" smooth="yes" name="sh13"/>
      <point x="680" y="983"/>
      <point x="706" y="979" name="dv01"/>
      <point x="733" y="972" type="curve" smooth="yes"/>
      <point x="760" y="965" name="sh14"/>
      <point x="788" y="953" name="sh15"/>
      <point x="819" y="938" type="curve" name="dv02"/>
      <point x="991" y="1108" type="line"/>
      <point x="1118" y="979" type="line" name="ah02"/>
      <point x="948" y="809" type="line"/>
      <point x="963" y="782" name="dv03"/>
      <point x="975" y="754"/>
      <point x="982" y="727" type="curve" smooth="yes" name="sh05"/>
      <point x="989" y="698"/>
      <point x="993" y="669"/>
      <point x="993" y="641" type="curve" smooth="yes" name="ah01"/>
      <point x="993" y="613" name="sh16"/>
      <point x="989" y="579"/>
      <point x="982" y="554" type="curve" smooth="yes"/>
      <point x="975" y="533"/>
      <point x="963" y="502"/>
      <point x="946" y="477" type="curve"/>
      <point x="1118" y="307" type="line"/>
      <point x="987" y="176" type="line"/>
      <point x="817" y="348" type="line"/>
      <point x="788" y="329"/>
      <point x="769" y="321"/>
      <point x="741" y="313" type="curve" smooth="yes"/>
      <point x="716" y="306"/>
      <point x="689" y="301"/>
      <point x="656" y="301" type="curve" smooth="yes"/>
      <point x="625" y="301"/>
      <point x="600" y="305"/>
      <point x="572" y="312" type="curve" smooth="yes"/>
      <point x="544" y="319"/>
      <point x="516" y="329"/>
      <point x="485" y="344" type="curve"/>
      <point x="315" y="176" type="line"/>
    </contour>
    <contour>
      <point x="654" y="467" type="curve" smooth="yes"/>
      <point x="703" y="467"/>
      <point x="744" y="484"/>
      <point x="777" y="518" type="curve" smooth="yes"/>
      <point x="810" y="553"/>
      <point x="827" y="594"/>
      <point x="827" y="642" type="curve" smooth="yes"/>
      <point x="827" y="690"/>
      <point x="809" y="735"/>
      <point x="778" y="766" type="curve" smooth="yes"/>
      <point x="746" y="798"/>
      <point x="700" y="815"/>
      <point x="653" y="815" type="curve" smooth="yes"/>
      <point x="606" y="815"/>
      <point x="563" y="799"/>
      <point x="530" y="767" type="curve" smooth="yes"/>
      <point x="499" y="738"/>
      <point x="479" y="694"/>
      <point x="479" y="643" type="curve" smooth="yes"/>
      <point x="479" y="596"/>
      <point x="496" y="553"/>
      <point x="529" y="518" type="curve" smooth="yes"/>
      <point x="560" y="486"/>
      <point x="603" y="467"/>
    </contour>
  </outline>
</glyph>
<glyph name="section" format="1">
  <advance width="1233"/>
  <unicode hex="00A7"/>
  <outline>
    <contour>
      <point x="602" y="-195" type="curve" smooth="yes" name="dv01"/>
      <point x="550" y="-195"/>
      <point x="484" y="-190"/>
      <point x="429" y="-181" type="curve" smooth="yes" name="ih01"/>
      <point x="374" y="-172"/>
      <point x="313" y="-156" name="dv02"/>
      <point x="258" y="-137" type="curve"/>
      <point x="258" y="92" type="line" name="dh03"/>
      <point x="318" y="71"/>
      <point x="369" y="58"/>
      <point x="424" y="47" type="curve" smooth="yes" name="dh01"/>
      <point x="476" y="36"/>
      <point x="524" y="31" name="ih02"/>
      <point x="571" y="31" type="curve" smooth="yes"/>
      <point x="632" y="31" name="ih03"/>
      <point x="669" y="41"/>
      <point x="696" y="60" type="curve" smooth="yes" name="at01"/>
      <point x="723" y="79"/>
      <point x="737" y="107"/>
      <point x="737" y="134" type="curve" smooth="yes" name="ih04"/>
      <point x="737" y="190"/>
      <point x="677" y="241" name="sv01"/>
      <point x="523" y="326" type="curve" smooth="yes"/>
      <point x="486" y="346" type="line" smooth="yes" name="sh01"/>
      <point x="266" y="466"/>
      <point x="170" y="574"/>
      <point x="170" y="696" type="curve" smooth="yes"/>
      <point x="170" y="747" name="sh02"/>
      <point x="187" y="805"/>
      <point x="222" y="852" type="curve" smooth="yes" name="ih06"/>
      <point x="254" y="895"/>
      <point x="304" y="931" name="dh04"/>
      <point x="371" y="954" type="curve"/>
      <point x="323" y="987"/>
      <point x="289" y="1024"/>
      <point x="268" y="1064" type="curve" smooth="yes"/>
      <point x="247" y="1105" name="ih05"/>
      <point x="236" y="1152"/>
      <point x="236" y="1205" type="curve" smooth="yes"/>
      <point x="236" y="1300"/>
      <point x="271" y="1377" name="dh02"/>
      <point x="340" y="1434" type="curve" smooth="yes" name="hr02"/>
      <point x="409" y="1491"/>
      <point x="502" y="1520"/>
      <point x="617" y="1520" type="curve" smooth="yes" name="sh03"/>
      <point x="665" y="1520"/>
      <point x="716" y="1515"/>
      <point x="769" y="1505" type="curve" smooth="yes"/>
      <point x="826" y="1494"/>
      <point x="877" y="1479"/>
      <point x="930" y="1460" type="curve"/>
      <point x="930" y="1235" type="line"/>
      <point x="873" y="1255"/>
      <point x="822" y="1270"/>
      <point x="779" y="1280" type="curve" smooth="yes"/>
      <point x="738" y="1289"/>
      <point x="692" y="1294"/>
      <point x="657" y="1294" type="curve" smooth="yes"/>
      <point x="608" y="1294"/>
      <point x="570" y="1284"/>
      <point x="541" y="1265" type="curve" smooth="yes"/>
      <point x="510" y="1244"/>
      <point x="498" y="1215"/>
      <point x="498" y="1188" type="curve" smooth="yes"/>
      <point x="498" y="1128"/>
      <point x="563" y="1078"/>
      <point x="701" y="1004" type="curve" smooth="yes"/>
      <point x="726" y="990"/>
      <point x="717" y="996"/>
      <point x="729" y="989" type="curve" smooth="yes"/>
      <point x="881" y="906"/>
      <point x="953" y="866"/>
      <point x="1002" y="809" type="curve" smooth="yes"/>
      <point x="1041" y="762"/>
      <point x="1061" y="705"/>
      <point x="1061" y="638" type="curve" smooth="yes"/>
      <point x="1061" y="578"/>
      <point x="1045" y="527"/>
      <point x="1014" y="484" type="curve" smooth="yes"/>
      <point x="983" y="441"/>
      <point x="933" y="404"/>
      <point x="864" y="373" type="curve"/>
      <point x="911" y="340"/>
      <point x="945" y="303"/>
      <point x="967" y="262" type="curve" smooth="yes"/>
      <point x="988" y="221"/>
      <point x="999" y="173"/>
      <point x="999" y="118" type="curve" smooth="yes"/>
      <point x="999" y="23"/>
      <point x="966" y="-56"/>
      <point x="895" y="-112" type="curve" smooth="yes" name="hr03"/>
      <point x="828" y="-165"/>
      <point x="731" y="-195"/>
    </contour>
    <contour>
      <point x="711" y="473" type="curve"/>
      <point x="747" y="496"/>
      <point x="776" y="524"/>
      <point x="791" y="544" type="curve" smooth="yes"/>
      <point x="807" y="567"/>
      <point x="815" y="594"/>
      <point x="815" y="613" type="curve" smooth="yes"/>
      <point x="815" y="674"/>
      <point x="725" y="752"/>
      <point x="550" y="840" type="curve" smooth="yes"/>
      <point x="518" y="856" type="line"/>
      <point x="482" y="833"/>
      <point x="456" y="809"/>
      <point x="439" y="786" type="curve" smooth="yes"/>
      <point x="422" y="763"/>
      <point x="414" y="738"/>
      <point x="414" y="712" type="curve" smooth="yes"/>
      <point x="414" y="675"/>
      <point x="430" y="642"/>
      <point x="463" y="613" type="curve" smooth="yes"/>
      <point x="494" y="585"/>
      <point x="560" y="544"/>
    </contour>
  </outline>
</glyph>
<glyph name="ordfeminine" format="1">
  <advance width="1233"/>
  <unicode hex="00AA"/>
  <outline>
    <contour>
      <point x="537" y="698" type="curve" smooth="yes" name="hr00"/>
      <point x="452" y="698"/>
      <point x="383" y="721" name="sh01"/>
      <point x="332" y="766" type="curve" smooth="yes"/>
      <point x="281" y="811"/>
      <point x="256" y="874" name="ah02"/>
      <point x="256" y="953" type="curve" smooth="yes"/>
      <point x="256" y="1042"/>
      <point x="289" y="1110" name="sv01"/>
      <point x="349" y="1153" type="curve" smooth="yes"/>
      <point x="410" y="1197" name="ih01"/>
      <point x="503" y="1219"/>
      <point x="629" y="1219" type="curve" smooth="yes" name="sh03"/>
      <point x="786" y="1219" type="line" name="at01"/>
      <point x="786" y="1245" type="line" smooth="yes"/>
      <point x="786" y="1281" name="sh04"/>
      <point x="768" y="1304"/>
      <point x="741" y="1319" type="curve" smooth="yes" name="dv02"/>
      <point x="713" y="1334" name="sh05"/>
      <point x="669" y="1343"/>
      <point x="601" y="1343" type="curve" smooth="yes"/>
      <point x="550" y="1343" name="dv03"/>
      <point x="498" y="1338"/>
      <point x="451" y="1327" type="curve" smooth="yes" name="sh06"/>
      <point x="404" y="1316" name="dv04"/>
      <point x="358" y="1299"/>
      <point x="315" y="1276" type="curve"/>
      <point x="315" y="1464" type="line" name="sh02"/>
      <point x="351" y="1479"/>
      <point x="406" y="1495"/>
      <point x="462" y="1506" type="curve" smooth="yes"/>
      <point x="511" y="1515" name="sh07"/>
      <point x="561" y="1520" name="dv01"/>
      <point x="613" y="1520" type="curve" smooth="yes"/>
      <point x="738" y="1520" name="ah01"/>
      <point x="831" y="1491" name="sh08"/>
      <point x="890" y="1434" type="curve" smooth="yes"/>
      <point x="949" y="1377"/>
      <point x="979" y="1287"/>
      <point x="979" y="1165" type="curve" smooth="yes"/>
      <point x="979" y="717" type="line"/>
      <point x="805" y="717" type="line"/>
      <point x="786" y="809" type="line"/>
      <point x="753" y="771"/>
      <point x="717" y="743"/>
      <point x="676" y="725" type="curve" smooth="yes"/>
      <point x="635" y="707"/>
      <point x="588" y="698"/>
    </contour>
    <contour>
      <point x="593" y="866" type="curve" smooth="yes"/>
      <point x="649" y="866"/>
      <point x="699" y="887"/>
      <point x="732" y="918" type="curve" smooth="yes"/>
      <point x="768" y="953"/>
      <point x="786" y="998"/>
      <point x="786" y="1049" type="curve" smooth="yes"/>
      <point x="786" y="1079" type="line"/>
      <point x="684" y="1079" type="line" smooth="yes"/>
      <point x="611" y="1079"/>
      <point x="558" y="1070"/>
      <point x="525" y="1053" type="curve" smooth="yes"/>
      <point x="492" y="1036"/>
      <point x="475" y="1008"/>
      <point x="475" y="970" type="curve" smooth="yes"/>
      <point x="475" y="941"/>
      <point x="485" y="913"/>
      <point x="505" y="894" type="curve" smooth="yes"/>
      <point x="524" y="877"/>
      <point x="552" y="866"/>
    </contour>
    <contour>
      <point x="293" y="598" type="line"/>
      <point x="981" y="598" type="line"/>
      <point x="981" y="428" type="line"/>
      <point x="293" y="428" type="line"/>
    </contour>
  </outline>
</glyph>
<glyph name="logicalnot" format="1">
  <advance width="1233"/>
  <unicode hex="00AC"/>
  <outline>
    <contour>
      <point x="907" y="662" type="line" name="dh01"/>
      <point x="88" y="662" type="line"/>
      <point x="88" y="899" type="line"/>
      <point x="1145" y="899" type="line" name="dh02"/>
      <point x="1145" y="362" type="line" name="av01"/>
      <point x="907" y="362" type="line"/>
    </contour>
  </outline>
</glyph>
<glyph name="degree" format="1">
  <advance width="1233"/>
  <unicode hex="00B0"/>
  <outline>
    <contour>
      <point x="613" y="854" type="curve" smooth="yes" name="dv01"/>
      <point x="518" y="854"/>
      <point x="437" y="889" name="sh01"/>
      <point x="378" y="948" type="curve" smooth="yes"/>
      <point x="315" y="1011" name="at01"/>
      <point x="283" y="1093"/>
      <point x="283" y="1185" type="curve" smooth="yes"/>
      <point x="283" y="1277"/>
      <point x="314" y="1360" name="sh02"/>
      <point x="378" y="1424" type="curve" smooth="yes"/>
      <point x="442" y="1488"/>
      <point x="524" y="1520"/>
      <point x="616" y="1520" type="curve" smooth="yes"/>
      <point x="661" y="1520" name="dv02"/>
      <point x="704" y="1512"/>
      <point x="744" y="1495" type="curve" smooth="yes" name="ah02"/>
      <point x="783" y="1479"/>
      <point x="821" y="1453" name="sv01"/>
      <point x="852" y="1422" type="curve" smooth="yes"/>
      <point x="883" y="1391" name="sh03"/>
      <point x="909" y="1350"/>
      <point x="924" y="1313" type="curve" smooth="yes"/>
      <point x="940" y="1274" name="ah01"/>
      <point x="948" y="1232" name="sh04"/>
      <point x="948" y="1188" type="curve" smooth="yes"/>
      <point x="948" y="1142"/>
      <point x="940" y="1099"/>
      <point x="923" y="1059" type="curve" smooth="yes"/>
      <point x="907" y="1020"/>
      <point x="884" y="984"/>
      <point x="852" y="952" type="curve" smooth="yes"/>
      <point x="821" y="921"/>
      <point x="782" y="896"/>
      <point x="743" y="880" type="curve" smooth="yes"/>
      <point x="702" y="863"/>
      <point x="660" y="854"/>
    </contour>
    <contour>
      <point x="614" y="1016" type="curve" smooth="yes"/>
      <point x="662" y="1016"/>
      <point x="703" y="1033"/>
      <point x="736" y="1066" type="curve" smooth="yes"/>
      <point x="769" y="1099"/>
      <point x="786" y="1140"/>
      <point x="786" y="1187" type="curve" smooth="yes"/>
      <point x="786" y="1235"/>
      <point x="770" y="1275"/>
      <point x="737" y="1308" type="curve" smooth="yes"/>
      <point x="704" y="1341"/>
      <point x="663" y="1358"/>
      <point x="616" y="1358" type="curve" smooth="yes"/>
      <point x="568" y="1358"/>
      <point x="527" y="1341"/>
      <point x="494" y="1308" type="curve" smooth="yes"/>
      <point x="461" y="1275"/>
      <point x="444" y="1234"/>
      <point x="444" y="1185" type="curve" smooth="yes"/>
      <point x="444" y="1138"/>
      <point x="460" y="1098"/>
      <point x="493" y="1065" type="curve" smooth="yes"/>
      <point x="526" y="1032"/>
      <point x="566" y="1016"/>
    </contour>
  </outline>
</glyph>
<glyph name="plusminus" format="1">
  <advance width="1233"/>
  <unicode hex="00B1"/>
  <outline>
    <contour>
      <point x="498" y="694" type="line" name="dh01"/>
      <point x="88" y="694" type="line"/>
      <point x="88" y="930" type="line"/>
      <point x="498" y="930" type="line" name="sh01"/>
      <point x="498" y="1284" type="line" name="av01"/>
      <point x="735" y="1284" type="line" name="sh02"/>
      <point x="735" y="930" type="line" name="sv01"/>
      <point x="1145" y="930" type="line"/>
      <point x="1145" y="694" type="line" name="sv02"/>
      <point x="735" y="694" type="line" name="dh02"/>
      <point x="735" y="340" type="line"/>
      <point x="498" y="340" type="line"/>
    </contour>
    <contour>
      <point x="88" y="238" type="line" name="sv03"/>
      <point x="1145" y="238" type="line"/>
      <point x="1145" y="0" type="line" name="ab01"/>
      <point x="88" y="0" type="line"/>
    </contour>
  </outline>
</glyph>
<glyph name="twosuperior" format="1">
  <advance width="1233"/>
  <unicode hex="00B2"/>
  <outline>
    <contour>
      <point x="274" y="1261" type="line" name="hr00"/>
      <point x="309" y="1290"/>
      <point x="355" y="1328" name="dh01"/>
      <point x="415" y="1379" type="curve" smooth="yes"/>
      <point x="627" y="1556" name="dv02"/>
      <point x="729" y="1664"/>
      <point x="729" y="1727" type="curve" smooth="yes"/>
      <point x="729" y="1750"/>
      <point x="717" y="1781"/>
      <point x="686" y="1802" type="curve" smooth="yes" name="dv03"/>
      <point x="657" y="1822"/>
      <point x="618" y="1832" name="dh02"/>
      <point x="569" y="1832" type="curve" smooth="yes"/>
      <point x="529" y="1832"/>
      <point x="483" y="1826" name="sh01"/>
      <point x="444" y="1815" type="curve" smooth="yes" name="dv01"/>
      <point x="405" y="1804"/>
      <point x="347" y="1786"/>
      <point x="299" y="1763" type="curve" name="sh02"/>
      <point x="299" y="1927" type="line"/>
      <point x="342" y="1940"/>
      <point x="401" y="1954"/>
      <point x="445" y="1961" type="curve"/>
      <point x="482" y="1968"/>
      <point x="535" y="1972"/>
      <point x="587" y="1972" type="curve" smooth="yes"/>
      <point x="695" y="1972"/>
      <point x="784" y="1952"/>
      <point x="845" y="1909" type="curve" smooth="yes"/>
      <point x="908" y="1866"/>
      <point x="938" y="1806"/>
      <point x="938" y="1753" type="curve" smooth="yes"/>
      <point x="938" y="1656"/>
      <point x="836" y="1527"/>
      <point x="583" y="1330" type="curve" smooth="yes"/>
      <point x="500" y="1265" type="line"/>
      <point x="940" y="1265" type="line"/>
      <point x="940" y="1120" type="line"/>
      <point x="274" y="1120" type="line"/>
    </contour>
  </outline>
</glyph>
<glyph name="threesuperior" format="1">
  <advance width="1233"/>
  <unicode hex="00B3"/>
  <outline>
    <contour>
      <point x="588" y="1113" type="curve" smooth="yes" name="dv01"/>
      <point x="535" y="1113" name="sv01"/>
      <point x="487" y="1117"/>
      <point x="436" y="1124" type="curve" smooth="yes"/>
      <point x="385" y="1131"/>
      <point x="336" y="1141" name="dv02"/>
      <point x="287" y="1154" type="curve"/>
      <point x="287" y="1308" type="line" name="dh01"/>
      <point x="327" y="1292"/>
      <point x="374" y="1278" name="dv05"/>
      <point x="430" y="1267" type="curve" smooth="yes"/>
      <point x="481" y="1258"/>
      <point x="536" y="1253" name="dv06"/>
      <point x="580" y="1253" type="curve" smooth="yes"/>
      <point x="647" y="1253" name="sh01"/>
      <point x="687" y="1264"/>
      <point x="719" y="1285" type="curve" smooth="yes" name="dv03"/>
      <point x="750" y="1306"/>
      <point x="766" y="1336"/>
      <point x="766" y="1374" type="curve" smooth="yes"/>
      <point x="766" y="1414" name="sv02"/>
      <point x="750" y="1445" name="dv04"/>
      <point x="717" y="1468" type="curve" smooth="yes"/>
      <point x="684" y="1491" name="ih01"/>
      <point x="639" y="1502"/>
      <point x="582" y="1502" type="curve" smooth="yes" name="iv01"/>
      <point x="471" y="1502" type="line"/>
      <point x="471" y="1648" type="line" name="dh02"/>
      <point x="582" y="1648" type="line" smooth="yes"/>
      <point x="631" y="1648"/>
      <point x="670" y="1656"/>
      <point x="699" y="1673" type="curve" smooth="yes" name="sh02"/>
      <point x="727" y="1690"/>
      <point x="741" y="1713"/>
      <point x="741" y="1743" type="curve" smooth="yes"/>
      <point x="741" y="1768"/>
      <point x="731" y="1794"/>
      <point x="702" y="1813" type="curve" smooth="yes"/>
      <point x="675" y="1830"/>
      <point x="641" y="1838"/>
      <point x="586" y="1838" type="curve" smooth="yes"/>
      <point x="547" y="1838"/>
      <point x="501" y="1834"/>
      <point x="454" y="1827" type="curve" smooth="yes"/>
      <point x="407" y="1820"/>
      <point x="362" y="1808"/>
      <point x="317" y="1793" type="curve"/>
      <point x="317" y="1945" type="line"/>
      <point x="360" y="1956"/>
      <point x="407" y="1964"/>
      <point x="456" y="1971" type="curve" smooth="yes"/>
      <point x="503" y="1978"/>
      <point x="548" y="1980"/>
      <point x="591" y="1980" type="curve" smooth="yes"/>
      <point x="692" y="1980"/>
      <point x="783" y="1963"/>
      <point x="847" y="1922" type="curve" smooth="yes" name="hr02"/>
      <point x="907" y="1883"/>
      <point x="938" y="1830"/>
      <point x="938" y="1762" type="curve" smooth="yes"/>
      <point x="938" y="1713"/>
      <point x="921" y="1674"/>
      <point x="886" y="1643" type="curve" smooth="yes"/>
      <point x="851" y="1612"/>
      <point x="801" y="1591"/>
      <point x="735" y="1580" type="curve"/>
      <point x="809" y="1570"/>
      <point x="866" y="1546"/>
      <point x="905" y="1509" type="curve" smooth="yes"/>
      <point x="944" y="1472"/>
      <point x="963" y="1423"/>
      <point x="963" y="1360" type="curve" smooth="yes"/>
      <point x="963" y="1280"/>
      <point x="931" y="1219"/>
      <point x="867" y="1177" type="curve" smooth="yes"/>
      <point x="802" y="1134"/>
      <point x="709" y="1113"/>
    </contour>
  </outline>
</glyph>
<glyph name="acute" format="1">
  <advance width="1233"/>
  <unicode hex="00B4"/>
  <outline>
    <contour>
      <point x="752" y="1638" type="line" name="av02"/>
      <point x="1034" y="1638" type="line"/>
      <point x="666" y="1262" type="line" name="av01"/>
      <point x="469" y="1262" type="line"/>
    </contour>
  </outline>
</glyph>
<glyph name="mu" format="1">
  <advance width="1233"/>
  <unicode hex="00B5"/>
  <outline>
    <contour>
      <point x="154" y="1120" type="line" name="sh01"/>
      <point x="441" y="1120" type="line" name="sh02"/>
      <point x="441" y="440" type="line" smooth="yes"/>
      <point x="441" y="365"/>
      <point x="455" y="308" name="sv01"/>
      <point x="482" y="269" type="curve" smooth="yes"/>
      <point x="509" y="232" name="ah02"/>
      <point x="547" y="211" name="at01"/>
      <point x="604" y="211" type="curve" smooth="yes"/>
      <point x="658" y="211" name="sh03"/>
      <point x="699" y="230" name="sh04"/>
      <point x="726" y="268" type="curve" smooth="yes" name="dv02"/>
      <point x="753" y="305"/>
      <point x="766" y="363" name="iv01"/>
      <point x="766" y="440" type="curve" smooth="yes"/>
      <point x="766" y="1120" type="line"/>
      <point x="1055" y="1120" type="line" name="dv01"/>
      <point x="1055" y="344" type="line" smooth="yes"/>
      <point x="1055" y="298" name="ih01"/>
      <point x="1060" y="264"/>
      <point x="1069" y="242" type="curve" smooth="yes" name="sv02"/>
      <point x="1078" y="221"/>
      <point x="1092" y="211" name="sh05"/>
      <point x="1113" y="211" type="curve" smooth="yes" name="ab01"/>
      <point x="1124" y="211"/>
      <point x="1129" y="213" name="ah01"/>
      <point x="1140" y="217" type="curve" smooth="yes" name="sh06"/>
      <point x="1152" y="222"/>
      <point x="1155" y="224"/>
      <point x="1168" y="233" type="curve"/>
      <point x="1168" y="16" type="line"/>
      <point x="1135" y="-1"/>
      <point x="1115" y="-10"/>
      <point x="1088" y="-18" type="curve" smooth="yes"/>
      <point x="1063" y="-25"/>
      <point x="1041" y="-29"/>
      <point x="1014" y="-29" type="curve" smooth="yes"/>
      <point x="962" y="-29"/>
      <point x="927" y="-14"/>
      <point x="899" y="9" type="curve" smooth="yes"/>
      <point x="864" y="37"/>
      <point x="845" y="74"/>
      <point x="826" y="129" type="curve"/>
      <point x="801" y="77"/>
      <point x="770" y="38"/>
      <point x="734" y="11" type="curve" smooth="yes"/>
      <point x="697" y="-16"/>
      <point x="655" y="-29"/>
      <point x="608" y="-29" type="curve" smooth="yes"/>
      <point x="569" y="-29"/>
      <point x="536" y="-21"/>
      <point x="509" y="-6" type="curve" smooth="yes"/>
      <point x="481" y="9"/>
      <point x="458" y="33"/>
      <point x="441" y="66" type="curve"/>
      <point x="443" y="-428" type="line"/>
      <point x="154" y="-428" type="line"/>
    </contour>
  </outline>
</glyph>
<glyph name="paragraph" format="1">
  <advance width="1233"/>
  <unicode hex="00B6"/>
  <outline>
    <contour>
      <point x="496" y="649" type="line" name="sh01"/>
      <point x="353" y="668"/>
      <point x="254" y="712"/>
      <point x="181" y="784" type="curve" smooth="yes"/>
      <point x="107" y="857" name="at01"/>
      <point x="70" y="952"/>
      <point x="70" y="1070" type="curve" smooth="yes" name="sh02"/>
      <point x="70" y="1198" name="ah02"/>
      <point x="113" y="1300" name="sv01"/>
      <point x="200" y="1377" type="curve" smooth="yes" name="sh03"/>
      <point x="287" y="1454" name="av01"/>
      <point x="402" y="1493"/>
      <point x="545" y="1493" type="curve" smooth="yes" name="ah01"/>
      <point x="1065" y="1493" type="line" name="sh04"/>
      <point x="1065" y="-197" type="line"/>
      <point x="874" y="-197" type="line"/>
      <point x="874" y="1346" type="line"/>
      <point x="684" y="1346" type="line"/>
      <point x="684" y="-197" type="line"/>
      <point x="496" y="-197" type="line"/>
    </contour>
  </outline>
</glyph>
<glyph name="cedilla" format="1">
  <advance width="1233"/>
  <unicode hex="00B8"/>
  <outline>
    <contour>
      <point x="573" y="-401" type="curve" smooth="yes" name="dv01"/>
      <point x="542" y="-401" name="sv01"/>
      <point x="502" y="-399"/>
      <point x="471" y="-395" type="curve" smooth="yes" name="dh01"/>
      <point x="422" y="-390"/>
      <point x="401" y="-383" name="dv02"/>
      <point x="367" y="-375" type="curve"/>
      <point x="367" y="-219" type="line"/>
      <point x="398" y="-230"/>
      <point x="426" y="-238" name="ih01"/>
      <point x="454" y="-245" type="curve" smooth="yes"/>
      <point x="482" y="-251"/>
      <point x="508" y="-254" name="dh02"/>
      <point x="532" y="-254" type="curve" smooth="yes"/>
      <point x="570" y="-254"/>
      <point x="600" y="-246"/>
      <point x="623" y="-231" type="curve" smooth="yes"/>
      <point x="644" y="-216"/>
      <point x="655" y="-195"/>
      <point x="655" y="-170" type="curve" smooth="yes"/>
      <point x="655" y="-151"/>
      <point x="648" y="-128"/>
      <point x="634" y="-101" type="curve" smooth="yes"/>
      <point x="619" y="-74"/>
      <point x="598" y="-40"/>
      <point x="567" y="0" type="curve" name="hr01"/>
      <point x="707" y="0" type="line"/>
      <point x="747" y="-43"/>
      <point x="776" y="-84"/>
      <point x="792" y="-115" type="curve" smooth="yes"/>
      <point x="810" y="-149"/>
      <point x="819" y="-184"/>
      <point x="819" y="-221" type="curve" smooth="yes"/>
      <point x="819" y="-282"/>
      <point x="796" y="-327"/>
      <point x="757" y="-356" type="curve" smooth="yes"/>
      <point x="722" y="-383"/>
      <point x="668" y="-401"/>
    </contour>
  </outline>
</glyph>
<glyph name="onesuperior" format="1">
  <advance width="1233"/>
  <unicode hex="00B9"/>
  <outline>
    <contour>
      <point x="313" y="1265" type="line" name="sh01"/>
      <point x="539" y="1265" type="line" name="sh02"/>
      <point x="539" y="1808" type="line"/>
      <point x="319" y="1765" type="line"/>
      <point x="319" y="1914" type="line" name="dh01"/>
      <point x="541" y="1955" type="line" name="av01"/>
      <point x="735" y="1955" type="line" name="dh02"/>
      <point x="735" y="1265" type="line"/>
      <point x="961" y="1265" type="line" name="dv02"/>
      <point x="961" y="1120" type="line" name="dv01"/>
      <point x="313" y="1120" type="line"/>
    </contour>
  </outline>
</glyph>
<glyph name="ordmasculine" format="1">
  <advance width="1233"/>
  <unicode hex="00BA"/>
  <outline>
    <contour>
      <point x="637" y="698" type="curve" smooth="yes" name="dv03"/>
      <point x="521" y="698"/>
      <point x="437" y="737" name="sh01"/>
      <point x="373" y="809" type="curve" smooth="yes"/>
      <point x="309" y="881" name="at01"/>
      <point x="274" y="976"/>
      <point x="274" y="1107" type="curve" smooth="yes" name="sh02"/>
      <point x="274" y="1233"/>
      <point x="307" y="1334"/>
      <point x="373" y="1409" type="curve" smooth="yes" name="dv04"/>
      <point x="438" y="1483"/>
      <point x="526" y="1520" name="ah02"/>
      <point x="637" y="1520" type="curve" smooth="yes"/>
      <point x="748" y="1520" name="sv01"/>
      <point x="836" y="1483"/>
      <point x="901" y="1409" type="curve" smooth="yes" name="sh03"/>
      <point x="966" y="1334"/>
      <point x="999" y="1234"/>
      <point x="999" y="1107" type="curve" smooth="yes"/>
      <point x="999" y="982" name="dv02"/>
      <point x="969" y="885" name="dv01"/>
      <point x="902" y="809" type="curve" smooth="yes"/>
      <point x="837" y="735" name="ah01"/>
      <point x="748" y="698" name="sh04"/>
    </contour>
    <contour>
      <point x="637" y="874" type="curve" smooth="yes"/>
      <point x="684" y="874"/>
      <point x="724" y="894"/>
      <point x="753" y="937" type="curve" smooth="yes"/>
      <point x="781" y="978"/>
      <point x="795" y="1035"/>
      <point x="795" y="1108" type="curve" smooth="yes"/>
      <point x="795" y="1181"/>
      <point x="781" y="1238"/>
      <point x="753" y="1280" type="curve" smooth="yes"/>
      <point x="726" y="1320"/>
      <point x="688" y="1343"/>
      <point x="637" y="1343" type="curve" smooth="yes"/>
      <point x="582" y="1343"/>
      <point x="546" y="1316"/>
      <point x="522" y="1281" type="curve" smooth="yes"/>
      <point x="493" y="1238"/>
      <point x="479" y="1181"/>
      <point x="479" y="1108" type="curve" smooth="yes"/>
      <point x="479" y="1035"/>
      <point x="493" y="978"/>
      <point x="521" y="937" type="curve" smooth="yes"/>
      <point x="546" y="900"/>
      <point x="585" y="874"/>
    </contour>
    <contour>
      <point x="293" y="598" type="line"/>
      <point x="981" y="598" type="line"/>
      <point x="981" y="428" type="line"/>
      <point x="293" y="428" type="line"/>
    </contour>
  </outline>
</glyph>
<glyph name="onequarter" format="1">
  <advance width="1233"/>
  <unicode hex="00BC"/>
  <outline>
    <contour>
      <point x="55" y="969" type="line" name="sh01"/>
      <point x="281" y="969" type="line" name="sh02"/>
      <point x="281" y="1512" type="line"/>
      <point x="61" y="1469" type="line"/>
      <point x="61" y="1618" type="line" name="dh01"/>
      <point x="283" y="1659" type="line" name="av01"/>
      <point x="477" y="1659" type="line" name="dh02"/>
      <point x="477" y="969" type="line"/>
      <point x="703" y="969" type="line" name="dv02"/>
      <point x="703" y="824" type="line" name="dv01"/>
      <point x="55" y="824" type="line"/>
    </contour>
    <contour>
      <point x="47" y="618" type="line"/>
      <point x="1106" y="881" type="line"/>
      <point x="1143" y="762" type="line"/>
      <point x="84" y="500" type="line"/>
    </contour>
    <contour>
      <point x="823" y="-90" type="line" name="dh03"/>
      <point x="430" y="-90" type="line"/>
      <point x="430" y="72" type="line"/>
      <point x="805" y="565" type="line"/>
      <point x="1009" y="565" type="line" name="sh03"/>
      <point x="1009" y="53" type="line" name="sv01"/>
      <point x="1118" y="53" type="line"/>
      <point x="1118" y="-90" type="line" name="sv02"/>
      <point x="1009" y="-90" type="line" name="dh04"/>
      <point x="1009" y="-270" type="line" name="av02"/>
      <point x="823" y="-270" type="line"/>
    </contour>
    <contour>
      <point x="823" y="53" type="line" name="sh04"/>
      <point x="823" y="383" type="line" name="ih01"/>
      <point x="573" y="53" type="line" name="ih02"/>
    </contour>
  </outline>
</glyph>
<glyph name="onehalf" format="1">
  <advance width="1233"/>
  <unicode hex="00BD"/>
  <outline>
    <contour>
      <point x="55" y="969" type="line" name="sh01"/>
      <point x="281" y="969" type="line" name="sh02"/>
      <point x="281" y="1512" type="line"/>
      <point x="61" y="1469" type="line"/>
      <point x="61" y="1618" type="line" name="dh01"/>
      <point x="283" y="1659" type="line" name="av01"/>
      <point x="477" y="1659" type="line" name="dh02"/>
      <point x="477" y="969" type="line" name="sh05"/>
      <point x="703" y="969" type="line" name="dv05"/>
      <point x="703" y="824" type="line" name="dv04"/>
      <point x="55" y="824" type="line"/>
    </contour>
    <contour>
      <point x="47" y="618" type="line"/>
      <point x="1106" y="881" type="line"/>
      <point x="1143" y="762" type="line"/>
      <point x="84" y="500" type="line"/>
    </contour>
    <contour>
      <point x="475" y="-129" type="line" name="sh03"/>
      <point x="510" y="-100"/>
      <point x="556" y="-62" name="dh03"/>
      <point x="616" y="-11" type="curve" smooth="yes"/>
      <point x="828" y="166" name="dv02"/>
      <point x="930" y="274"/>
      <point x="930" y="337" type="curve" smooth="yes" name="ih01"/>
      <point x="930" y="360"/>
      <point x="918" y="391"/>
      <point x="887" y="412" type="curve" smooth="yes" name="dv03"/>
      <point x="858" y="432"/>
      <point x="819" y="442" name="dh04"/>
      <point x="770" y="442" type="curve" smooth="yes"/>
      <point x="730" y="442" name="ih02"/>
      <point x="684" y="436" name="sh04"/>
      <point x="645" y="425" type="curve" smooth="yes" name="dv01"/>
      <point x="606" y="414" name="sh06"/>
      <point x="548" y="396"/>
      <point x="500" y="373" type="curve" name="sh07"/>
      <point x="500" y="537" type="line"/>
      <point x="543" y="550"/>
      <point x="602" y="564"/>
      <point x="646" y="571" type="curve"/>
      <point x="683" y="578"/>
      <point x="736" y="582"/>
      <point x="788" y="582" type="curve" smooth="yes"/>
      <point x="896" y="582"/>
      <point x="985" y="562"/>
      <point x="1046" y="519" type="curve" smooth="yes"/>
      <point x="1109" y="476"/>
      <point x="1139" y="416"/>
      <point x="1139" y="363" type="curve" smooth="yes"/>
      <point x="1139" y="266"/>
      <point x="1037" y="137"/>
      <point x="784" y="-60" type="curve" smooth="yes"/>
      <point x="701" y="-125" type="line"/>
      <point x="1141" y="-125" type="line" name="hr01"/>
      <point x="1141" y="-270" type="line"/>
      <point x="475" y="-270" type="line"/>
    </contour>
  </outline>
</glyph>
<glyph name="threequarters" format="1">
  <advance width="1233"/>
  <unicode hex="00BE"/>
  <outline>
    <contour>
      <point x="361" y="809" type="curve" smooth="yes" name="dv05"/>
      <point x="308" y="809" name="sv01"/>
      <point x="260" y="813"/>
      <point x="209" y="820" type="curve" smooth="yes"/>
      <point x="158" y="827"/>
      <point x="109" y="837" name="dv06"/>
      <point x="60" y="850" type="curve"/>
      <point x="60" y="1004" type="line" name="dh03"/>
      <point x="100" y="988"/>
      <point x="147" y="974" name="dv03"/>
      <point x="203" y="963" type="curve" smooth="yes"/>
      <point x="254" y="954"/>
      <point x="309" y="949" name="dv04"/>
      <point x="353" y="949" type="curve" smooth="yes"/>
      <point x="420" y="949" name="sh01"/>
      <point x="460" y="960"/>
      <point x="492" y="981" type="curve" smooth="yes" name="dv01"/>
      <point x="523" y="1002"/>
      <point x="539" y="1032"/>
      <point x="539" y="1070" type="curve" smooth="yes"/>
      <point x="539" y="1110" name="sv02"/>
      <point x="523" y="1141" name="dv02"/>
      <point x="490" y="1164" type="curve" smooth="yes"/>
      <point x="457" y="1187" name="ih01"/>
      <point x="412" y="1198"/>
      <point x="355" y="1198" type="curve" smooth="yes" name="iv01"/>
      <point x="244" y="1198" type="line"/>
      <point x="244" y="1344" type="line" name="dh04"/>
      <point x="355" y="1344" type="line" smooth="yes"/>
      <point x="404" y="1344"/>
      <point x="443" y="1352"/>
      <point x="472" y="1369" type="curve" smooth="yes"/>
      <point x="500" y="1386"/>
      <point x="514" y="1409"/>
      <point x="514" y="1439" type="curve" smooth="yes" name="dh01"/>
      <point x="514" y="1464"/>
      <point x="504" y="1490"/>
      <point x="475" y="1509" type="curve" smooth="yes"/>
      <point x="448" y="1526" name="sh02"/>
      <point x="414" y="1534" name="sv03"/>
      <point x="359" y="1534" type="curve" smooth="yes"/>
      <point x="320" y="1534" name="sv04"/>
      <point x="274" y="1530" name="dh02"/>
      <point x="227" y="1523" type="curve" smooth="yes" name="av01"/>
      <point x="180" y="1516"/>
      <point x="135" y="1504" name="sh03"/>
      <point x="90" y="1489" type="curve" name="ih02"/>
      <point x="90" y="1641" type="line" name="ih03"/>
      <point x="133" y="1652"/>
      <point x="180" y="1660" name="sh04"/>
      <point x="229" y="1667" type="curve" smooth="yes"/>
      <point x="276" y="1674"/>
      <point x="321" y="1676"/>
      <point x="364" y="1676" type="curve" smooth="yes"/>
      <point x="465" y="1676"/>
      <point x="556" y="1659"/>
      <point x="620" y="1618" type="curve" smooth="yes"/>
      <point x="680" y="1579"/>
      <point x="711" y="1526"/>
      <point x="711" y="1458" type="curve" smooth="yes"/>
      <point x="711" y="1409"/>
      <point x="694" y="1370"/>
      <point x="659" y="1339" type="curve" smooth="yes" name="hr01"/>
      <point x="624" y="1308"/>
      <point x="574" y="1287"/>
      <point x="508" y="1276" type="curve"/>
      <point x="582" y="1266"/>
      <point x="639" y="1242"/>
      <point x="678" y="1205" type="curve" smooth="yes"/>
      <point x="717" y="1168"/>
      <point x="736" y="1119"/>
      <point x="736" y="1056" type="curve" smooth="yes"/>
      <point x="736" y="976"/>
      <point x="704" y="915"/>
      <point x="640" y="873" type="curve" smooth="yes"/>
      <point x="575" y="830"/>
      <point x="482" y="809"/>
    </contour>
    <contour>
      <point x="47" y="618" type="line"/>
      <point x="1106" y="881" type="line"/>
      <point x="1143" y="762" type="line"/>
      <point x="84" y="500" type="line"/>
    </contour>
    <contour>
      <point x="823" y="-90" type="line"/>
      <point x="430" y="-90" type="line"/>
      <point x="430" y="72" type="line"/>
      <point x="805" y="565" type="line"/>
      <point x="1009" y="565" type="line"/>
      <point x="1009" y="53" type="line"/>
      <point x="1118" y="53" type="line" name="hr02"/>
      <point x="1118" y="-90" type="line"/>
      <point x="1009" y="-90" type="line"/>
      <point x="1009" y="-270" type="line"/>
      <point x="823" y="-270" type="line"/>
    </contour>
    <contour>
      <point x="823" y="53" type="line"/>
      <point x="823" y="383" type="line"/>
      <point x="573" y="53" type="line"/>
    </contour>
  </outline>
</glyph>
<glyph name="Atilde" format="1">
  <advance width="1233"/>
  <unicode hex="00C3"/>
  <outline>
    <contour>
      <point x="268" y="1618" type="line" smooth="yes" name="hr00"/>
      <point x="268" y="1691"/>
      <point x="289" y="1750" name="sv01"/>
      <point x="322" y="1789" type="curve" smooth="yes"/>
      <point x="359" y="1833"/>
      <point x="411" y="1854"/>
      <point x="466" y="1854" type="curve" smooth="yes"/>
      <point x="491" y="1854"/>
      <point x="515" y="1850"/>
      <point x="539" y="1842" type="curve" smooth="yes" name="dv02"/>
      <point x="558" y="1835"/>
      <point x="590" y="1821"/>
      <point x="614" y="1805" type="curve" smooth="yes"/>
      <point x="674" y="1766" type="line" smooth="yes"/>
      <point x="682" y="1761" name="dv01"/>
      <point x="695" y="1753"/>
      <point x="715" y="1745" type="curve" smooth="yes"/>
      <point x="728" y="1740"/>
      <point x="738" y="1737"/>
      <point x="750" y="1737" type="curve" smooth="yes"/>
      <point x="774" y="1737"/>
      <point x="793" y="1747"/>
      <point x="806" y="1767" type="curve" smooth="yes" name="sv02"/>
      <point x="819" y="1786"/>
      <point x="825" y="1815" name="at01"/>
      <point x="825" y="1854" type="curve"/>
      <point x="965" y="1854" type="line" name="ab01"/>
      <point x="965" y="1851"/>
      <point x="965" y="1846" name="dv03"/>
      <point x="964" y="1839" type="curve" smooth="yes"/>
      <point x="963" y="1832" name="ab02"/>
      <point x="963" y="1829"/>
      <point x="963" y="1826" type="curve" smooth="yes" name="dv04"/>
      <point x="963" y="1754"/>
      <point x="945" y="1696"/>
      <point x="910" y="1653" type="curve" smooth="yes"/>
      <point x="871" y="1606"/>
      <point x="823" y="1588"/>
      <point x="768" y="1588" type="curve" smooth="yes"/>
      <point x="744" y="1588"/>
      <point x="720" y="1592"/>
      <point x="696" y="1599" type="curve" smooth="yes"/>
      <point x="669" y="1607"/>
      <point x="646" y="1618"/>
      <point x="618" y="1637" type="curve"/>
      <point x="564" y="1671" type="line"/>
      <point x="561" y="1672"/>
      <point x="559" y="1675"/>
      <point x="552" y="1678" type="curve" smooth="yes"/>
      <point x="524" y="1693"/>
      <point x="502" y="1704"/>
      <point x="479" y="1704" type="curve" smooth="yes"/>
      <point x="458" y="1704"/>
      <point x="441" y="1694"/>
      <point x="428" y="1674" type="curve" smooth="yes"/>
      <point x="415" y="1653"/>
      <point x="408" y="1627"/>
      <point x="408" y="1594" type="curve" smooth="yes"/>
      <point x="408" y="1588" type="line"/>
      <point x="268" y="1588" type="line"/>
    </contour>
    <contour>
      <point x="436" y="1493" type="line"/>
      <point x="797" y="1493" type="line"/>
      <point x="1200" y="0" type="line"/>
      <point x="905" y="0" type="line"/>
      <point x="813" y="369" type="line"/>
      <point x="418" y="369" type="line"/>
      <point x="328" y="0" type="line"/>
      <point x="33" y="0" type="line"/>
    </contour>
    <contour>
      <point x="756" y="612" type="line"/>
      <point x="616" y="1223" type="line"/>
      <point x="477" y="612" type="line"/>
    </contour>
  </outline>
</glyph>
<glyph name="AE" format="1">
  <advance width="1233"/>
  <unicode hex="00C6"/>
  <outline>
    <contour>
      <point x="358" y="1493" type="line" name="at01"/>
      <point x="1161" y="1493" type="line"/>
      <point x="1161" y="1233" type="line" name="sv01"/>
      <point x="870" y="1233" type="line" name="sh01"/>
      <point x="870" y="922" type="line"/>
      <point x="1130" y="922" type="line" name="dv02"/>
      <point x="1130" y="662" type="line" name="dv01"/>
      <point x="870" y="662" type="line"/>
      <point x="870" y="260" type="line" name="dh02"/>
      <point x="1180" y="260" type="line"/>
      <point x="1180" y="0" type="line" name="ab01"/>
      <point x="616" y="0" type="line"/>
      <point x="616" y="362" type="line" name="dh01"/>
      <point x="334" y="362" type="line"/>
      <point x="248" y="0" type="line" name="ab02"/>
      <point x="0" y="0" type="line"/>
    </contour>
    <contour>
      <point x="616" y="598" type="line" name="sh02"/>
      <point x="616" y="1233" type="line" name="sv02"/>
      <point x="537" y="1233" type="line" name="sv03"/>
      <point x="389" y="598" type="line"/>
    </contour>
  </outline>
</glyph>
<glyph name="Egrave" format="1">
  <advance width="1233"/>
  <unicode hex="00C8"/>
  <outline>
    <contour>
      <point x="314" y="1842" type="line" name="ih01"/>
      <point x="598" y="1842" type="line"/>
      <point x="797" y="1578" type="line" name="iv01"/>
      <point x="600" y="1578" type="line"/>
    </contour>
    <contour>
      <point x="168" y="1493" type="line" name="dh01"/>
      <point x="1098" y="1493" type="line"/>
      <point x="1098" y="1233" type="line" name="sv01"/>
      <point x="463" y="1233" type="line" name="dh02"/>
      <point x="463" y="911" type="line"/>
      <point x="1038" y="911" type="line" name="dv02"/>
      <point x="1038" y="651" type="line" name="dv01"/>
      <point x="463" y="651" type="line" name="sh01"/>
      <point x="463" y="260" type="line" name="sv02"/>
      <point x="1098" y="260" type="line"/>
      <point x="1098" y="0" type="line" name="ab01"/>
      <point x="168" y="0" type="line"/>
    </contour>
  </outline>
</glyph>
<glyph name="Eacute" format="1">
  <advance width="1233"/>
  <unicode hex="00C9"/>
  <outline>
    <contour>
      <point x="699" y="1841" type="line" name="av01"/>
      <point x="983" y="1841" type="line"/>
      <point x="697" y="1577" type="line"/>
      <point x="500" y="1577" type="line" name="iv01"/>
    </contour>
    <contour>
      <point x="168" y="1493" type="line" name="dh01"/>
      <point x="1098" y="1493" type="line"/>
      <point x="1098" y="1233" type="line" name="sv01"/>
      <point x="463" y="1233" type="line" name="dh02"/>
      <point x="463" y="911" type="line"/>
      <point x="1038" y="911" type="line" name="dv02"/>
      <point x="1038" y="651" type="line" name="dv01"/>
      <point x="463" y="651" type="line" name="sh01"/>
      <point x="463" y="260" type="line" name="sv02"/>
      <point x="1098" y="260" type="line"/>
      <point x="1098" y="0" type="line" name="ab01"/>
      <point x="168" y="0" type="line"/>
    </contour>
  </outline>
</glyph>
<glyph name="Eth" format="1">
  <advance width="1233"/>
  <unicode hex="00D0"/>
  <outline>
    <contour>
      <point x="137" y="664" type="line" name="sh01"/>
      <point x="0" y="664" type="line"/>
      <point x="0" y="901" type="line"/>
      <point x="137" y="901" type="line" name="sh02"/>
      <point x="137" y="1493" type="line" name="at01"/>
      <point x="453" y="1493" type="line" smooth="yes"/>
      <point x="697" y="1493"/>
      <point x="873" y="1435" name="sh03"/>
      <point x="980" y="1319" type="curve" smooth="yes"/>
      <point x="1085" y="1204" name="ab01"/>
      <point x="1141" y="1018"/>
      <point x="1141" y="747" type="curve" smooth="yes" name="sv01"/>
      <point x="1141" y="484"/>
      <point x="1087" y="293" name="ah02"/>
      <point x="980" y="176" type="curve" smooth="yes"/>
      <point x="873" y="59" name="sv02"/>
      <point x="697" y="0" name="sh05"/>
      <point x="453" y="0" type="curve" smooth="yes" name="sv03"/>
      <point x="137" y="0" type="line"/>
    </contour>
    <contour>
      <point x="512" y="266" type="line" smooth="yes" name="sv04"/>
      <point x="628" y="266" name="sh04"/>
      <point x="711" y="303"/>
      <point x="760" y="376" type="curve" smooth="yes" name="ah01"/>
      <point x="809" y="449" name="sh06"/>
      <point x="834" y="573"/>
      <point x="834" y="748" type="curve" smooth="yes"/>
      <point x="834" y="921"/>
      <point x="809" y="1045"/>
      <point x="760" y="1118" type="curve" smooth="yes"/>
      <point x="711" y="1191"/>
      <point x="629" y="1227"/>
      <point x="512" y="1227" type="curve" smooth="yes"/>
      <point x="432" y="1227" type="line"/>
      <point x="432" y="901" type="line"/>
      <point x="643" y="901" type="line"/>
      <point x="643" y="664" type="line"/>
      <point x="432" y="664" type="line"/>
      <point x="432" y="266" type="line"/>
    </contour>
  </outline>
</glyph>
<glyph name="Ntilde" format="1">
  <advance width="1233"/>
  <unicode hex="00D1"/>
  <outline>
    <contour>
      <point x="268" y="1618" type="line" smooth="yes" name="hr00"/>
      <point x="268" y="1691"/>
      <point x="289" y="1750" name="sv01"/>
      <point x="322" y="1789" type="curve" smooth="yes"/>
      <point x="359" y="1833"/>
      <point x="411" y="1854"/>
      <point x="466" y="1854" type="curve" smooth="yes"/>
      <point x="491" y="1854"/>
      <point x="515" y="1850"/>
      <point x="539" y="1842" type="curve" smooth="yes" name="dv02"/>
      <point x="562" y="1834"/>
      <point x="589" y="1821"/>
      <point x="614" y="1805" type="curve" smooth="yes"/>
      <point x="674" y="1766" type="line" smooth="yes"/>
      <point x="685" y="1759" name="dv01"/>
      <point x="700" y="1752"/>
      <point x="715" y="1745" type="curve" smooth="yes"/>
      <point x="728" y="1740"/>
      <point x="738" y="1737"/>
      <point x="750" y="1737" type="curve" smooth="yes"/>
      <point x="774" y="1737"/>
      <point x="793" y="1747"/>
      <point x="806" y="1767" type="curve" smooth="yes"/>
      <point x="819" y="1786" name="sv02"/>
      <point x="825" y="1815"/>
      <point x="825" y="1854" type="curve" name="sh01"/>
      <point x="965" y="1854" type="line"/>
      <point x="965" y="1851" name="ah02"/>
      <point x="965" y="1846" name="at01"/>
      <point x="964" y="1839" type="curve" smooth="yes"/>
      <point x="964" y="1836" name="sh02"/>
      <point x="963" y="1838"/>
      <point x="963" y="1822" type="curve" smooth="yes" name="sh03"/>
      <point x="963" y="1755" name="ab01"/>
      <point x="945" y="1696"/>
      <point x="910" y="1653" type="curve" smooth="yes" name="ah01"/>
      <point x="871" y="1606" name="sh04"/>
      <point x="823" y="1588"/>
      <point x="768" y="1588" type="curve" smooth="yes"/>
      <point x="744" y="1588"/>
      <point x="720" y="1592"/>
      <point x="696" y="1599" type="curve" smooth="yes"/>
      <point x="669" y="1607"/>
      <point x="646" y="1618"/>
      <point x="618" y="1637" type="curve"/>
      <point x="564" y="1671" type="line" smooth="yes"/>
      <point x="559" y="1674"/>
      <point x="556" y="1676"/>
      <point x="556" y="1676" type="curve"/>
      <point x="556" y="1676"/>
      <point x="555" y="1677"/>
      <point x="552" y="1678" type="curve" smooth="yes"/>
      <point x="523" y="1694"/>
      <point x="500" y="1704"/>
      <point x="479" y="1704" type="curve" smooth="yes"/>
      <point x="458" y="1704"/>
      <point x="441" y="1694"/>
      <point x="428" y="1674" type="curve" smooth="yes"/>
      <point x="415" y="1653"/>
      <point x="408" y="1627"/>
      <point x="408" y="1594" type="curve" smooth="yes"/>
      <point x="408" y="1588" type="line"/>
      <point x="268" y="1588" type="line"/>
    </contour>
    <contour>
      <point x="119" y="1493" type="line"/>
      <point x="436" y="1493" type="line"/>
      <point x="852" y="408" type="line"/>
      <point x="852" y="1493" type="line"/>
      <point x="1112" y="1493" type="line"/>
      <point x="1112" y="0" type="line"/>
      <point x="797" y="0" type="line"/>
      <point x="379" y="1085" type="line"/>
      <point x="379" y="0" type="line"/>
      <point x="119" y="0" type="line"/>
    </contour>
  </outline>
</glyph>
<glyph name="Oacute" format="1">
  <advance width="1233"/>
  <unicode hex="00D3"/>
  <outline>
    <contour>
      <point x="668" y="1852" type="line" name="av01"/>
      <point x="952" y="1852" type="line" name="ih01"/>
      <point x="666" y="1588" type="line"/>
      <point x="469" y="1588" type="line" name="ih02"/>
    </contour>
    <contour>
      <point x="616" y="-29" type="curve" smooth="yes" name="dv01"/>
      <point x="436" y="-29"/>
      <point x="309" y="41" name="sh02"/>
      <point x="225" y="166" type="curve" smooth="yes"/>
      <point x="136" y="297" name="at01"/>
      <point x="92" y="490"/>
      <point x="92" y="745" type="curve" smooth="yes" name="sh01"/>
      <point x="92" y="1000"/>
      <point x="136" y="1192"/>
      <point x="225" y="1325" type="curve" smooth="yes" name="dv02"/>
      <point x="317" y="1461"/>
      <point x="453" y="1520" name="ah02"/>
      <point x="616" y="1520" type="curve" smooth="yes"/>
      <point x="791" y="1520" name="sv01"/>
      <point x="921" y="1453"/>
      <point x="1009" y="1324" type="curve" smooth="yes" name="sh03"/>
      <point x="1097" y="1193"/>
      <point x="1141" y="1000"/>
      <point x="1141" y="745" type="curve" smooth="yes" name="ah01"/>
      <point x="1141" y="490" name="sh04"/>
      <point x="1097" y="298"/>
      <point x="1009" y="167" type="curve" smooth="yes"/>
      <point x="924" y="40"/>
      <point x="795" y="-29"/>
    </contour>
    <contour>
      <point x="616" y="236" type="curve" smooth="yes"/>
      <point x="692" y="236"/>
      <point x="747" y="276"/>
      <point x="782" y="357" type="curve" smooth="yes"/>
      <point x="817" y="436"/>
      <point x="834" y="566"/>
      <point x="834" y="746" type="curve" smooth="yes"/>
      <point x="834" y="925"/>
      <point x="817" y="1055"/>
      <point x="782" y="1134" type="curve" smooth="yes"/>
      <point x="747" y="1215"/>
      <point x="692" y="1255"/>
      <point x="616" y="1255" type="curve" smooth="yes"/>
      <point x="537" y="1255"/>
      <point x="486" y="1214"/>
      <point x="451" y="1134" type="curve" smooth="yes"/>
      <point x="416" y="1054"/>
      <point x="399" y="934"/>
      <point x="399" y="747" type="curve" smooth="yes"/>
      <point x="399" y="566"/>
      <point x="416" y="436"/>
      <point x="451" y="357" type="curve" smooth="yes"/>
      <point x="486" y="276"/>
      <point x="541" y="236"/>
    </contour>
  </outline>
</glyph>
<glyph name="Odieresis" format="1">
  <advance width="1233"/>
  <unicode hex="00D6"/>
  <outline>
    <contour>
      <point x="331" y="1606" type="line" smooth="yes" name="dv03"/>
      <point x="311" y="1606" name="ih01"/>
      <point x="301" y="1616"/>
      <point x="301" y="1636" type="curve" smooth="yes" name="dv04"/>
      <point x="301" y="1822" type="line" smooth="yes"/>
      <point x="301" y="1842"/>
      <point x="311" y="1852" name="sh01"/>
      <point x="331" y="1852" type="curve" smooth="yes"/>
      <point x="507" y="1852" type="line" smooth="yes" name="sv01"/>
      <point x="527" y="1852" name="dh03"/>
      <point x="537" y="1842"/>
      <point x="537" y="1822" type="curve" smooth="yes" name="sv02"/>
      <point x="537" y="1636" type="line" smooth="yes"/>
      <point x="537" y="1616"/>
      <point x="527" y="1606" name="dh04"/>
      <point x="507" y="1606" type="curve" smooth="yes"/>
    </contour>
    <contour>
      <point x="726" y="1606" type="line" smooth="yes" name="dv01"/>
      <point x="706" y="1606"/>
      <point x="696" y="1616" name="dh01"/>
      <point x="696" y="1636" type="curve" smooth="yes"/>
      <point x="696" y="1822" type="line" smooth="yes" name="at01"/>
      <point x="696" y="1842"/>
      <point x="706" y="1852" name="sh02"/>
      <point x="726" y="1852" type="curve" smooth="yes"/>
      <point x="902" y="1852" type="line" smooth="yes"/>
      <point x="922" y="1852" name="dv02"/>
      <point x="932" y="1842"/>
      <point x="932" y="1822" type="curve" smooth="yes" name="ih02"/>
      <point x="932" y="1636" type="line" smooth="yes"/>
      <point x="932" y="1616" name="sv03"/>
      <point x="922" y="1606"/>
      <point x="902" y="1606" type="curve" smooth="yes" name="dh02"/>
    </contour>
    <contour>
      <point x="616" y="-29" type="curve" smooth="yes"/>
      <point x="436" y="-29"/>
      <point x="309" y="41"/>
      <point x="225" y="166" type="curve" smooth="yes" name="sh03"/>
      <point x="136" y="297"/>
      <point x="92" y="490"/>
      <point x="92" y="745" type="curve" smooth="yes"/>
      <point x="92" y="1000"/>
      <point x="136" y="1192"/>
      <point x="225" y="1325" type="curve" smooth="yes" name="hr01"/>
      <point x="317" y="1461"/>
      <point x="453" y="1520"/>
      <point x="616" y="1520" type="curve" smooth="yes"/>
      <point x="791" y="1520"/>
      <point x="921" y="1453"/>
      <point x="1009" y="1324" type="curve" smooth="yes"/>
      <point x="1097" y="1193"/>
      <point x="1141" y="1000"/>
      <point x="1141" y="745" type="curve" smooth="yes"/>
      <point x="1141" y="490"/>
      <point x="1097" y="298"/>
      <point x="1009" y="167" type="curve" smooth="yes"/>
      <point x="924" y="40"/>
      <point x="795" y="-29"/>
    </contour>
    <contour>
      <point x="616" y="236" type="curve" smooth="yes"/>
      <point x="692" y="236"/>
      <point x="747" y="276"/>
      <point x="782" y="357" type="curve" smooth="yes"/>
      <point x="817" y="436"/>
      <point x="834" y="566"/>
      <point x="834" y="746" type="curve" smooth="yes"/>
      <point x="834" y="925"/>
      <point x="817" y="1055"/>
      <point x="782" y="1134" type="curve" smooth="yes"/>
      <point x="747" y="1215"/>
      <point x="692" y="1255"/>
      <point x="616" y="1255" type="curve" smooth="yes"/>
      <point x="537" y="1255"/>
      <point x="486" y="1214"/>
      <point x="451" y="1134" type="curve" smooth="yes"/>
      <point x="416" y="1054"/>
      <point x="399" y="934"/>
      <point x="399" y="747" type="curve" smooth="yes"/>
      <point x="399" y="566"/>
      <point x="416" y="436"/>
      <point x="451" y="357" type="curve" smooth="yes"/>
      <point x="486" y="276"/>
      <point x="541" y="236"/>
    </contour>
  </outline>
</glyph>
<glyph name="Thorn" format="1">
  <advance width="1233"/>
  <unicode hex="00DE"/>
  <outline>
    <contour>
      <point x="162" y="1493" type="line" name="sh01"/>
      <point x="457" y="1493" type="line" name="sh02"/>
      <point x="457" y="1255" type="line"/>
      <point x="567" y="1255" type="line" smooth="yes" name="dv04"/>
      <point x="773" y="1255"/>
      <point x="921" y="1219" name="sh03"/>
      <point x="1012" y="1146" type="curve" smooth="yes"/>
      <point x="1103" y="1073" name="dv01"/>
      <point x="1147" y="952" name="sh04"/>
      <point x="1147" y="791" type="curve" smooth="yes" name="ab01"/>
      <point x="1147" y="630"/>
      <point x="1101" y="513" name="dv02"/>
      <point x="1010" y="441" type="curve" smooth="yes"/>
      <point x="917" y="366" name="ah02"/>
      <point x="770" y="332"/>
      <point x="567" y="332" type="curve" smooth="yes" name="dv03"/>
      <point x="457" y="332" type="line" name="sh05"/>
      <point x="457" y="0" type="line"/>
      <point x="162" y="0" type="line" name="ah01"/>
    </contour>
    <contour>
      <point x="578" y="575" type="line" smooth="yes" name="sh06"/>
      <point x="675" y="575"/>
      <point x="743" y="591"/>
      <point x="782" y="624" type="curve" smooth="yes"/>
      <point x="821" y="657"/>
      <point x="840" y="713"/>
      <point x="840" y="793" type="curve" smooth="yes"/>
      <point x="840" y="874"/>
      <point x="821" y="931"/>
      <point x="782" y="964" type="curve" smooth="yes"/>
      <point x="743" y="997"/>
      <point x="675" y="1014"/>
      <point x="578" y="1014" type="curve" smooth="yes"/>
      <point x="457" y="1014" type="line"/>
      <point x="457" y="575" type="line"/>
    </contour>
  </outline>
</glyph>
<glyph name="germandbls" format="1">
  <advance width="1233"/>
  <unicode hex="00DF"/>
  <outline>
    <contour>
      <point x="759" y="-29" type="curve" smooth="yes" name="dv01"/>
      <point x="716" y="-29"/>
      <point x="672" y="-25"/>
      <point x="633" y="-17" type="curve" smooth="yes" name="ih01"/>
      <point x="598" y="-10"/>
      <point x="549" y="4" name="dv02"/>
      <point x="504" y="20" type="curve"/>
      <point x="504" y="270" type="line" name="dh05"/>
      <point x="543" y="249"/>
      <point x="581" y="234"/>
      <point x="620" y="223" type="curve" smooth="yes"/>
      <point x="656" y="212"/>
      <point x="690" y="207" name="dh03"/>
      <point x="729" y="207" type="curve" smooth="yes"/>
      <point x="785" y="207"/>
      <point x="820" y="220"/>
      <point x="847" y="241" type="curve" smooth="yes" name="sv01"/>
      <point x="874" y="262"/>
      <point x="889" y="292"/>
      <point x="889" y="328" type="curve" smooth="yes" name="dh02"/>
      <point x="889" y="384" name="dh01"/>
      <point x="850" y="432"/>
      <point x="774" y="492" type="curve"/>
      <point x="752" y="508" name="at01"/>
      <point x="765" y="497"/>
      <point x="729" y="526" type="curve" smooth="yes"/>
      <point x="643" y="594" type="line" smooth="yes" name="sv02"/>
      <point x="604" y="625"/>
      <point x="574" y="663" name="dh04"/>
      <point x="554" y="706" type="curve" smooth="yes"/>
      <point x="534" y="748"/>
      <point x="524" y="795"/>
      <point x="524" y="847" type="curve" smooth="yes"/>
      <point x="524" y="930" name="dh06"/>
      <point x="549" y="1001"/>
      <point x="598" y="1058" type="curve" smooth="yes"/>
      <point x="650" y="1118"/>
      <point x="720" y="1153" name="sh01"/>
      <point x="809" y="1174" type="curve"/>
      <point x="802" y="1226"/>
      <point x="780" y="1264"/>
      <point x="751" y="1285" type="curve" smooth="yes" name="hr01"/>
      <point x="718" y="1309"/>
      <point x="670" y="1321"/>
      <point x="614" y="1321" type="curve" smooth="yes"/>
      <point x="553" y="1321"/>
      <point x="503" y="1307"/>
      <point x="468" y="1271" type="curve" smooth="yes"/>
      <point x="436" y="1237"/>
      <point x="420" y="1187"/>
      <point x="420" y="1122" type="curve" smooth="yes"/>
      <point x="420" y="0" type="line"/>
      <point x="127" y="0" type="line"/>
      <point x="127" y="1126" type="line" smooth="yes"/>
      <point x="127" y="1267"/>
      <point x="167" y="1374"/>
      <point x="248" y="1447" type="curve" smooth="yes"/>
      <point x="332" y="1523"/>
      <point x="449" y="1556"/>
      <point x="594" y="1556" type="curve" smooth="yes"/>
      <point x="750" y="1556"/>
      <point x="856" y="1518"/>
      <point x="928" y="1438" type="curve" smooth="yes"/>
      <point x="999" y="1359"/>
      <point x="1034" y="1238"/>
      <point x="1034" y="1073" type="curve" smooth="yes"/>
      <point x="1034" y="1059" type="line"/>
      <point x="938" y="1054"/>
      <point x="885" y="1035"/>
      <point x="846" y="1008" type="curve" smooth="yes"/>
      <point x="803" y="977"/>
      <point x="780" y="936"/>
      <point x="780" y="889" type="curve" smooth="yes"/>
      <point x="780" y="832"/>
      <point x="815" y="793"/>
      <point x="896" y="728" type="curve"/>
      <point x="913" y="713"/>
      <point x="914" y="714"/>
      <point x="915" y="713" type="curve" smooth="yes" name="hr02"/>
      <point x="1012" y="639" type="line" smooth="yes"/>
      <point x="1072" y="594"/>
      <point x="1107" y="552"/>
      <point x="1134" y="501" type="curve" smooth="yes"/>
      <point x="1159" y="453"/>
      <point x="1174" y="398"/>
      <point x="1174" y="330" type="curve" smooth="yes"/>
      <point x="1174" y="225"/>
      <point x="1139" y="132"/>
      <point x="1063" y="67" type="curve" smooth="yes"/>
      <point x="987" y="3"/>
      <point x="880" y="-29"/>
    </contour>
  </outline>
</glyph>
<glyph name="atilde" format="1">
  <advance width="1233"/>
  <unicode hex="00E3"/>
  <outline>
    <contour>
      <point x="768" y="1317" type="curve" smooth="yes" name="sv01"/>
      <point x="744" y="1317"/>
      <point x="721" y="1321"/>
      <point x="699" y="1329" type="curve" smooth="yes"/>
      <point x="677" y="1337"/>
      <point x="650" y="1352"/>
      <point x="618" y="1374" type="curve" smooth="yes" name="sh01"/>
      <point x="551" y="1419" type="line" smooth="yes" name="dv03"/>
      <point x="522" y="1438" name="sh02"/>
      <point x="500" y="1448"/>
      <point x="479" y="1448" type="curve" smooth="yes" name="av01"/>
      <point x="454" y="1448" name="av02"/>
      <point x="438" y="1436"/>
      <point x="427" y="1417" type="curve" smooth="yes"/>
      <point x="414" y="1396"/>
      <point x="408" y="1366"/>
      <point x="408" y="1327" type="curve" smooth="yes"/>
      <point x="408" y="1319" type="line" name="sh03"/>
      <point x="268" y="1319" type="line" name="dv04"/>
      <point x="268" y="1414" name="av03"/>
      <point x="287" y="1483"/>
      <point x="320" y="1530" type="curve" smooth="yes"/>
      <point x="351" y="1574" name="dv01"/>
      <point x="398" y="1603"/>
      <point x="465" y="1603" type="curve" smooth="yes" name="dh01"/>
      <point x="490" y="1603"/>
      <point x="514" y="1599"/>
      <point x="537" y="1590" type="curve" smooth="yes" name="dh03"/>
      <point x="564" y="1579"/>
      <point x="586" y="1566"/>
      <point x="614" y="1546" type="curve" smooth="yes" name="dv06"/>
      <point x="676" y="1503" type="line" smooth="yes" name="hr01"/>
      <point x="693" y="1491" name="ih01"/>
      <point x="701" y="1487"/>
      <point x="716" y="1480" type="curve" smooth="yes"/>
      <point x="729" y="1475" name="dv07"/>
      <point x="740" y="1472"/>
      <point x="751" y="1472" type="curve" smooth="yes" name="dh04"/>
      <point x="774" y="1472" name="sh04"/>
      <point x="793" y="1483" name="sh05"/>
      <point x="806" y="1504" type="curve" smooth="yes"/>
      <point x="819" y="1525"/>
      <point x="825" y="1554" name="ab01"/>
      <point x="825" y="1593" type="curve" smooth="yes"/>
      <point x="825" y="1601" type="line"/>
      <point x="965" y="1601" type="line" name="sh06"/>
      <point x="965" y="1510" name="ab02"/>
      <point x="948" y="1440"/>
      <point x="914" y="1391" type="curve" smooth="yes" name="dv02"/>
      <point x="882" y="1344"/>
      <point x="833" y="1317" name="sh07"/>
    </contour>
    <contour>
      <point x="494" y="-29" type="curve" smooth="yes"/>
      <point x="373" y="-29"/>
      <point x="274" y="4" name="dh02"/>
      <point x="202" y="72" type="curve" smooth="yes"/>
      <point x="131" y="139"/>
      <point x="95" y="233"/>
      <point x="95" y="354" type="curve" smooth="yes" name="sh08"/>
      <point x="95" y="482"/>
      <point x="134" y="580"/>
      <point x="222" y="644" type="curve" smooth="yes"/>
      <point x="307" y="706"/>
      <point x="438" y="737"/>
      <point x="615" y="737" type="curve" smooth="yes"/>
      <point x="818" y="737" type="line"/>
      <point x="818" y="786" type="line" smooth="yes"/>
      <point x="818" y="835"/>
      <point x="799" y="871"/>
      <point x="767" y="894" type="curve" smooth="yes"/>
      <point x="732" y="919"/>
      <point x="679" y="930"/>
      <point x="610" y="930" type="curve" smooth="yes"/>
      <point x="546" y="930"/>
      <point x="477" y="921"/>
      <point x="412" y="904" type="curve" smooth="yes"/>
      <point x="348" y="887"/>
      <point x="278" y="858"/>
      <point x="206" y="819" type="curve"/>
      <point x="206" y="1069" type="line"/>
      <point x="262" y="1092"/>
      <point x="336" y="1116"/>
      <point x="403" y="1128" type="curve" name="hr02"/>
      <point x="458" y="1139"/>
      <point x="540" y="1148"/>
      <point x="628" y="1148" type="curve" smooth="yes"/>
      <point x="815" y="1148"/>
      <point x="927" y="1102"/>
      <point x="997" y="1035" type="curve"/>
      <point x="1069" y="963"/>
      <point x="1109" y="852"/>
      <point x="1109" y="644" type="curve" smooth="yes"/>
      <point x="1109" y="570"/>
      <point x="1104" y="323"/>
      <point x="1104" y="274" type="curve" smooth="yes"/>
      <point x="1104" y="246"/>
      <point x="1105" y="216"/>
      <point x="1106" y="197" type="curve"/>
      <point x="1109" y="170"/>
      <point x="1110" y="142"/>
      <point x="1113" y="125" type="curve" smooth="yes"/>
      <point x="1117" y="98"/>
      <point x="1123" y="71"/>
      <point x="1127" y="58" type="curve" smooth="yes"/>
      <point x="1134" y="38"/>
      <point x="1144" y="15"/>
      <point x="1155" y="0" type="curve"/>
      <point x="865" y="0" type="line"/>
      <point x="853" y="20"/>
      <point x="842" y="43"/>
      <point x="837" y="58" type="curve" smooth="yes"/>
      <point x="833" y="71"/>
      <point x="827" y="98"/>
      <point x="824" y="125" type="curve"/>
      <point x="787" y="76"/>
      <point x="740" y="38"/>
      <point x="682" y="11" type="curve" smooth="yes" name="hr03"/>
      <point x="626" y="-16"/>
      <point x="570" y="-29"/>
    </contour>
    <contour>
      <point x="576" y="174" type="curve" smooth="yes" name="hr04"/>
      <point x="651" y="174"/>
      <point x="711" y="202"/>
      <point x="754" y="262" type="curve"/>
      <point x="797" y="319"/>
      <point x="818" y="401"/>
      <point x="818" y="506" type="curve" smooth="yes"/>
      <point x="818" y="526" type="line"/>
      <point x="701" y="526" type="line" smooth="yes"/>
      <point x="591" y="526"/>
      <point x="515" y="512"/>
      <point x="472" y="484" type="curve" smooth="yes"/>
      <point x="429" y="456"/>
      <point x="407" y="409"/>
      <point x="407" y="342" type="curve" smooth="yes"/>
      <point x="407" y="287"/>
      <point x="421" y="250"/>
      <point x="452" y="219" type="curve" smooth="yes"/>
      <point x="482" y="189"/>
      <point x="523" y="174"/>
    </contour>
  </outline>
</glyph>
<glyph name="aring" format="1">
  <advance width="1233"/>
  <unicode hex="00E5"/>
  <outline>
    <contour>
      <point x="617" y="1249" type="curve" smooth="yes"/>
      <point x="693" y="1249"/>
      <point x="763" y="1277" name="dh04"/>
      <point x="819" y="1333" type="curve" smooth="yes"/>
      <point x="874" y="1389" name="dv04"/>
      <point x="901" y="1458"/>
      <point x="901" y="1534" type="curve" smooth="yes" name="ih01"/>
      <point x="901" y="1618"/>
      <point x="866" y="1689" name="dv06"/>
      <point x="818" y="1737" type="curve" smooth="yes" name="hr01"/>
      <point x="769" y="1786"/>
      <point x="699" y="1819" name="sh01"/>
      <point x="616" y="1819" type="curve" smooth="yes"/>
      <point x="540" y="1819" name="dv03"/>
      <point x="470" y="1792"/>
      <point x="415" y="1737" type="curve" smooth="yes" name="dh03"/>
      <point x="368" y="1690"/>
      <point x="332" y="1620" name="dv07"/>
      <point x="332" y="1535" type="curve" smooth="yes"/>
      <point x="332" y="1451" name="ab02"/>
      <point x="367" y="1379" name="sh05"/>
      <point x="414" y="1332" type="curve" smooth="yes"/>
      <point x="469" y="1277"/>
      <point x="541" y="1249" name="ab01"/>
    </contour>
    <contour>
      <point x="617" y="1403" type="curve" smooth="yes"/>
      <point x="577" y="1403" name="sh04"/>
      <point x="544" y="1420" name="sh03"/>
      <point x="523" y="1441" type="curve" smooth="yes" name="sh02"/>
      <point x="498" y="1466"/>
      <point x="485" y="1497" name="dv09"/>
      <point x="485" y="1534" type="curve" smooth="yes"/>
      <point x="485" y="1570"/>
      <point x="498" y="1601" name="ih03"/>
      <point x="524" y="1627" type="curve" smooth="yes"/>
      <point x="549" y="1652" name="dv08"/>
      <point x="580" y="1665"/>
      <point x="616" y="1665" type="curve" smooth="yes"/>
      <point x="651" y="1665" name="ih02"/>
      <point x="682" y="1652"/>
      <point x="709" y="1627" type="curve"/>
      <point x="735" y="1601" name="dh01"/>
      <point x="748" y="1570"/>
      <point x="748" y="1534" type="curve" smooth="yes" name="dv01"/>
      <point x="748" y="1498"/>
      <point x="735" y="1467"/>
      <point x="710" y="1442" type="curve" smooth="yes" name="dh02"/>
      <point x="684" y="1416"/>
      <point x="653" y="1403"/>
    </contour>
    <contour>
      <point x="494" y="-29" type="curve" smooth="yes" name="sh06"/>
      <point x="570" y="-29"/>
      <point x="626" y="-16" name="dv02"/>
      <point x="682" y="11" type="curve" smooth="yes"/>
      <point x="740" y="38" name="sh07"/>
      <point x="787" y="76"/>
      <point x="824" y="125" type="curve"/>
      <point x="827" y="98"/>
      <point x="833" y="71"/>
      <point x="837" y="58" type="curve" smooth="yes"/>
      <point x="842" y="43"/>
      <point x="853" y="20"/>
      <point x="865" y="0" type="curve" name="hr03"/>
      <point x="1155" y="0" type="line"/>
      <point x="1144" y="15"/>
      <point x="1134" y="38"/>
      <point x="1127" y="58" type="curve" smooth="yes"/>
      <point x="1123" y="71"/>
      <point x="1117" y="98"/>
      <point x="1113" y="125" type="curve" smooth="yes"/>
      <point x="1110" y="142"/>
      <point x="1109" y="170"/>
      <point x="1106" y="197" type="curve"/>
      <point x="1105" y="216"/>
      <point x="1104" y="246"/>
      <point x="1104" y="274" type="curve" smooth="yes"/>
      <point x="1104" y="323"/>
      <point x="1109" y="570"/>
      <point x="1109" y="644" type="curve" smooth="yes"/>
      <point x="1109" y="852"/>
      <point x="1069" y="963"/>
      <point x="997" y="1035" type="curve"/>
      <point x="927" y="1102"/>
      <point x="815" y="1148"/>
      <point x="628" y="1148" type="curve" smooth="yes"/>
      <point x="540" y="1148"/>
      <point x="458" y="1139"/>
      <point x="403" y="1128" type="curve"/>
      <point x="336" y="1116"/>
      <point x="262" y="1092"/>
      <point x="206" y="1069" type="curve"/>
      <point x="206" y="819" type="line"/>
      <point x="278" y="858"/>
      <point x="348" y="887"/>
      <point x="412" y="904" type="curve" smooth="yes"/>
      <point x="477" y="921"/>
      <point x="546" y="930"/>
      <point x="610" y="930" type="curve" smooth="yes"/>
      <point x="679" y="930"/>
      <point x="732" y="919"/>
      <point x="767" y="894" type="curve" smooth="yes"/>
      <point x="799" y="871"/>
      <point x="818" y="835"/>
      <point x="818" y="786" type="curve" smooth="yes"/>
      <point x="818" y="737" type="line"/>
      <point x="615" y="737" type="line" smooth="yes"/>
      <point x="438" y="737"/>
      <point x="307" y="706"/>
      <point x="222" y="644" type="curve" smooth="yes"/>
      <point x="134" y="580"/>
      <point x="95" y="482"/>
      <point x="95" y="354" type="curve" smooth="yes"/>
      <point x="95" y="233"/>
      <point x="131" y="139"/>
      <point x="202" y="72" type="curve" smooth="yes"/>
      <point x="274" y="4"/>
      <point x="373" y="-29"/>
    </contour>
    <contour>
      <point x="576" y="174" type="curve" smooth="yes"/>
      <point x="523" y="174"/>
      <point x="482" y="189"/>
      <point x="452" y="219" type="curve" smooth="yes"/>
      <point x="421" y="250"/>
      <point x="407" y="287"/>
      <point x="407" y="342" type="curve" smooth="yes"/>
      <point x="407" y="409"/>
      <point x="429" y="456"/>
      <point x="472" y="484" type="curve" smooth="yes"/>
      <point x="515" y="512"/>
      <point x="591" y="526"/>
      <point x="701" y="526" type="curve" smooth="yes"/>
      <point x="818" y="526" type="line"/>
      <point x="818" y="506" type="line" smooth="yes"/>
      <point x="818" y="401"/>
      <point x="797" y="319"/>
      <point x="754" y="262" type="curve"/>
      <point x="711" y="202"/>
      <point x="651" y="174"/>
    </contour>
  </outline>
</glyph>
<glyph name="ae" format="1">
  <advance width="1233"/>
  <unicode hex="00E6"/>
  <outline>
    <contour>
      <point x="346" y="-29" type="curve" smooth="yes" name="dv01"/>
      <point x="241" y="-29"/>
      <point x="159" y="2" name="dh01"/>
      <point x="101" y="63" type="curve" smooth="yes"/>
      <point x="43" y="125"/>
      <point x="14" y="213" name="dh03"/>
      <point x="14" y="326" type="curve" smooth="yes"/>
      <point x="14" y="449"/>
      <point x="48" y="542" name="sv01"/>
      <point x="115" y="603" type="curve" smooth="yes"/>
      <point x="182" y="664" name="ih01"/>
      <point x="283" y="694"/>
      <point x="420" y="694" type="curve" smooth="yes"/>
      <point x="496" y="694" type="line" name="at01"/>
      <point x="496" y="745" type="line" smooth="yes"/>
      <point x="496" y="807" name="ih02"/>
      <point x="483" y="854"/>
      <point x="457" y="885" type="curve" smooth="yes" name="at02"/>
      <point x="431" y="916"/>
      <point x="393" y="932"/>
      <point x="343" y="932" type="curve" smooth="yes"/>
      <point x="300" y="932" name="sh01"/>
      <point x="257" y="921"/>
      <point x="218" y="905" type="curve" smooth="yes" name="sv02"/>
      <point x="179" y="889"/>
      <point x="128" y="862" name="dh06"/>
      <point x="76" y="823" type="curve"/>
      <point x="76" y="1069" type="line"/>
      <point x="126" y="1096" name="sv03"/>
      <point x="174" y="1115"/>
      <point x="220" y="1128" type="curve" smooth="yes" name="ih03"/>
      <point x="266" y="1141"/>
      <point x="312" y="1147"/>
      <point x="357" y="1147" type="curve" smooth="yes" name="dh05"/>
      <point x="418" y="1147"/>
      <point x="472" y="1137"/>
      <point x="515" y="1116" type="curve" smooth="yes" name="sv04"/>
      <point x="556" y="1095"/>
      <point x="589" y="1063"/>
      <point x="612" y="1020" type="curve" name="dh04"/>
      <point x="631" y="1061" name="dv02"/>
      <point x="662" y="1092"/>
      <point x="707" y="1114" type="curve" smooth="yes" name="sh02"/>
      <point x="751" y="1136" name="sv05"/>
      <point x="804" y="1147"/>
      <point x="865" y="1147" type="curve" smooth="yes"/>
      <point x="986" y="1147" name="dh02"/>
      <point x="1065" y="1108"/>
      <point x="1114" y="1028" type="curve" smooth="yes"/>
      <point x="1161" y="952"/>
      <point x="1188" y="828" name="sh03"/>
      <point x="1188" y="606" type="curve" smooth="yes"/>
      <point x="1188" y="479" type="line"/>
      <point x="737" y="479" type="line"/>
      <point x="737" y="384"/>
      <point x="754" y="311"/>
      <point x="787" y="260" type="curve" smooth="yes"/>
      <point x="818" y="213"/>
      <point x="863" y="184"/>
      <point x="932" y="184" type="curve" smooth="yes"/>
      <point x="977" y="184"/>
      <point x="1015" y="195"/>
      <point x="1052" y="214" type="curve" smooth="yes"/>
      <point x="1087" y="231"/>
      <point x="1126" y="256"/>
      <point x="1171" y="301" type="curve"/>
      <point x="1171" y="57" type="line"/>
      <point x="1138" y="28"/>
      <point x="1100" y="6"/>
      <point x="1059" y="-8" type="curve" smooth="yes"/>
      <point x="1016" y="-23"/>
      <point x="967" y="-29"/>
      <point x="916" y="-29" type="curve" smooth="yes"/>
      <point x="843" y="-29"/>
      <point x="786" y="-15"/>
      <point x="735" y="13" type="curve" smooth="yes"/>
      <point x="685" y="41"/>
      <point x="646" y="82"/>
      <point x="618" y="135" type="curve"/>
      <point x="591" y="79"/>
      <point x="555" y="38"/>
      <point x="512" y="11" type="curve" smooth="yes"/>
      <point x="469" y="-16"/>
      <point x="413" y="-29"/>
    </contour>
    <contour>
      <point x="963" y="690" type="line"/>
      <point x="963" y="713" type="line" smooth="yes"/>
      <point x="963" y="797"/>
      <point x="955" y="854"/>
      <point x="938" y="885" type="curve" smooth="yes"/>
      <point x="921" y="916"/>
      <point x="891" y="932"/>
      <point x="850" y="932" type="curve" smooth="yes"/>
      <point x="809" y="932"/>
      <point x="779" y="916"/>
      <point x="762" y="885" type="curve" smooth="yes"/>
      <point x="745" y="854"/>
      <point x="737" y="797"/>
      <point x="737" y="713" type="curve" smooth="yes"/>
      <point x="737" y="690" type="line"/>
    </contour>
    <contour>
      <point x="365" y="184" type="curve" smooth="yes"/>
      <point x="407" y="184"/>
      <point x="438" y="198"/>
      <point x="459" y="227" type="curve" smooth="yes"/>
      <point x="479" y="256"/>
      <point x="489" y="299"/>
      <point x="489" y="358" type="curve" smooth="yes"/>
      <point x="489" y="483" type="line"/>
      <point x="416" y="483" type="line" smooth="yes"/>
      <point x="359" y="483"/>
      <point x="315" y="470"/>
      <point x="285" y="444" type="curve" smooth="yes"/>
      <point x="255" y="418"/>
      <point x="240" y="380"/>
      <point x="240" y="329" type="curve" smooth="yes"/>
      <point x="240" y="283"/>
      <point x="251" y="247"/>
      <point x="272" y="222" type="curve" smooth="yes"/>
      <point x="293" y="197"/>
      <point x="324" y="184"/>
    </contour>
  </outline>
</glyph>
<glyph name="ccedilla" format="1">
  <advance width="1233"/>
  <unicode hex="00E7"/>
  <outline>
    <contour>
      <point x="761" y="909" type="curve" smooth="yes" name="dv03"/>
      <point x="661" y="909"/>
      <point x="591" y="877" name="dh02"/>
      <point x="542" y="818" type="curve" smooth="yes"/>
      <point x="491" y="757" name="sv01"/>
      <point x="465" y="670"/>
      <point x="465" y="559" type="curve" smooth="yes"/>
      <point x="465" y="448"/>
      <point x="491" y="362"/>
      <point x="542" y="301" type="curve" smooth="yes" name="ih02"/>
      <point x="593" y="241"/>
      <point x="666" y="211" name="sh01"/>
      <point x="762" y="211" type="curve" smooth="yes"/>
      <point x="818" y="211" name="dv01"/>
      <point x="871" y="221" name="sv02"/>
      <point x="921" y="240" type="curve" smooth="yes"/>
      <point x="964" y="256" name="ih01"/>
      <point x="1014" y="283"/>
      <point x="1061" y="326" type="curve" name="dv02"/>
      <point x="1061" y="57" type="line"/>
      <point x="1008" y="26"/>
      <point x="958" y="8"/>
      <point x="902" y="-7" type="curve" smooth="yes" name="ab01"/>
      <point x="869" y="-15"/>
      <point x="835" y="-21" name="dh01"/>
      <point x="801" y="-25" type="curve"/>
      <point x="830" y="-60" name="dv04"/>
      <point x="851" y="-91"/>
      <point x="864" y="-115" type="curve" smooth="yes"/>
      <point x="882" y="-149"/>
      <point x="891" y="-184"/>
      <point x="891" y="-221" type="curve" smooth="yes"/>
      <point x="891" y="-282"/>
      <point x="868" y="-327"/>
      <point x="829" y="-356" type="curve" smooth="yes"/>
      <point x="794" y="-383"/>
      <point x="740" y="-401"/>
      <point x="643" y="-401" type="curve" smooth="yes"/>
      <point x="611" y="-401"/>
      <point x="576" y="-399"/>
      <point x="543" y="-395" type="curve" smooth="yes"/>
      <point x="492" y="-388"/>
      <point x="470" y="-382"/>
      <point x="439" y="-375" type="curve" name="hr01"/>
      <point x="439" y="-219" type="line"/>
      <point x="470" y="-230"/>
      <point x="498" y="-238"/>
      <point x="526" y="-245" type="curve" smooth="yes"/>
      <point x="554" y="-251"/>
      <point x="580" y="-254"/>
      <point x="604" y="-254" type="curve" smooth="yes"/>
      <point x="642" y="-254"/>
      <point x="672" y="-246"/>
      <point x="695" y="-231" type="curve" smooth="yes"/>
      <point x="716" y="-216"/>
      <point x="727" y="-195"/>
      <point x="727" y="-170" type="curve" smooth="yes"/>
      <point x="727" y="-151"/>
      <point x="720" y="-128"/>
      <point x="706" y="-101" type="curve" smooth="yes"/>
      <point x="695" y="-80"/>
      <point x="680" y="-55"/>
      <point x="659" y="-27" type="curve"/>
      <point x="512" y="-16"/>
      <point x="399" y="35"/>
      <point x="314" y="127" type="curve" smooth="yes"/>
      <point x="217" y="232"/>
      <point x="168" y="376"/>
      <point x="168" y="559" type="curve" smooth="yes"/>
      <point x="168" y="743"/>
      <point x="217" y="888"/>
      <point x="315" y="993" type="curve" smooth="yes"/>
      <point x="413" y="1097"/>
      <point x="548" y="1149"/>
      <point x="719" y="1149" type="curve" smooth="yes"/>
      <point x="780" y="1149"/>
      <point x="839" y="1142"/>
      <point x="895" y="1128" type="curve" smooth="yes"/>
      <point x="950" y="1114"/>
      <point x="1006" y="1092"/>
      <point x="1061" y="1063" type="curve"/>
      <point x="1061" y="795" type="line" name="hr02"/>
      <point x="1018" y="832"/>
      <point x="968" y="861"/>
      <point x="921" y="880" type="curve" smooth="yes"/>
      <point x="874" y="899"/>
      <point x="818" y="909"/>
    </contour>
  </outline>
</glyph>
<glyph name="edieresis" format="1">
  <advance width="1233"/>
  <unicode hex="00EB"/>
  <outline>
    <contour>
      <point x="360" y="1349" type="line" smooth="yes" name="dv03"/>
      <point x="340" y="1349" name="sh01"/>
      <point x="330" y="1359"/>
      <point x="330" y="1379" type="curve" smooth="yes" name="dv04"/>
      <point x="330" y="1565" type="line" smooth="yes"/>
      <point x="330" y="1585"/>
      <point x="340" y="1595" name="sh02"/>
      <point x="360" y="1595" type="curve" smooth="yes"/>
      <point x="536" y="1595" type="line" smooth="yes" name="sv01"/>
      <point x="556" y="1595" name="ah02"/>
      <point x="566" y="1585"/>
      <point x="566" y="1565" type="curve" smooth="yes" name="sv02"/>
      <point x="566" y="1379" type="line" smooth="yes"/>
      <point x="566" y="1359"/>
      <point x="556" y="1349" name="sh03"/>
      <point x="536" y="1349" type="curve" smooth="yes"/>
    </contour>
    <contour>
      <point x="755" y="1349" type="line" smooth="yes" name="dv01"/>
      <point x="735" y="1349"/>
      <point x="725" y="1359"/>
      <point x="725" y="1379" type="curve" smooth="yes"/>
      <point x="725" y="1565" type="line" smooth="yes" name="at01"/>
      <point x="725" y="1585"/>
      <point x="735" y="1595"/>
      <point x="755" y="1595" type="curve" smooth="yes"/>
      <point x="931" y="1595" type="line" smooth="yes" name="dv05"/>
      <point x="951" y="1595"/>
      <point x="961" y="1585" name="dv02"/>
      <point x="961" y="1565" type="curve" smooth="yes"/>
      <point x="961" y="1379" type="line" smooth="yes"/>
      <point x="961" y="1359"/>
      <point x="951" y="1349"/>
      <point x="931" y="1349" type="curve" smooth="yes"/>
    </contour>
    <contour>
      <point x="665" y="-29" type="curve" smooth="yes"/>
      <point x="470" y="-29"/>
      <point x="331" y="21" name="sv03"/>
      <point x="231" y="122" type="curve" smooth="yes"/>
      <point x="132" y="223" name="dv06"/>
      <point x="82" y="367" name="ah01"/>
      <point x="82" y="554" type="curve" smooth="yes" name="sh04"/>
      <point x="82" y="741"/>
      <point x="129" y="881"/>
      <point x="225" y="988" type="curve" smooth="yes"/>
      <point x="320" y="1094"/>
      <point x="450" y="1147"/>
      <point x="617" y="1147" type="curve" smooth="yes"/>
      <point x="774" y="1147"/>
      <point x="907" y="1101"/>
      <point x="1002" y="1000" type="curve" smooth="yes"/>
      <point x="1097" y="899"/>
      <point x="1139" y="756"/>
      <point x="1139" y="584" type="curve" smooth="yes"/>
      <point x="1139" y="465" type="line"/>
      <point x="380" y="465" type="line"/>
      <point x="381" y="376"/>
      <point x="407" y="311"/>
      <point x="458" y="268" type="curve" smooth="yes"/>
      <point x="509" y="225"/>
      <point x="586" y="203"/>
      <point x="687" y="203" type="curve" smooth="yes"/>
      <point x="754" y="203"/>
      <point x="821" y="213"/>
      <point x="887" y="232" type="curve"/>
      <point x="948" y="251"/>
      <point x="1016" y="279"/>
      <point x="1092" y="324" type="curve"/>
      <point x="1092" y="55" type="line"/>
      <point x="1024" y="27"/>
      <point x="955" y="6"/>
      <point x="884" y="-8" type="curve" smooth="yes"/>
      <point x="812" y="-23"/>
      <point x="737" y="-29"/>
    </contour>
    <contour>
      <point x="844" y="685" type="line"/>
      <point x="843" y="763"/>
      <point x="823" y="822"/>
      <point x="785" y="861" type="curve" smooth="yes"/>
      <point x="749" y="898"/>
      <point x="692" y="920"/>
      <point x="617" y="920" type="curve" smooth="yes"/>
      <point x="548" y="920"/>
      <point x="494" y="900"/>
      <point x="454" y="859" type="curve" smooth="yes"/>
      <point x="414" y="818"/>
      <point x="390" y="759"/>
      <point x="383" y="684" type="curve"/>
    </contour>
  </outline>
</glyph>
<glyph name="icircumflex" format="1">
  <advance width="1233"/>
  <unicode hex="00EE"/>
  <outline>
    <contour>
      <point x="440" y="1673" type="line" name="av01"/>
      <point x="681" y="1673" type="line"/>
      <point x="937" y="1297" type="line" name="iv01"/>
      <point x="759" y="1297" type="line"/>
      <point x="560" y="1522" type="line"/>
      <point x="362" y="1297" type="line"/>
      <point x="184" y="1297" type="line" name="iv02"/>
    </contour>
    <contour>
      <point x="812" y="-12" type="line" smooth="yes" name="ab01"/>
      <point x="673" y="-12"/>
      <point x="573" y="24" name="dh01"/>
      <point x="512" y="96" type="curve" smooth="yes" name="sv01"/>
      <point x="451" y="167"/>
      <point x="421" y="287" name="at01"/>
      <point x="421" y="455" type="curve" smooth="yes"/>
      <point x="421" y="895" type="line" name="dh02"/>
      <point x="184" y="895" type="line"/>
      <point x="184" y="1120" type="line" name="sv02"/>
      <point x="714" y="1120" type="line"/>
      <point x="714" y="455" type="line" smooth="yes"/>
      <point x="714" y="368"/>
      <point x="728" y="305"/>
      <point x="755" y="268" type="curve" smooth="yes"/>
      <point x="782" y="231"/>
      <point x="828" y="213"/>
      <point x="894" y="213" type="curve" smooth="yes"/>
      <point x="1128" y="213" type="line"/>
      <point x="1128" y="-12" type="line"/>
    </contour>
  </outline>
</glyph>
<glyph name="idieresis" format="1">
  <advance width="1233"/>
  <unicode hex="00EF"/>
  <outline>
    <contour>
      <point x="261" y="1347" type="line" smooth="yes" name="sv01"/>
      <point x="241" y="1347" name="dh01"/>
      <point x="231" y="1357"/>
      <point x="231" y="1377" type="curve" smooth="yes" name="at01"/>
      <point x="231" y="1563" type="line" smooth="yes"/>
      <point x="231" y="1583"/>
      <point x="241" y="1593" name="dh02"/>
      <point x="261" y="1593" type="curve" smooth="yes"/>
      <point x="437" y="1593" type="line" smooth="yes" name="sv02"/>
      <point x="457" y="1593" name="dh03"/>
      <point x="467" y="1583"/>
      <point x="467" y="1563" type="curve" smooth="yes" name="at02"/>
      <point x="467" y="1377" type="line" smooth="yes"/>
      <point x="467" y="1357"/>
      <point x="457" y="1347" name="dh04"/>
      <point x="437" y="1347" type="curve" smooth="yes" name="sv03"/>
    </contour>
    <contour>
      <point x="656" y="1347" type="line" smooth="yes" name="ab01"/>
      <point x="636" y="1347"/>
      <point x="626" y="1357" name="ih01"/>
      <point x="626" y="1377" type="curve" smooth="yes" name="sv04"/>
      <point x="626" y="1563" type="line" smooth="yes"/>
      <point x="626" y="1583" name="at03"/>
      <point x="636" y="1593"/>
      <point x="656" y="1593" type="curve" smooth="yes" name="sh01"/>
      <point x="832" y="1593" type="line" smooth="yes"/>
      <point x="852" y="1593" name="sv05"/>
      <point x="862" y="1583"/>
      <point x="862" y="1563" type="curve" smooth="yes" name="hr01"/>
      <point x="862" y="1377" type="line" smooth="yes"/>
      <point x="862" y="1357"/>
      <point x="852" y="1347"/>
      <point x="832" y="1347" type="curve" smooth="yes"/>
    </contour>
    <contour>
      <point x="812" y="-12" type="line" smooth="yes"/>
      <point x="673" y="-12"/>
      <point x="573" y="24"/>
      <point x="512" y="96" type="curve" smooth="yes"/>
      <point x="451" y="167"/>
      <point x="421" y="287"/>
      <point x="421" y="455" type="curve" smooth="yes"/>
      <point x="421" y="895" type="line"/>
      <point x="184" y="895" type="line"/>
      <point x="184" y="1120" type="line"/>
      <point x="714" y="1120" type="line"/>
      <point x="714" y="455" type="line" smooth="yes"/>
      <point x="714" y="368"/>
      <point x="728" y="305"/>
      <point x="755" y="268" type="curve" smooth="yes"/>
      <point x="782" y="231"/>
      <point x="828" y="213"/>
      <point x="894" y="213" type="curve" smooth="yes"/>
      <point x="1128" y="213" type="line"/>
      <point x="1128" y="-12" type="line"/>
    </contour>
  </outline>
</glyph>
<glyph name="eth" format="1">
  <advance width="1233"/>
  <unicode hex="00F0"/>
  <outline>
    <contour>
      <point x="613" y="-29" type="curve" smooth="yes" name="dv01"/>
      <point x="446" y="-29"/>
      <point x="321" y="29" name="sh01"/>
      <point x="236" y="124" type="curve" smooth="yes"/>
      <point x="144" y="227" name="dv04"/>
      <point x="98" y="367"/>
      <point x="98" y="534" type="curve" smooth="yes" name="ih01"/>
      <point x="98" y="693"/>
      <point x="141" y="820"/>
      <point x="227" y="913" type="curve" smooth="yes"/>
      <point x="308" y="1001" name="ih02"/>
      <point x="425" y="1053" name="ih03"/>
      <point x="574" y="1053" type="curve" smooth="yes"/>
      <point x="601" y="1053"/>
      <point x="626" y="1051" name="at01"/>
      <point x="647" y="1047" type="curve" smooth="yes"/>
      <point x="668" y="1043"/>
      <point x="688" y="1037"/>
      <point x="705" y="1028" type="curve"/>
      <point x="545" y="1247" type="line" name="sh02"/>
      <point x="233" y="1128" type="line"/>
      <point x="178" y="1245" type="line"/>
      <point x="461" y="1354" type="line" name="dv02"/>
      <point x="303" y="1556" type="line"/>
      <point x="596" y="1556" type="line" name="ah02"/>
      <point x="688" y="1440" type="line" name="sh04"/>
      <point x="985" y="1567" type="line"/>
      <point x="1051" y="1444" type="line"/>
      <point x="774" y="1327" type="line" name="dv03"/>
      <point x="940" y="1100" type="line" smooth="yes"/>
      <point x="1008" y="1007" name="sh03"/>
      <point x="1054" y="921"/>
      <point x="1083" y="837" type="curve" smooth="yes"/>
      <point x="1112" y="753" name="ah01"/>
      <point x="1126" y="660" name="sh05"/>
      <point x="1126" y="559" type="curve" smooth="yes"/>
      <point x="1126" y="376"/>
      <point x="1080" y="230"/>
      <point x="991" y="127" type="curve" smooth="yes"/>
      <point x="902" y="24"/>
      <point x="773" y="-29"/>
    </contour>
    <contour>
      <point x="613" y="209" type="curve" smooth="yes"/>
      <point x="689" y="209"/>
      <point x="744" y="244"/>
      <point x="779" y="300" type="curve" smooth="yes"/>
      <point x="818" y="360"/>
      <point x="836" y="451"/>
      <point x="836" y="556" type="curve" smooth="yes"/>
      <point x="836" y="591"/>
      <point x="834" y="628"/>
      <point x="830" y="657" type="curve" smooth="yes"/>
      <point x="827" y="680"/>
      <point x="819" y="724"/>
      <point x="811" y="760" type="curve"/>
      <point x="767" y="784"/>
      <point x="738" y="794"/>
      <point x="713" y="801" type="curve" smooth="yes"/>
      <point x="679" y="810"/>
      <point x="647" y="815"/>
      <point x="617" y="815" type="curve" smooth="yes"/>
      <point x="548" y="815"/>
      <point x="489" y="790"/>
      <point x="449" y="743" type="curve" smooth="yes"/>
      <point x="410" y="696"/>
      <point x="389" y="630"/>
      <point x="389" y="535" type="curve" smooth="yes"/>
      <point x="389" y="439"/>
      <point x="410" y="355"/>
      <point x="449" y="298" type="curve" smooth="yes"/>
      <point x="488" y="239"/>
      <point x="543" y="209"/>
    </contour>
  </outline>
</glyph>
<glyph name="ntilde" format="1">
  <advance width="1233"/>
  <unicode hex="00F1"/>
  <outline>
    <contour>
      <point x="768" y="1297" type="curve" smooth="yes" name="sh01"/>
      <point x="744" y="1297"/>
      <point x="721" y="1301"/>
      <point x="699" y="1309" type="curve" smooth="yes"/>
      <point x="677" y="1317"/>
      <point x="650" y="1332"/>
      <point x="618" y="1354" type="curve" smooth="yes"/>
      <point x="551" y="1399" type="line" smooth="yes" name="dv01"/>
      <point x="522" y="1418"/>
      <point x="500" y="1428"/>
      <point x="479" y="1428" type="curve" smooth="yes" name="sh04"/>
      <point x="454" y="1428" name="av01"/>
      <point x="438" y="1416"/>
      <point x="427" y="1397" type="curve" smooth="yes"/>
      <point x="414" y="1376"/>
      <point x="408" y="1346"/>
      <point x="408" y="1307" type="curve" smooth="yes"/>
      <point x="408" y="1299" type="line" name="av02"/>
      <point x="268" y="1299" type="line" name="dv02"/>
      <point x="268" y="1394" name="av03"/>
      <point x="287" y="1463"/>
      <point x="320" y="1510" type="curve" smooth="yes"/>
      <point x="351" y="1554" name="sh02"/>
      <point x="398" y="1583"/>
      <point x="465" y="1583" type="curve" smooth="yes" name="sh03"/>
      <point x="490" y="1583"/>
      <point x="514" y="1579" name="at01"/>
      <point x="537" y="1570" type="curve" smooth="yes"/>
      <point x="564" y="1559"/>
      <point x="586" y="1546" name="sh05"/>
      <point x="614" y="1526" type="curve" smooth="yes" name="ah02"/>
      <point x="676" y="1483" type="line" smooth="yes"/>
      <point x="693" y="1471"/>
      <point x="701" y="1467" name="sv01"/>
      <point x="716" y="1460" type="curve" smooth="yes" name="hr01"/>
      <point x="729" y="1455" name="sh06"/>
      <point x="740" y="1452" name="ab01"/>
      <point x="751" y="1452" type="curve" smooth="yes"/>
      <point x="774" y="1452" name="ah01"/>
      <point x="793" y="1463" name="sh07"/>
      <point x="806" y="1484" type="curve" smooth="yes"/>
      <point x="819" y="1505"/>
      <point x="825" y="1534"/>
      <point x="825" y="1573" type="curve" smooth="yes"/>
      <point x="825" y="1581" type="line"/>
      <point x="965" y="1581" type="line"/>
      <point x="965" y="1490"/>
      <point x="948" y="1420"/>
      <point x="914" y="1371" type="curve" smooth="yes"/>
      <point x="882" y="1324"/>
      <point x="833" y="1297"/>
    </contour>
    <contour>
      <point x="172" y="1120" type="line"/>
      <point x="434" y="1120" type="line"/>
      <point x="463" y="952" type="line"/>
      <point x="484" y="1014"/>
      <point x="520" y="1062"/>
      <point x="569" y="1096" type="curve" smooth="yes"/>
      <point x="619" y="1130"/>
      <point x="680" y="1147"/>
      <point x="751" y="1147" type="curve" smooth="yes"/>
      <point x="856" y="1147"/>
      <point x="936" y="1112"/>
      <point x="990" y="1042" type="curve" smooth="yes" name="hr02"/>
      <point x="1044" y="971"/>
      <point x="1071" y="866"/>
      <point x="1071" y="727" type="curve" smooth="yes"/>
      <point x="1071" y="0" type="line" name="hr03"/>
      <point x="780" y="0" type="line"/>
      <point x="780" y="682" type="line" smooth="yes"/>
      <point x="780" y="764"/>
      <point x="769" y="822"/>
      <point x="746" y="857" type="curve" smooth="yes"/>
      <point x="723" y="892"/>
      <point x="684" y="909"/>
      <point x="636" y="909" type="curve" smooth="yes"/>
      <point x="579" y="909"/>
      <point x="540" y="885"/>
      <point x="509" y="838" type="curve" smooth="yes"/>
      <point x="480" y="793"/>
      <point x="463" y="733"/>
      <point x="463" y="641" type="curve" smooth="yes"/>
      <point x="463" y="0" type="line"/>
      <point x="172" y="0" type="line"/>
    </contour>
  </outline>
</glyph>
<glyph name="ograve" format="1">
  <advance width="1233"/>
  <unicode hex="00F2"/>
  <outline>
    <contour>
      <point x="199" y="1596" type="line" name="ih01"/>
      <point x="481" y="1596" type="line"/>
      <point x="764" y="1297" type="line" name="ih02"/>
      <point x="567" y="1297" type="line"/>
    </contour>
    <contour>
      <point x="617" y="-29" type="curve" smooth="yes" name="dv01"/>
      <point x="446" y="-29"/>
      <point x="322" y="34" name="sh01"/>
      <point x="238" y="129" type="curve" smooth="yes"/>
      <point x="145" y="234" name="at01"/>
      <point x="98" y="384"/>
      <point x="98" y="560" type="curve" smooth="yes" name="sh03"/>
      <point x="98" y="739"/>
      <point x="146" y="885"/>
      <point x="238" y="989" type="curve" smooth="yes" name="dv02"/>
      <point x="330" y="1093"/>
      <point x="459" y="1147" name="ah02"/>
      <point x="616" y="1147" type="curve" smooth="yes"/>
      <point x="780" y="1147" name="sv01"/>
      <point x="907" y="1089"/>
      <point x="995" y="990" type="curve" smooth="yes" name="sh02"/>
      <point x="1083" y="891"/>
      <point x="1135" y="748"/>
      <point x="1135" y="559" type="curve" smooth="yes" name="ah01"/>
      <point x="1135" y="380" name="sh04"/>
      <point x="1088" y="235"/>
      <point x="996" y="130" type="curve" smooth="yes"/>
      <point x="908" y="30"/>
      <point x="780" y="-29"/>
    </contour>
    <contour>
      <point x="616" y="209" type="curve" smooth="yes"/>
      <point x="687" y="209"/>
      <point x="742" y="240"/>
      <point x="782" y="301" type="curve" smooth="yes"/>
      <point x="822" y="363"/>
      <point x="842" y="449"/>
      <point x="842" y="560" type="curve" smooth="yes"/>
      <point x="842" y="669"/>
      <point x="822" y="755"/>
      <point x="782" y="817" type="curve" smooth="yes"/>
      <point x="741" y="881"/>
      <point x="684" y="909"/>
      <point x="616" y="909" type="curve" smooth="yes"/>
      <point x="541" y="909"/>
      <point x="488" y="874"/>
      <point x="451" y="817" type="curve" smooth="yes"/>
      <point x="411" y="755"/>
      <point x="391" y="669"/>
      <point x="391" y="560" type="curve" smooth="yes"/>
      <point x="391" y="449"/>
      <point x="411" y="363"/>
      <point x="451" y="301" type="curve" smooth="yes"/>
      <point x="491" y="240"/>
      <point x="546" y="209"/>
    </contour>
  </outline>
</glyph>
<glyph name="oacute" format="1">
  <advance width="1233"/>
  <unicode hex="00F3"/>
  <outline>
    <contour>
      <point x="752" y="1596" type="line" name="av01"/>
      <point x="1034" y="1596" type="line" name="ih01"/>
      <point x="666" y="1297" type="line"/>
      <point x="469" y="1297" type="line" name="ih02"/>
    </contour>
    <contour>
      <point x="617" y="-29" type="curve" smooth="yes" name="dv01"/>
      <point x="446" y="-29"/>
      <point x="322" y="34" name="sh02"/>
      <point x="238" y="129" type="curve" smooth="yes"/>
      <point x="145" y="234" name="at01"/>
      <point x="98" y="384"/>
      <point x="98" y="560" type="curve" smooth="yes" name="sh01"/>
      <point x="98" y="739"/>
      <point x="146" y="885"/>
      <point x="238" y="989" type="curve" smooth="yes" name="dv02"/>
      <point x="330" y="1093"/>
      <point x="459" y="1147" name="ah02"/>
      <point x="616" y="1147" type="curve" smooth="yes"/>
      <point x="780" y="1147" name="sv01"/>
      <point x="907" y="1089"/>
      <point x="995" y="990" type="curve" smooth="yes" name="sh03"/>
      <point x="1083" y="891"/>
      <point x="1135" y="748"/>
      <point x="1135" y="559" type="curve" smooth="yes" name="ah01"/>
      <point x="1135" y="380" name="sh04"/>
      <point x="1088" y="235"/>
      <point x="996" y="130" type="curve" smooth="yes"/>
      <point x="908" y="30"/>
      <point x="780" y="-29"/>
    </contour>
    <contour>
      <point x="616" y="209" type="curve" smooth="yes"/>
      <point x="687" y="209"/>
      <point x="742" y="240"/>
      <point x="782" y="301" type="curve" smooth="yes"/>
      <point x="822" y="363"/>
      <point x="842" y="449"/>
      <point x="842" y="560" type="curve" smooth="yes"/>
      <point x="842" y="669"/>
      <point x="822" y="755"/>
      <point x="782" y="817" type="curve" smooth="yes"/>
      <point x="741" y="881"/>
      <point x="684" y="909"/>
      <point x="616" y="909" type="curve" smooth="yes"/>
      <point x="541" y="909"/>
      <point x="488" y="874"/>
      <point x="451" y="817" type="curve" smooth="yes"/>
      <point x="411" y="755"/>
      <point x="391" y="669"/>
      <point x="391" y="560" type="curve" smooth="yes"/>
      <point x="391" y="449"/>
      <point x="411" y="363"/>
      <point x="451" y="301" type="curve" smooth="yes"/>
      <point x="491" y="240"/>
      <point x="546" y="209"/>
    </contour>
  </outline>
</glyph>
<glyph name="otilde" format="1">
  <advance width="1233"/>
  <unicode hex="00F5"/>
  <outline>
    <contour>
      <point x="768" y="1297" type="curve" smooth="yes" name="sv01"/>
      <point x="740" y="1297"/>
      <point x="721" y="1302"/>
      <point x="701" y="1309" type="curve" smooth="yes"/>
      <point x="670" y="1320"/>
      <point x="653" y="1331"/>
      <point x="618" y="1354" type="curve" smooth="yes"/>
      <point x="551" y="1399" type="line" smooth="yes" name="dv03"/>
      <point x="522" y="1418" name="sh01"/>
      <point x="498" y="1428"/>
      <point x="479" y="1428" type="curve" smooth="yes"/>
      <point x="458" y="1428" name="av01"/>
      <point x="441" y="1417" name="av02"/>
      <point x="428" y="1396" type="curve" smooth="yes"/>
      <point x="415" y="1375"/>
      <point x="408" y="1345"/>
      <point x="408" y="1307" type="curve" smooth="yes"/>
      <point x="408" y="1299" type="line"/>
      <point x="268" y="1299" type="line" name="av03"/>
      <point x="268" y="1332" type="line" smooth="yes" name="dv04"/>
      <point x="268" y="1408" name="av04"/>
      <point x="286" y="1469"/>
      <point x="322" y="1515" type="curve" smooth="yes"/>
      <point x="358" y="1561"/>
      <point x="406" y="1584"/>
      <point x="465" y="1584" type="curve" smooth="yes" name="dv01"/>
      <point x="490" y="1584"/>
      <point x="514" y="1580" name="dh01"/>
      <point x="537" y="1571" type="curve" smooth="yes"/>
      <point x="564" y="1560" name="at01"/>
      <point x="586" y="1546"/>
      <point x="614" y="1526" type="curve" smooth="yes" name="dh04"/>
      <point x="676" y="1483" type="line" smooth="yes"/>
      <point x="695" y="1470"/>
      <point x="704" y="1466" name="dv02"/>
      <point x="716" y="1461" type="curve" smooth="yes"/>
      <point x="729" y="1456" name="dh03"/>
      <point x="740" y="1453"/>
      <point x="751" y="1453" type="curve" smooth="yes" name="sv02"/>
      <point x="775" y="1453"/>
      <point x="793" y="1463" name="dh02"/>
      <point x="806" y="1484" type="curve" smooth="yes"/>
      <point x="819" y="1505"/>
      <point x="825" y="1534"/>
      <point x="825" y="1573" type="curve" smooth="yes" name="sh02"/>
      <point x="825" y="1582" type="line"/>
      <point x="965" y="1582" type="line"/>
      <point x="965" y="1577"/>
      <point x="965" y="1572"/>
      <point x="964" y="1565" type="curve" smooth="yes"/>
      <point x="963" y="1558"/>
      <point x="963" y="1554"/>
      <point x="963" y="1551" type="curve" smooth="yes"/>
      <point x="963" y="1473"/>
      <point x="945" y="1411"/>
      <point x="910" y="1366" type="curve" smooth="yes"/>
      <point x="875" y="1322"/>
      <point x="829" y="1297"/>
    </contour>
    <contour>
      <point x="617" y="-29" type="curve" smooth="yes"/>
      <point x="446" y="-29"/>
      <point x="322" y="34"/>
      <point x="238" y="129" type="curve" smooth="yes"/>
      <point x="145" y="234"/>
      <point x="98" y="384"/>
      <point x="98" y="560" type="curve" smooth="yes"/>
      <point x="98" y="739"/>
      <point x="146" y="885"/>
      <point x="238" y="989" type="curve" smooth="yes"/>
      <point x="330" y="1093"/>
      <point x="459" y="1147"/>
      <point x="616" y="1147" type="curve" smooth="yes"/>
      <point x="780" y="1147"/>
      <point x="907" y="1089"/>
      <point x="995" y="990" type="curve" smooth="yes"/>
      <point x="1083" y="891"/>
      <point x="1135" y="748"/>
      <point x="1135" y="559" type="curve" smooth="yes" name="hr01"/>
      <point x="1135" y="380"/>
      <point x="1088" y="235"/>
      <point x="996" y="130" type="curve" smooth="yes"/>
      <point x="908" y="30"/>
      <point x="780" y="-29"/>
    </contour>
    <contour>
      <point x="616" y="209" type="curve" smooth="yes" name="hr02"/>
      <point x="687" y="209"/>
      <point x="742" y="240"/>
      <point x="782" y="301" type="curve" smooth="yes"/>
      <point x="822" y="363"/>
      <point x="842" y="449"/>
      <point x="842" y="560" type="curve" smooth="yes"/>
      <point x="842" y="669"/>
      <point x="822" y="755"/>
      <point x="782" y="817" type="curve" smooth="yes"/>
      <point x="741" y="881"/>
      <point x="684" y="909"/>
      <point x="616" y="909" type="curve" smooth="yes"/>
      <point x="541" y="909"/>
      <point x="488" y="874"/>
      <point x="451" y="817" type="curve" smooth="yes"/>
      <point x="411" y="755"/>
      <point x="391" y="669"/>
      <point x="391" y="560" type="curve" smooth="yes"/>
      <point x="391" y="449"/>
      <point x="411" y="363"/>
      <point x="451" y="301" type="curve" smooth="yes"/>
      <point x="491" y="240"/>
      <point x="546" y="209"/>
    </contour>
  </outline>
</glyph>
<glyph name="odieresis" format="1">
  <advance width="1233"/>
  <unicode hex="00F6"/>
  <outline>
    <contour>
      <point x="331" y="1347" type="line" smooth="yes" name="dv03"/>
      <point x="311" y="1347" name="ih01"/>
      <point x="301" y="1357"/>
      <point x="301" y="1377" type="curve" smooth="yes" name="dv04"/>
      <point x="301" y="1563" type="line" smooth="yes"/>
      <point x="301" y="1583"/>
      <point x="311" y="1593" name="sh01"/>
      <point x="331" y="1593" type="curve" smooth="yes"/>
      <point x="507" y="1593" type="line" smooth="yes" name="sv01"/>
      <point x="527" y="1593" name="dh03"/>
      <point x="537" y="1583"/>
      <point x="537" y="1563" type="curve" smooth="yes" name="sv02"/>
      <point x="537" y="1377" type="line" smooth="yes"/>
      <point x="537" y="1357"/>
      <point x="527" y="1347" name="dh04"/>
      <point x="507" y="1347" type="curve" smooth="yes"/>
    </contour>
    <contour>
      <point x="726" y="1347" type="line" smooth="yes" name="dv01"/>
      <point x="706" y="1347"/>
      <point x="696" y="1357" name="dh01"/>
      <point x="696" y="1377" type="curve" smooth="yes"/>
      <point x="696" y="1563" type="line" smooth="yes" name="at01"/>
      <point x="696" y="1583"/>
      <point x="706" y="1593" name="sh02"/>
      <point x="726" y="1593" type="curve" smooth="yes"/>
      <point x="902" y="1593" type="line" smooth="yes"/>
      <point x="922" y="1593" name="dv02"/>
      <point x="932" y="1583"/>
      <point x="932" y="1563" type="curve" smooth="yes" name="ih02"/>
      <point x="932" y="1377" type="line" smooth="yes"/>
      <point x="932" y="1357" name="sv03"/>
      <point x="922" y="1347"/>
      <point x="902" y="1347" type="curve" smooth="yes" name="dh02"/>
    </contour>
    <contour>
      <point x="617" y="-29" type="curve" smooth="yes"/>
      <point x="446" y="-29"/>
      <point x="322" y="34"/>
      <point x="238" y="129" type="curve" smooth="yes" name="sh03"/>
      <point x="145" y="234"/>
      <point x="98" y="384"/>
      <point x="98" y="560" type="curve" smooth="yes"/>
      <point x="98" y="739"/>
      <point x="146" y="885"/>
      <point x="238" y="989" type="curve" smooth="yes" name="hr01"/>
      <point x="330" y="1093"/>
      <point x="459" y="1147"/>
      <point x="616" y="1147" type="curve" smooth="yes"/>
      <point x="780" y="1147"/>
      <point x="907" y="1089"/>
      <point x="995" y="990" type="curve" smooth="yes"/>
      <point x="1083" y="891"/>
      <point x="1135" y="748"/>
      <point x="1135" y="559" type="curve" smooth="yes"/>
      <point x="1135" y="380"/>
      <point x="1088" y="235"/>
      <point x="996" y="130" type="curve" smooth="yes"/>
      <point x="908" y="30"/>
      <point x="780" y="-29"/>
    </contour>
    <contour>
      <point x="616" y="209" type="curve" smooth="yes"/>
      <point x="687" y="209"/>
      <point x="742" y="240"/>
      <point x="782" y="301" type="curve" smooth="yes"/>
      <point x="822" y="363"/>
      <point x="842" y="449"/>
      <point x="842" y="560" type="curve" smooth="yes"/>
      <point x="842" y="669"/>
      <point x="822" y="755"/>
      <point x="782" y="817" type="curve" smooth="yes"/>
      <point x="741" y="881"/>
      <point x="684" y="909"/>
      <point x="616" y="909" type="curve" smooth="yes"/>
      <point x="541" y="909"/>
      <point x="488" y="874"/>
      <point x="451" y="817" type="curve" smooth="yes"/>
      <point x="411" y="755"/>
      <point x="391" y="669"/>
      <point x="391" y="560" type="curve" smooth="yes"/>
      <point x="391" y="449"/>
      <point x="411" y="363"/>
      <point x="451" y="301" type="curve" smooth="yes"/>
      <point x="491" y="240"/>
      <point x="546" y="209"/>
    </contour>
  </outline>
</glyph>
<glyph name="divide" format="1">
  <advance width="1233"/>
  <unicode hex="00F7"/>
  <outline>
    <contour>
      <point x="491" y="889" type="line" smooth="yes" name="dv03"/>
      <point x="471" y="889" name="dh01"/>
      <point x="461" y="899"/>
      <point x="461" y="919" type="curve" smooth="yes" name="dv04"/>
      <point x="461" y="1168" type="line" smooth="yes"/>
      <point x="461" y="1188"/>
      <point x="471" y="1198" name="dh02"/>
      <point x="491" y="1198" type="curve" smooth="yes"/>
      <point x="740" y="1198" type="line" smooth="yes"/>
      <point x="760" y="1198" name="dv06"/>
      <point x="770" y="1188" name="dv05"/>
      <point x="770" y="1168" type="curve" smooth="yes"/>
      <point x="770" y="919" type="line" smooth="yes" name="dv01"/>
      <point x="770" y="899" name="sh01"/>
      <point x="760" y="889"/>
      <point x="740" y="889" type="curve" smooth="yes" name="dv02"/>
    </contour>
    <contour>
      <point x="66" y="762" type="line"/>
      <point x="1165" y="762" type="line" name="sh02"/>
      <point x="1165" y="524" type="line"/>
      <point x="66" y="524" type="line"/>
    </contour>
    <contour>
      <point x="491" y="86" type="line" smooth="yes"/>
      <point x="471" y="86"/>
      <point x="461" y="96"/>
      <point x="461" y="116" type="curve" smooth="yes"/>
      <point x="461" y="365" type="line" smooth="yes"/>
      <point x="461" y="385"/>
      <point x="471" y="395"/>
      <point x="491" y="395" type="curve" smooth="yes"/>
      <point x="740" y="395" type="line" smooth="yes"/>
      <point x="760" y="395"/>
      <point x="770" y="385"/>
      <point x="770" y="365" type="curve" smooth="yes"/>
      <point x="770" y="116" type="line" smooth="yes"/>
      <point x="770" y="96"/>
      <point x="760" y="86"/>
      <point x="740" y="86" type="curve" smooth="yes"/>
    </contour>
  </outline>
</glyph>
<glyph name="ugrave" format="1">
  <advance width="1233"/>
  <unicode hex="00F9"/>
  <outline>
    <contour>
      <point x="199" y="1646" type="line" name="ih01"/>
      <point x="481" y="1646" type="line"/>
      <point x="764" y="1270" type="line" name="sh03"/>
      <point x="567" y="1270" type="line" name="hr01"/>
    </contour>
    <contour>
      <point x="481" y="-29" type="curve" smooth="yes" name="dv01"/>
      <point x="381" y="-29"/>
      <point x="299" y="2" name="sh01"/>
      <point x="242" y="77" type="curve" smooth="yes" name="at01"/>
      <point x="187" y="148"/>
      <point x="160" y="252" name="sh02"/>
      <point x="160" y="391" type="curve" smooth="yes"/>
      <point x="160" y="1120" type="line" name="dv02"/>
      <point x="453" y="1120" type="line"/>
      <point x="453" y="436" type="line" smooth="yes" name="sh04"/>
      <point x="453" y="355" name="at02"/>
      <point x="464" y="298"/>
      <point x="487" y="263" type="curve" smooth="yes" name="sh05"/>
      <point x="510" y="228"/>
      <point x="549" y="211" name="ah02"/>
      <point x="598" y="211" type="curve" smooth="yes"/>
      <point x="649" y="211"/>
      <point x="692" y="230" name="ah01"/>
      <point x="724" y="281" type="curve" smooth="yes" name="sh06"/>
      <point x="753" y="328"/>
      <point x="768" y="394"/>
      <point x="768" y="477" type="curve" smooth="yes"/>
      <point x="768" y="1120" type="line"/>
      <point x="1061" y="1120" type="line"/>
      <point x="1061" y="0" type="line"/>
      <point x="797" y="0" type="line"/>
      <point x="768" y="166" type="line"/>
      <point x="747" y="104"/>
      <point x="712" y="56"/>
      <point x="663" y="22" type="curve" smooth="yes"/>
      <point x="613" y="-12"/>
      <point x="552" y="-29"/>
    </contour>
  </outline>
</glyph>
<glyph name="uacute" format="1">
  <advance width="1233"/>
  <unicode hex="00FA"/>
  <outline>
    <contour>
      <point x="752" y="1646" type="line" name="av01"/>
      <point x="1034" y="1646" type="line" name="ih01"/>
      <point x="666" y="1270" type="line"/>
      <point x="469" y="1270" type="line" name="ih02"/>
    </contour>
    <contour>
      <point x="481" y="-29" type="curve" smooth="yes" name="dv01"/>
      <point x="381" y="-29"/>
      <point x="299" y="2" name="sh02"/>
      <point x="242" y="77" type="curve" smooth="yes" name="at01"/>
      <point x="187" y="148"/>
      <point x="160" y="252" name="sh03"/>
      <point x="160" y="391" type="curve" smooth="yes"/>
      <point x="160" y="1120" type="line" name="dv02"/>
      <point x="453" y="1120" type="line"/>
      <point x="453" y="436" type="line" smooth="yes" name="sh04"/>
      <point x="453" y="355" name="at02"/>
      <point x="464" y="298"/>
      <point x="487" y="263" type="curve" smooth="yes" name="sh01"/>
      <point x="510" y="228"/>
      <point x="549" y="211" name="ah02"/>
      <point x="598" y="211" type="curve" smooth="yes"/>
      <point x="649" y="211"/>
      <point x="692" y="230" name="ah01"/>
      <point x="724" y="281" type="curve" smooth="yes" name="sh05"/>
      <point x="753" y="328"/>
      <point x="768" y="394"/>
      <point x="768" y="477" type="curve" smooth="yes"/>
      <point x="768" y="1120" type="line"/>
      <point x="1061" y="1120" type="line"/>
      <point x="1061" y="0" type="line"/>
      <point x="797" y="0" type="line"/>
      <point x="768" y="166" type="line"/>
      <point x="747" y="104"/>
      <point x="712" y="56"/>
      <point x="663" y="22" type="curve" smooth="yes"/>
      <point x="613" y="-12"/>
      <point x="552" y="-29"/>
    </contour>
  </outline>
</glyph>
<glyph name="ucircumflex" format="1">
  <advance width="1233"/>
  <unicode hex="00FB"/>
  <outline>
    <contour>
      <point x="496" y="1646" type="line" name="av01"/>
      <point x="737" y="1646" type="line"/>
      <point x="993" y="1270" type="line" name="ih01"/>
      <point x="815" y="1270" type="line" name="hr01"/>
      <point x="616" y="1495" type="line"/>
      <point x="418" y="1270" type="line"/>
      <point x="240" y="1270" type="line" name="ih02"/>
    </contour>
    <contour>
      <point x="481" y="-29" type="curve" smooth="yes" name="dv01"/>
      <point x="381" y="-29"/>
      <point x="299" y="2" name="sh02"/>
      <point x="242" y="77" type="curve" smooth="yes" name="at01"/>
      <point x="187" y="148"/>
      <point x="160" y="252" name="sh03"/>
      <point x="160" y="391" type="curve" smooth="yes" name="hr02"/>
      <point x="160" y="1120" type="line" name="dv02"/>
      <point x="453" y="1120" type="line"/>
      <point x="453" y="436" type="line" smooth="yes" name="sh04"/>
      <point x="453" y="355" name="at02"/>
      <point x="464" y="298"/>
      <point x="487" y="263" type="curve" smooth="yes" name="sh01"/>
      <point x="510" y="228"/>
      <point x="549" y="211" name="ah02"/>
      <point x="598" y="211" type="curve" smooth="yes"/>
      <point x="649" y="211"/>
      <point x="692" y="230" name="ah01"/>
      <point x="724" y="281" type="curve" smooth="yes" name="sh05"/>
      <point x="753" y="328"/>
      <point x="768" y="394"/>
      <point x="768" y="477" type="curve" smooth="yes"/>
      <point x="768" y="1120" type="line"/>
      <point x="1061" y="1120" type="line"/>
      <point x="1061" y="0" type="line"/>
      <point x="797" y="0" type="line"/>
      <point x="768" y="166" type="line"/>
      <point x="747" y="104"/>
      <point x="712" y="56"/>
      <point x="663" y="22" type="curve" smooth="yes"/>
      <point x="613" y="-12"/>
      <point x="552" y="-29"/>
    </contour>
  </outline>
</glyph>
<glyph name="udieresis" format="1">
  <advance width="1233"/>
  <unicode hex="00FC"/>
  <outline>
    <contour>
      <point x="331" y="1347" type="line" smooth="yes" name="sv01"/>
      <point x="311" y="1347" name="ih01"/>
      <point x="301" y="1357"/>
      <point x="301" y="1377" type="curve" smooth="yes" name="at03"/>
      <point x="301" y="1563" type="line" smooth="yes"/>
      <point x="301" y="1583"/>
      <point x="311" y="1593" name="sh01"/>
      <point x="331" y="1593" type="curve" smooth="yes" name="hr01"/>
      <point x="507" y="1593" type="line" smooth="yes" name="sv02"/>
      <point x="527" y="1593" name="dh03"/>
      <point x="537" y="1583"/>
      <point x="537" y="1563" type="curve" smooth="yes" name="at04"/>
      <point x="537" y="1377" type="line" smooth="yes"/>
      <point x="537" y="1357"/>
      <point x="527" y="1347" name="dh04"/>
      <point x="507" y="1347" type="curve" smooth="yes" name="sv03"/>
    </contour>
    <contour>
      <point x="726" y="1347" type="line" smooth="yes" name="dv01"/>
      <point x="706" y="1347"/>
      <point x="696" y="1357" name="dh01"/>
      <point x="696" y="1377" type="curve" smooth="yes" name="at01"/>
      <point x="696" y="1563" type="line" smooth="yes"/>
      <point x="696" y="1583" name="dh02"/>
      <point x="706" y="1593"/>
      <point x="726" y="1593" type="curve" smooth="yes" name="dv02"/>
      <point x="902" y="1593" type="line" smooth="yes"/>
      <point x="922" y="1593" name="sh02"/>
      <point x="932" y="1583" name="at02"/>
      <point x="932" y="1563" type="curve" smooth="yes"/>
      <point x="932" y="1377" type="line" smooth="yes" name="sh03"/>
      <point x="932" y="1357"/>
      <point x="922" y="1347" name="ih02"/>
      <point x="902" y="1347" type="curve" smooth="yes"/>
    </contour>
    <contour>
      <point x="481" y="-29" type="curve" smooth="yes"/>
      <point x="381" y="-29"/>
      <point x="299" y="2" name="sh04"/>
      <point x="242" y="77" type="curve" smooth="yes"/>
      <point x="187" y="148"/>
      <point x="160" y="252"/>
      <point x="160" y="391" type="curve" smooth="yes"/>
      <point x="160" y="1120" type="line"/>
      <point x="453" y="1120" type="line"/>
      <point x="453" y="436" type="line" smooth="yes"/>
      <point x="453" y="355"/>
      <point x="464" y="298"/>
      <point x="487" y="263" type="curve" smooth="yes"/>
      <point x="510" y="228"/>
      <point x="549" y="211"/>
      <point x="598" y="211" type="curve" smooth="yes"/>
      <point x="649" y="211"/>
      <point x="692" y="230"/>
      <point x="724" y="281" type="curve" smooth="yes"/>
      <point x="753" y="328"/>
      <point x="768" y="394"/>
      <point x="768" y="477" type="curve" smooth="yes"/>
      <point x="768" y="1120" type="line" name="hr03"/>
      <point x="1061" y="1120" type="line"/>
      <point x="1061" y="0" type="line"/>
      <point x="797" y="0" type="line"/>
      <point x="768" y="166" type="line"/>
      <point x="747" y="104"/>
      <point x="712" y="56"/>
      <point x="663" y="22" type="curve" smooth="yes"/>
      <point x="613" y="-12"/>
      <point x="552" y="-29"/>
    </contour>
  </outline>
</glyph>
<glyph name="thorn" format="1">
  <advance width="1233"/>
  <unicode hex="00FE"/>
  <outline>
    <contour>
      <point x="150" y="1556" type="line" name="sh01"/>
      <point x="442" y="1556" type="line" name="sh02"/>
      <point x="442" y="952" type="line" name="iv01"/>
      <point x="473" y="1017"/>
      <point x="513" y="1065" name="at01"/>
      <point x="563" y="1098" type="curve" smooth="yes"/>
      <point x="612" y="1131" name="sh03"/>
      <point x="671" y="1147"/>
      <point x="740" y="1147" type="curve" smooth="yes" name="dv01"/>
      <point x="865" y="1147"/>
      <point x="965" y="1097" name="sh04"/>
      <point x="1037" y="994" type="curve" smooth="yes" name="ab01"/>
      <point x="1109" y="890"/>
      <point x="1143" y="741" name="dv02"/>
      <point x="1143" y="558" type="curve" smooth="yes"/>
      <point x="1143" y="363" name="ah02"/>
      <point x="1104" y="219"/>
      <point x="1036" y="123" type="curve" smooth="yes" name="sv01"/>
      <point x="963" y="19"/>
      <point x="856" y="-29" name="sh05"/>
      <point x="735" y="-29" type="curve" smooth="yes"/>
      <point x="672" y="-29"/>
      <point x="618" y="-17" name="ah01"/>
      <point x="567" y="18" type="curve" smooth="yes" name="sh06"/>
      <point x="524" y="46"/>
      <point x="477" y="94"/>
      <point x="442" y="158" type="curve"/>
      <point x="442" y="-426" type="line"/>
      <point x="150" y="-426" type="line"/>
    </contour>
    <contour>
      <point x="647" y="215" type="curve" smooth="yes"/>
      <point x="710" y="215"/>
      <point x="760" y="246"/>
      <point x="796" y="307" type="curve" smooth="yes"/>
      <point x="832" y="368"/>
      <point x="850" y="452"/>
      <point x="850" y="561" type="curve" smooth="yes"/>
      <point x="850" y="669"/>
      <point x="832" y="754"/>
      <point x="796" y="815" type="curve" smooth="yes"/>
      <point x="760" y="876"/>
      <point x="710" y="907"/>
      <point x="647" y="907" type="curve" smooth="yes"/>
      <point x="584" y="907"/>
      <point x="534" y="876"/>
      <point x="497" y="815" type="curve" smooth="yes"/>
      <point x="460" y="754"/>
      <point x="442" y="670"/>
      <point x="442" y="561" type="curve" smooth="yes"/>
      <point x="442" y="452"/>
      <point x="460" y="368"/>
      <point x="497" y="307" type="curve" smooth="yes"/>
      <point x="534" y="246"/>
      <point x="584" y="215"/>
    </contour>
  </outline>
</glyph>
<glyph name="Aogonek" format="1">
  <advance width="1233"/>
  <unicode hex="0104"/>
  <outline>
    <contour>
      <point x="1081" y="-254" type="curve" smooth="yes" name="dv02"/>
      <point x="1122" y="-254" name="sh01"/>
      <point x="1176" y="-244"/>
      <point x="1229" y="-223" type="curve" name="dv01"/>
      <point x="1229" y="-379" type="line" name="dh01"/>
      <point x="1157" y="-394" name="ih01"/>
      <point x="1093" y="-401"/>
      <point x="1042" y="-401" type="curve" smooth="yes" name="dv03"/>
      <point x="886" y="-401"/>
      <point x="801" y="-339" name="ab01"/>
      <point x="801" y="-224" type="curve" smooth="yes"/>
      <point x="801" y="-151" name="at01"/>
      <point x="836" y="-81"/>
      <point x="912" y="0" type="curve" name="ih02"/>
      <point x="905" y="0" type="line"/>
      <point x="813" y="369" type="line"/>
      <point x="418" y="369" type="line" name="dh02"/>
      <point x="328" y="0" type="line"/>
      <point x="33" y="0" type="line" name="dv04"/>
      <point x="436" y="1493" type="line"/>
      <point x="797" y="1493" type="line"/>
      <point x="1200" y="0" type="line"/>
      <point x="1053" y="0" type="line" name="sh02"/>
      <point x="1007" y="-62"/>
      <point x="993" y="-87"/>
      <point x="982" y="-106" type="curve" smooth="yes"/>
      <point x="969" y="-130"/>
      <point x="963" y="-147"/>
      <point x="963" y="-166" type="curve" smooth="yes"/>
      <point x="963" y="-213"/>
      <point x="998" y="-254"/>
    </contour>
    <contour>
      <point x="756" y="612" type="line" name="hr01"/>
      <point x="616" y="1223" type="line"/>
      <point x="477" y="612" type="line"/>
    </contour>
  </outline>
</glyph>
<glyph name="cacute" format="1">
  <advance width="1233"/>
  <unicode hex="0107"/>
  <outline>
    <contour>
      <point x="854" y="1672" type="line" name="av01"/>
      <point x="1136" y="1672" type="line"/>
      <point x="768" y="1296" type="line"/>
      <point x="571" y="1296" type="line"/>
    </contour>
    <contour>
      <point x="722" y="-29" type="curve" smooth="yes" name="dv01"/>
      <point x="547" y="-29"/>
      <point x="411" y="23" name="dh01"/>
      <point x="314" y="127" type="curve" smooth="yes"/>
      <point x="217" y="232" name="dv04"/>
      <point x="168" y="376"/>
      <point x="168" y="559" type="curve" smooth="yes"/>
      <point x="168" y="743"/>
      <point x="217" y="888"/>
      <point x="315" y="993" type="curve" smooth="yes" name="dv03"/>
      <point x="413" y="1097"/>
      <point x="548" y="1149" name="dh02"/>
      <point x="719" y="1149" type="curve" smooth="yes"/>
      <point x="780" y="1149" name="dv02"/>
      <point x="839" y="1142"/>
      <point x="895" y="1128" type="curve" smooth="yes"/>
      <point x="950" y="1114"/>
      <point x="1006" y="1092"/>
      <point x="1061" y="1063" type="curve"/>
      <point x="1061" y="795" type="line"/>
      <point x="1018" y="832"/>
      <point x="968" y="861"/>
      <point x="921" y="880" type="curve" smooth="yes"/>
      <point x="874" y="899"/>
      <point x="818" y="909"/>
      <point x="761" y="909" type="curve" smooth="yes"/>
      <point x="661" y="909"/>
      <point x="591" y="877"/>
      <point x="542" y="818" type="curve" smooth="yes"/>
      <point x="491" y="757"/>
      <point x="465" y="670"/>
      <point x="465" y="559" type="curve" smooth="yes"/>
      <point x="465" y="448"/>
      <point x="491" y="362"/>
      <point x="542" y="301" type="curve" smooth="yes"/>
      <point x="593" y="241"/>
      <point x="666" y="211"/>
      <point x="762" y="211" type="curve" smooth="yes"/>
      <point x="818" y="211"/>
      <point x="871" y="221"/>
      <point x="921" y="240" type="curve" smooth="yes"/>
      <point x="964" y="256"/>
      <point x="1014" y="283"/>
      <point x="1061" y="326" type="curve"/>
      <point x="1061" y="57" type="line"/>
      <point x="1008" y="26"/>
      <point x="958" y="8"/>
      <point x="902" y="-7" type="curve" smooth="yes"/>
      <point x="846" y="-22"/>
      <point x="791" y="-29"/>
    </contour>
  </outline>
</glyph>
<glyph name="Cdotaccent" format="1">
  <advance width="1233"/>
  <unicode hex="010A"/>
  <outline>
    <contour>
      <point x="599" y="1596" type="line" smooth="yes" name="dv03"/>
      <point x="582" y="1596" name="ah02"/>
      <point x="568" y="1610"/>
      <point x="568" y="1627" type="curve" smooth="yes" name="dv04"/>
      <point x="568" y="1811" type="line" smooth="yes"/>
      <point x="568" y="1828"/>
      <point x="582" y="1842" name="sh01"/>
      <point x="599" y="1842" type="curve" smooth="yes"/>
      <point x="812" y="1842" type="line" smooth="yes" name="dv01"/>
      <point x="829" y="1842" name="sh02"/>
      <point x="843" y="1828" name="at01"/>
      <point x="843" y="1811" type="curve" smooth="yes"/>
      <point x="843" y="1627" type="line" smooth="yes"/>
      <point x="843" y="1610" name="sv01"/>
      <point x="829" y="1596" name="sh03"/>
      <point x="812" y="1596" type="curve" smooth="yes" name="dv02"/>
    </contour>
    <contour>
      <point x="757" y="-29" type="curve" smooth="yes"/>
      <point x="360" y="-29"/>
      <point x="141" y="244"/>
      <point x="141" y="745" type="curve" smooth="yes" name="ah01"/>
      <point x="141" y="1248"/>
      <point x="360" y="1520"/>
      <point x="757" y="1520" type="curve" smooth="yes"/>
      <point x="874" y="1520"/>
      <point x="979" y="1496"/>
      <point x="1070" y="1448" type="curve"/>
      <point x="1070" y="1120" type="line"/>
      <point x="969" y="1213"/>
      <point x="877" y="1255"/>
      <point x="772" y="1255" type="curve" smooth="yes"/>
      <point x="559" y="1255"/>
      <point x="448" y="1084"/>
      <point x="448" y="745" type="curve" smooth="yes"/>
      <point x="448" y="406"/>
      <point x="559" y="236"/>
      <point x="772" y="236" type="curve" smooth="yes"/>
      <point x="877" y="236"/>
      <point x="969" y="278"/>
      <point x="1070" y="371" type="curve"/>
      <point x="1070" y="43" type="line"/>
      <point x="977" y="-5"/>
      <point x="876" y="-29"/>
    </contour>
  </outline>
</glyph>
